<svg width="16" height="16" viewBox="0 0 16 16" fill="none" xmlns="http://www.w3.org/2000/svg">
<path d="M13 2.5H3C2.72386 2.5 2.5 2.72386 2.5 3V5.75H1V3C1 1.89543 1.89543 1 3 1H13C14.1046 1 15 1.89543 15 3V13C15 14.1046 14.1046 15 13 15H3C1.89543 15 1 14.1046 1 13V10.25H2.5V13C2.5 13.2761 2.72386 13.5 3 13.5H13C13.2761 13.5 13.5 13.2761 13.5 13V3C13.5 2.72386 13.2761 2.5 13 2.5Z" fill="currentColor"/>
<path d="M7.53033 4.21979C7.23744 3.9269 6.76256 3.9269 6.46967 4.21979C6.17678 4.51269 6.17678 4.98756 6.46967 5.28045L8.43922 7.25L0.75 7.25C0.335786 7.25 0 7.58579 0 8C0 8.41421 0.335786 8.75 0.75 8.75L8.43946 8.75L6.46967 10.7198C6.17678 11.0127 6.17678 11.4876 6.46967 11.7805C6.76256 12.0733 7.23744 12.0733 7.53033 11.7805L10.7803 8.53044C11.0732 8.23755 11.0732 7.76268 10.7803 7.46978L7.53033 4.21979Z" fill="currentColor"/>
</svg>
