<svg width="16" height="16" viewBox="0 0 16 16" fill="none" xmlns="http://www.w3.org/2000/svg">
<path d="M1 1.75C1 1.33579 1.33579 1 1.75 1C2.16421 1 2.5 1.33579 2.5 1.75V14.25C2.5 14.6642 2.16421 15 1.75 15C1.33579 15 1 14.6642 1 14.25V1.75Z" fill="currentColor"/>
<path d="M4 5C4 4.44772 4.44772 4 5 4H14C14.5523 4 15 4.44772 15 5V6C15 6.55228 14.5523 7 14 7H5C4.44772 7 4 6.55228 4 6V5Z" fill="currentColor"/>
<path d="M5 9C4.44772 9 4 9.44771 4 10V11C4 11.5523 4.44772 12 5 12H9C9.55228 12 10 11.5523 10 11V10C10 9.44772 9.55228 9 9 9H5Z" fill="currentColor"/>
</svg>
