<svg width="16" height="16" viewBox="0 0 16 16" fill="none" xmlns="http://www.w3.org/2000/svg">
<path d="M2 1C1.44772 1 1 1.44772 1 2C1 2.55228 1.44772 3 2 3H14C14.5523 3 15 2.55228 15 2C15 1.44772 14.5523 1 14 1H2Z" fill="currentColor"/>
<path d="M2 9C1.44772 9 1 9.44771 1 10C1 10.5523 1.44772 11 2 11H14C14.5523 11 15 10.5523 15 10C15 9.44771 14.5523 9 14 9H2Z" fill="currentColor"/>
<path d="M1 6C1 5.44772 1.44772 5 2 5H14C14.5523 5 15 5.44772 15 6C15 6.55228 14.5523 7 14 7H2C1.44772 7 1 6.55228 1 6Z" fill="currentColor"/>
<path d="M2 13C1.44772 13 1 13.4477 1 14C1 14.5523 1.44772 15 2 15H14C14.5523 15 15 14.5523 15 14C15 13.4477 14.5523 13 14 13H2Z" fill="currentColor"/>
</svg>
