<svg width="16" height="16" viewBox="0 0 16 16" fill="none" xmlns="http://www.w3.org/2000/svg">
<path d="M1 1.75C1 1.33579 1.33579 1 1.75 1H14.25C14.6642 1 15 1.33579 15 1.75C15 2.16421 14.6642 2.5 14.25 2.5H1.75C1.33579 2.5 1 2.16421 1 1.75Z" fill="currentColor"/>
<path d="M9 5C9 4.44772 9.44772 4 10 4H11C11.5523 4 12 4.44772 12 5V14C12 14.5523 11.5523 15 11 15H10C9.44771 15 9 14.5523 9 14V5Z" fill="currentColor"/>
<path d="M5 4C4.44772 4 4 4.44772 4 5V9C4 9.55228 4.44772 10 5 10H6C6.55228 10 7 9.55228 7 9V5C7 4.44772 6.55228 4 6 4H5Z" fill="currentColor"/>
</svg>
