<svg width="16" height="16" viewBox="0 0 16 16" fill="none" xmlns="http://www.w3.org/2000/svg">
<path d="M9 2C9 1.44771 9.44772 1 10 1H11C11.5523 1 12 1.44772 12 2V11C12 11.5523 11.5523 12 11 12H10C9.44771 12 9 11.5523 9 11V2Z" fill="currentColor"/>
<path d="M1 14.25C1 13.8358 1.33579 13.5 1.75 13.5H14.25C14.6642 13.5 15 13.8358 15 14.25C15 14.6642 14.6642 15 14.25 15H1.75C1.33579 15 1 14.6642 1 14.25Z" fill="currentColor"/>
<path d="M5 4C4.44772 4 4 4.44772 4 5V11C4 11.5523 4.44772 12 5 12H6C6.55228 12 7 11.5523 7 11V5C7 4.44772 6.55228 4 6 4H5Z" fill="currentColor"/>
</svg>
