<svg width="16" height="16" viewBox="0 0 16 16" fill="none" xmlns="http://www.w3.org/2000/svg">
<path d="M2 1C1.44772 1 1 1.44772 1 2C1 2.55228 1.44772 3 2 3H14C14.5523 3 15 2.55228 15 2C15 1.44772 14.5523 1 14 1H2Z" fill="currentColor"/>
<path d="M2 9C1.44772 9 1 9.44771 1 10C1 10.5523 1.44772 11 2 11H14C14.5523 11 15 10.5523 15 10C15 9.44771 14.5523 9 14 9H2Z" fill="currentColor"/>
<path d="M4 6C4 5.44772 4.44772 5 5 5H11C11.5523 5 12 5.44772 12 6C12 6.55228 11.5523 7 11 7H5C4.44772 7 4 6.55228 4 6Z" fill="currentColor"/>
<path d="M5 13C4.44772 13 4 13.4477 4 14C4 14.5523 4.44772 15 5 15H11C11.5523 15 12 14.5523 12 14C12 13.4477 11.5523 13 11 13H5Z" fill="currentColor"/>
</svg>
