<svg width="16" height="16" viewBox="0 0 16 16" fill="none" xmlns="http://www.w3.org/2000/svg">
<path d="M8.75 1.75C8.75 1.33579 8.41421 1 8 1C7.58579 1 7.25 1.33579 7.25 1.75V4H2C1.44772 4 1 4.44772 1 5V6C1 6.55228 1.44772 7 2 7H7.25V9H5C4.44772 9 4 9.44771 4 10V11C4 11.5523 4.44772 12 5 12H7.25V14.25C7.25 14.6642 7.58579 15 8 15C8.41421 15 8.75 14.6642 8.75 14.25V12H11C11.5523 12 12 11.5523 12 11V10C12 9.44772 11.5523 9 11 9H8.75V7H14C14.5523 7 15 6.55228 15 6V5C15 4.44772 14.5523 4 14 4H8.75V1.75Z" fill="currentColor"/>
</svg>
