<svg width="16" height="16" viewBox="0 0 16 16" fill="none" xmlns="http://www.w3.org/2000/svg">
<path d="M9 2C9 1.44772 9.44772 1 10 1H11C11.5523 1 12 1.44772 12 2V7.25H14.25C14.6642 7.25 15 7.58579 15 8C15 8.41421 14.6642 8.75 14.25 8.75H12V14C12 14.5523 11.5523 15 11 15H10C9.44771 15 9 14.5523 9 14V8.75H7V11C7 11.5523 6.55228 12 6 12H5C4.44772 12 4 11.5523 4 11V8.75H1.75C1.33579 8.75 1 8.41421 1 8C1 7.58579 1.33579 7.25 1.75 7.25H4V5C4 4.44772 4.44772 4 5 4H6C6.55228 4 7 4.44772 7 5V7.25H9V2Z" fill="currentColor"/>
</svg>
