<svg width="16" height="16" viewBox="0 0 16 16" fill="none" xmlns="http://www.w3.org/2000/svg">
<path d="M13.5 1.75C13.5 1.33579 13.8358 1 14.25 1C14.6642 1 15 1.33579 15 1.75V14.25C15 14.6642 14.6642 15 14.25 15C13.8358 15 13.5 14.6642 13.5 14.25V1.75Z" fill="currentColor"/>
<path d="M1 5C1 4.44772 1.44772 4 2 4H11C11.5523 4 12 4.44772 12 5V6C12 6.55228 11.5523 7 11 7H2C1.44771 7 1 6.55228 1 6V5Z" fill="currentColor"/>
<path d="M6 9C5.44772 9 5 9.44771 5 10V11C5 11.5523 5.44772 12 6 12H11C11.5523 12 12 11.5523 12 11V10C12 9.44772 11.5523 9 11 9H6Z" fill="currentColor"/>
</svg>
