<svg width="16" height="16" viewBox="0 0 16 16" fill="none" xmlns="http://www.w3.org/2000/svg">
<path d="M1 3C1 2.44772 1.44772 2 2 2H14C14.5523 2 15 2.44772 15 3V4C15 4.55228 14.5523 5 14 5H2C1.44772 5 1 4.55228 1 4V3Z" fill="currentColor"/>
<path fill-rule="evenodd" clip-rule="evenodd" d="M2 6H14V12C14 13.1046 13.1046 14 12 14H4C2.89543 14 2 13.1046 2 12V6ZM6.75 8C6.33579 8 6 8.33579 6 8.75C6 9.16421 6.33579 9.5 6.75 9.5H9.25C9.66421 9.5 10 9.16421 10 8.75C10 8.33579 9.66421 8 9.25 8H6.75Z" fill="currentColor"/>
</svg>
