<svg width="16" height="16" viewBox="0 0 16 16" fill="none" xmlns="http://www.w3.org/2000/svg">
<path d="M8.28709 0.0569091C8.19866 0.0202391 8.10169 0 8 0C7.89831 0 7.80134 0.0202391 7.71291 0.0569091C7.62445 0.0935089 7.54158 0.147763 7.46967 0.21967L4.21967 3.46967C3.92678 3.76256 3.92678 4.23744 4.21967 4.53033C4.51256 4.82322 4.98744 4.82322 5.28033 4.53033L7.25 2.56066V13.4393L5.28033 11.4697C4.98744 11.1768 4.51256 11.1768 4.21967 11.4697C3.92678 11.7626 3.92678 12.2374 4.21967 12.5303L7.46967 15.7803C7.76256 16.0732 8.23744 16.0732 8.53033 15.7803L11.7803 12.5303C12.0732 12.2374 12.0732 11.7626 11.7803 11.4697C11.4874 11.1768 11.0126 11.1768 10.7197 11.4697L8.75 13.4393V2.56066L10.7197 4.53033C11.0126 4.82322 11.4874 4.82322 11.7803 4.53033C12.0732 4.23744 12.0732 3.76256 11.7803 3.46967L8.53033 0.21967C8.45842 0.147763 8.37555 0.0935089 8.28709 0.0569091Z" fill="currentColor"/>
</svg>
