<svg width="16" height="16" viewBox="0 0 16 16" fill="none" xmlns="http://www.w3.org/2000/svg">
<path d="M1.23772 7.45474C1.0877 7.59643 1.00269 7.79366 1.00269 8C1.00269 8.20635 1.0877 8.40358 1.23772 8.54526L5.73772 12.7953C6.03886 13.0797 6.51354 13.0661 6.79795 12.765C7.08235 12.4638 7.06879 11.9892 6.76765 11.7047L3.64195 8.75269H14.2527C14.6669 8.75269 15.0027 8.4169 15.0027 8.00269C15.0027 7.58847 14.6669 7.25269 14.2527 7.25269H3.63626L6.76765 4.29526C7.06879 4.01085 7.08235 3.53617 6.79795 3.23503C6.51354 2.9339 6.03886 2.92033 5.73772 3.20474L1.23772 7.45474Z" fill="currentColor"/>
</svg>
