<svg width="16" height="16" viewBox="0 0 16 16" fill="none" xmlns="http://www.w3.org/2000/svg">
<path d="M14.7677 8.54526C14.9177 8.40358 15.0027 8.20635 15.0027 8C15.0027 7.79366 14.9177 7.59642 14.7677 7.45474L10.2677 3.20474C9.96651 2.92033 9.49183 2.9339 9.20743 3.23503C8.92302 3.53617 8.93658 4.01085 9.23772 4.29526L12.3634 7.24732H1.75269C1.33847 7.24732 1.00269 7.5831 1.00269 7.99732C1.00269 8.41153 1.33847 8.74732 1.75269 8.74732H12.3691L9.23772 11.7047C8.93658 11.9892 8.92302 12.4638 9.20743 12.765C9.49183 13.0661 9.96651 13.0797 10.2677 12.7953L14.7677 8.54526Z" fill="currentColor"/>
</svg>
