<svg width="16" height="16" viewBox="0 0 16 16" fill="none" xmlns="http://www.w3.org/2000/svg">
<path d="M8.54795 14.765C8.40626 14.915 8.20903 15 8.00269 15C7.79634 15 7.59911 14.915 7.45743 14.765L3.20743 10.265C2.92302 9.96383 2.93658 9.48915 3.23772 9.20474C3.53886 8.92033 4.01354 8.93389 4.29795 9.23503L7.25 12.3607V1.75C7.25 1.33579 7.58579 1 8 1C8.41422 1 8.75 1.33579 8.75 1.75V12.3664L11.7074 9.23503C11.9918 8.93389 12.4665 8.92033 12.7677 9.20474C13.0688 9.48915 13.0824 9.96383 12.7979 10.265L8.54795 14.765Z" fill="currentColor"/>
</svg>
