<svg width="16" height="16" viewBox="0 0 16 16" fill="none" xmlns="http://www.w3.org/2000/svg">
<path d="M8.54795 1.23503C8.40626 1.08502 8.20903 1 8.00269 1C7.79634 1 7.59911 1.08502 7.45743 1.23503L3.20743 5.73503C2.92302 6.03617 2.93658 6.51085 3.23772 6.79526C3.53886 7.07967 4.01354 7.06611 4.29795 6.76497L7.25 3.63926V14.25C7.25 14.6642 7.58579 15 8 15C8.41422 15 8.75 14.6642 8.75 14.25V3.63358L11.7074 6.76497C11.9918 7.06611 12.4665 7.07967 12.7677 6.79526C13.0688 6.51085 13.0824 6.03617 12.7979 5.73503L8.54795 1.23503Z" fill="currentColor"/>
</svg>
