<svg width="16" height="16" viewBox="0 0 16 16" fill="none" xmlns="http://www.w3.org/2000/svg">
<path d="M8 1.00378C8.21262 1.00378 8.41524 1.09403 8.55747 1.25206L10.8075 3.75206C11.0846 4.05994 11.0596 4.53416 10.7517 4.81125C10.4438 5.08835 9.96962 5.06339 9.69253 4.75551L8.7508 3.70914L8.75078 6.96378C8.75086 7.36986 8.94818 7.75059 9.27993 7.98476L11.8369 9.78965C12.5668 10.3049 13.001 11.1428 13.001 12.0363V14.25C13.001 14.6642 12.6652 15 12.251 15C11.8368 15 11.501 14.6642 11.501 14.25V12.0363C11.501 11.6302 11.3036 11.2493 10.9718 11.0151L8.41491 9.21021C8.26494 9.10436 8.12747 8.98489 8.00367 8.85412C7.88153 8.98403 7.74593 9.1029 7.59804 9.20848L5.02371 11.0463C4.69506 11.2809 4.5 11.6599 4.5 12.0637V14.25C4.5 14.6642 4.16421 15 3.75 15C3.33579 15 3 14.6642 3 14.25V12.0637C3 11.1753 3.42914 10.3417 4.15216 9.82549L6.72648 7.98766C7.05506 7.75309 7.25012 7.37426 7.25019 6.97054L7.25018 3.70805L6.30747 4.75551C6.03038 5.06339 5.55616 5.08835 5.24828 4.81125C4.94039 4.53416 4.91544 4.05994 5.19253 3.75206L7.44253 1.25206C7.58476 1.09403 7.78738 1.00378 8 1.00378Z" fill="currentColor"/>
</svg>
