<svg width="16" height="16" viewBox="0 0 16 16" fill="none" xmlns="http://www.w3.org/2000/svg">
<g clip-path="url(#clip0_348_10)">
<path d="M8.53033 0.21967C8.23744 -0.0732233 7.76256 -0.0732233 7.46967 0.21967L4.96967 2.71967C4.67678 3.01256 4.67678 3.48744 4.96967 3.78033C5.26256 4.07322 5.73744 4.07322 6.03033 3.78033L7.25 2.56066V5.2713C7.25 5.68551 7.58579 6.0213 8 6.0213C8.41421 6.0213 8.75 5.68551 8.75 5.2713V2.56066L9.96967 3.78033C10.2626 4.07322 10.7374 4.07322 11.0303 3.78033C11.3232 3.48744 11.3232 3.01256 11.0303 2.71967L8.53033 0.21967Z" fill="currentColor"/>
<path d="M7.71291 15.9431C7.62445 15.9065 7.54158 15.8522 7.46967 15.7803L4.96967 13.2803C4.67678 12.9874 4.67678 12.5126 4.96967 12.2197C5.26256 11.9268 5.73744 11.9268 6.03033 12.2197L7.25 13.4393V10.75C7.25 10.3358 7.58579 10 8 10C8.41421 10 8.75 10.3358 8.75 10.75V13.4393L9.96967 12.2197C10.2626 11.9268 10.7374 11.9268 11.0303 12.2197C11.3232 12.5126 11.3232 12.9874 11.0303 13.2803L8.53078 15.7799L7.71291 15.9431Z" fill="currentColor"/>
<path d="M7.71291 15.9431L8.52541 15.7852C8.39009 15.9181 8.20462 16 8 16C7.89831 16 7.80134 15.9798 7.71291 15.9431Z" fill="currentColor"/>
<path d="M0.21967 8.53033C-0.0732233 8.23744 -0.0732233 7.76256 0.21967 7.46967L2.71967 4.96967C3.01256 4.67678 3.48744 4.67678 3.78033 4.96967C4.07322 5.26256 4.07322 5.73744 3.78033 6.03033L2.56066 7.25H5.2713C5.68551 7.25 6.0213 7.58579 6.0213 8C6.0213 8.41421 5.68551 8.75 5.2713 8.75H2.56066L3.78033 9.96967C4.07322 10.2626 4.07322 10.7374 3.78033 11.0303C3.48744 11.3232 3.01256 11.3232 2.71967 11.0303L0.21967 8.53033Z" fill="currentColor"/>
<path d="M13.2803 4.96967L15.7803 7.46967C16.0732 7.76256 16.0732 8.23744 15.7803 8.53033L13.2803 11.0303C12.9874 11.3232 12.5126 11.3232 12.2197 11.0303C11.9268 10.7374 11.9268 10.2626 12.2197 9.96967L13.4393 8.75L10.75 8.75C10.3358 8.75 10 8.41421 10 8C10 7.58578 10.3358 7.25 10.75 7.25L13.4393 7.25L12.2197 6.03033C11.9268 5.73744 11.9268 5.26256 12.2197 4.96967C12.5126 4.67678 12.9874 4.67678 13.2803 4.96967Z" fill="currentColor"/>
</g>
<defs>
<clipPath id="clip0_348_10">
<rect width="16" height="16" fill="white"/>
</clipPath>
</defs>
</svg>
