<svg width="16" height="16" viewBox="0 0 16 16" fill="none" xmlns="http://www.w3.org/2000/svg">
<path d="M0.0569091 7.71291C0.0202391 7.80134 0 7.89831 0 8C0 8.10169 0.0202391 8.19866 0.0569091 8.28709C0.0935089 8.37555 0.147763 8.45842 0.21967 8.53033L3.46967 11.7803C3.76256 12.0732 4.23744 12.0732 4.53033 11.7803C4.82322 11.4874 4.82322 11.0126 4.53033 10.7197L2.56066 8.75H13.4393L11.4697 10.7197C11.1768 11.0126 11.1768 11.4874 11.4697 11.7803C11.7626 12.0732 12.2374 12.0732 12.5303 11.7803L15.7803 8.53033C16.0732 8.23744 16.0732 7.76256 15.7803 7.46967L12.5303 4.21967C12.2374 3.92678 11.7626 3.92678 11.4697 4.21967C11.1768 4.51256 11.1768 4.98744 11.4697 5.28033L13.4393 7.25H2.56066L4.53033 5.28033C4.82322 4.98744 4.82322 4.51256 4.53033 4.21967C4.23744 3.92678 3.76256 3.92678 3.46967 4.21967L0.21967 7.46967C0.147763 7.54158 0.0935089 7.62445 0.0569091 7.71291Z" fill="currentColor"/>
</svg>
