<svg width="16" height="16" viewBox="0 0 16 16" fill="none" xmlns="http://www.w3.org/2000/svg">
<path d="M6.99997 3C6.99997 2.44772 7.44769 2 7.99997 2C8.55226 2 8.99997 2.44772 8.99997 3V6.26795L11.8301 4.63397C12.3084 4.35783 12.92 4.5217 13.1961 5C13.4723 5.47829 13.3084 6.08988 12.8301 6.36602L9.99997 8L12.8301 9.63398C13.3084 9.91012 13.4723 10.5217 13.1961 11C12.92 11.4783 12.3084 11.6422 11.8301 11.366L8.99997 9.73205V13C8.99997 13.5523 8.55226 14 7.99997 14C7.44769 14 6.99997 13.5523 6.99997 13V9.73205L4.16984 11.366C3.69155 11.6422 3.07996 11.4783 2.80382 11C2.52768 10.5217 2.69155 9.91011 3.16984 9.63397L5.99997 8L3.16985 6.36603C2.69155 6.08989 2.52768 5.4783 2.80382 5C3.07996 4.52171 3.69155 4.35783 4.16985 4.63398L6.99997 6.26795V3Z" fill="currentColor"/>
</svg>
