<svg width="16" height="16" viewBox="0 0 16 16" fill="none" xmlns="http://www.w3.org/2000/svg">
<path fill-rule="evenodd" clip-rule="evenodd" d="M5.31756 1.52918C6.74121 0.939492 8.31965 0.836035 9.80808 1.23486C11.2965 1.63368 12.6118 2.5125 13.5498 3.73501C14.4727 4.93773 14.9798 6.40698 14.9959 7.92155C14.9986 7.94733 15 7.9735 15 7.99998V9.00139C15 10.3813 13.8813 11.5 12.5014 11.5C11.67 11.5 10.9335 11.094 10.4793 10.4694C9.84567 11.1056 8.96881 11.4993 8 11.4993C6.0674 11.4993 4.50072 9.93258 4.50072 7.99998C4.50072 6.06738 6.0674 4.5007 8 4.5007C8.74925 4.5007 9.44351 4.73618 10.0128 5.13717C10.0714 4.7814 10.3804 4.51003 10.7528 4.51003C11.167 4.51003 11.5028 4.84582 11.5028 5.26003V9.00139C11.5028 9.55291 11.9499 10 12.5014 10C13.0529 10 13.5 9.55291 13.5 9.00139V8.07083C13.4976 8.04633 13.4963 8.02148 13.4963 7.99634C13.4963 6.7856 13.0968 5.6087 12.3598 4.64815C11.6227 3.68761 10.5893 2.99711 9.41985 2.68375C8.25037 2.37039 7.01017 2.45167 5.89159 2.915C4.77301 3.37833 3.83858 4.19781 3.23321 5.24634C2.62784 6.29487 2.38537 7.51385 2.5434 8.71423C2.70143 9.91461 3.25114 11.0293 4.10726 11.8854C4.96338 12.7415 6.07807 13.2913 7.27845 13.4493C8.16187 13.5656 9.08733 13.3954 9.97956 13.0505C10.3659 12.9011 10.8002 13.0932 10.9495 13.4796C11.0989 13.8659 10.9068 14.3002 10.5204 14.4495C9.46964 14.8558 8.28483 15.0947 7.08266 14.9365C5.55491 14.7353 4.13621 14.0357 3.0466 12.9461C1.95699 11.8565 1.25737 10.4378 1.05623 8.91002C0.855101 7.38227 1.1637 5.83083 1.93417 4.49634C2.70464 3.16185 3.89392 2.11888 5.31756 1.52918ZM8 6.0007C6.89583 6.0007 6.00072 6.89581 6.00072 7.99998C6.00072 9.10416 6.89583 9.99927 8 9.99927C9.10417 9.99927 9.99928 9.10416 9.99928 7.99998C9.99928 6.89581 9.10417 6.0007 8 6.0007Z" fill="currentColor"/>
</svg>
