<svg width="16" height="16" viewBox="0 0 16 16" fill="none" xmlns="http://www.w3.org/2000/svg">
<path fill-rule="evenodd" clip-rule="evenodd" d="M3 3.75C3 1.67893 4.67893 0 6.75 0C8.82107 0 10.5 1.67893 10.5 3.75V10.75C10.5 11.9926 9.49264 13 8.25 13C7.00736 13 6 11.9926 6 10.75V4.75C6 4.33579 6.33579 4 6.75 4C7.16421 4 7.5 4.33579 7.5 4.75V10.75C7.5 11.1642 7.83579 11.5 8.25 11.5C8.66421 11.5 9 11.1642 9 10.75V3.75C9 2.50736 7.99264 1.5 6.75 1.5C5.50736 1.5 4.5 2.50736 4.5 3.75V10.75C4.5 12.8211 6.17893 14.5 8.25 14.5C10.3211 14.5 12 12.8211 12 10.75V4.75C12 4.33579 12.3358 4 12.75 4C13.1642 4 13.5 4.33579 13.5 4.75V10.75C13.5 13.6495 11.1495 16 8.25 16C5.35051 16 3 13.6495 3 10.75V3.75Z" fill="currentColor"/>
</svg>
