<svg width="17" height="17" viewBox="0 0 17 17" fill="none" xmlns="http://www.w3.org/2000/svg">
<path d="M5.92945 0.272593C7.28589 -0.0908646 8.71411 -0.0908644 10.0706 0.272594C11.427 0.636052 12.6639 1.35016 13.6569 2.34315C14.6498 3.33613 15.3639 4.57301 15.7274 5.92945C15.8346 6.32955 15.5972 6.7408 15.1971 6.84801C14.797 6.95521 14.3857 6.71778 14.2785 6.31768C13.9832 5.21557 13.403 4.21061 12.5962 3.40381C11.7894 2.59701 10.7844 2.01679 9.68232 1.72148C8.58021 1.42617 7.41979 1.42617 6.31768 1.72148C5.21557 2.01679 4.21061 2.597 3.40381 3.40381C2.59701 4.21061 2.01679 5.21557 1.72148 6.31768C1.42617 7.41979 1.42617 8.58021 1.72148 9.68232C2.01679 10.7844 2.597 11.7894 3.40381 12.5962C4.21061 13.403 5.21557 13.9832 6.31768 14.2785C6.71778 14.3857 6.95521 14.797 6.84801 15.1971C6.7408 15.5972 6.32955 15.8346 5.92945 15.7274C4.573 15.3639 3.33613 14.6498 2.34315 13.6569C1.35016 12.6639 0.636051 11.427 0.272593 10.0706C-0.0908646 8.71411 -0.0908644 7.28589 0.272594 5.92945C0.636052 4.573 1.35016 3.33613 2.34315 2.34314C3.33613 1.35016 4.57301 0.636051 5.92945 0.272593Z" fill="currentColor"/>
<path d="M10.0718 15.6522L8.02207 8.64502C7.91117 8.2659 8.263 7.91394 8.64216 8.0247L15.6517 10.0723C16.1153 10.2078 16.1365 10.8567 15.6826 11.0221L13.0459 11.9826L15.8567 14.7893C16.0525 14.9849 16.0522 15.3023 15.8561 15.4975L15.498 15.8538C15.3025 16.0483 14.9865 16.0478 14.7916 15.8527L11.9832 13.0411L11.0216 15.6829C10.8564 16.1367 10.2074 16.1158 10.0718 15.6522Z" fill="currentColor"/>
<path d="M9.13627 3.62494C8.37328 3.42049 7.5699 3.42049 6.8069 3.62494C6.0439 3.82938 5.34816 4.23107 4.78961 4.78962C4.23105 5.34818 3.82937 6.04392 3.62492 6.80692C3.42048 7.56992 3.42048 8.37329 3.62492 9.13629C3.82937 9.89929 4.23105 10.595 4.78961 11.1536C5.1159 11.4799 5.48901 11.7526 5.89499 11.9638C6.26246 12.155 6.71531 12.012 6.90646 11.6445C7.09761 11.2771 6.95467 10.8242 6.58719 10.6331C6.31653 10.4923 6.06779 10.3105 5.85027 10.0929C5.4779 9.72055 5.21011 9.25673 5.07381 8.74806C4.93751 8.23939 4.93751 7.70381 5.07381 7.19515C5.21011 6.68648 5.4779 6.22265 5.85027 5.85028C6.22264 5.47791 6.68647 5.21012 7.19513 5.07383C7.7038 4.93753 8.23938 4.93753 8.74805 5.07383C9.25671 5.21012 9.72054 5.47791 10.0929 5.85028C10.3146 6.07196 10.4992 6.32606 10.6411 6.60274C10.8301 6.97132 11.2821 7.11689 11.6507 6.92789C12.0193 6.73889 12.1648 6.28688 11.9758 5.9183C11.763 5.5033 11.4861 5.12215 11.1536 4.78962C10.595 4.23107 9.89927 3.82938 9.13627 3.62494Z" fill="currentColor"/>
</svg>
