<svg width="16" height="16" viewBox="0 0 16 16" fill="none" xmlns="http://www.w3.org/2000/svg">
<path d="M8 1C5.23858 1 3 3.23858 3 6V7.67157C3 8.20201 2.78929 8.71071 2.41421 9.08579L1.87868 9.62132C1.31607 10.1839 1 10.947 1 11.7426V12C1 12.5523 1.44772 13 2 13H14C14.5523 13 15 12.5523 15 12V11.7426C15 10.947 14.6839 10.1839 14.1213 9.62132L13.5858 9.08579C13.2107 8.71071 13 8.20201 13 7.67157V6C13 3.23858 10.7614 1 8 1Z" fill="currentColor"/>
<path d="M8 16C9.10457 16 10 15.1046 10 14H6C6 15.1046 6.89543 16 8 16Z" fill="currentColor"/>
</svg>
