<svg width="16" height="16" viewBox="0 0 16 16" fill="none" xmlns="http://www.w3.org/2000/svg">
<path d="M8 1C5.23858 1 3 3.23858 3 6V7.67157C3 8.20201 2.78929 8.71071 2.41421 9.08579L1.87868 9.62132C1.31607 10.1839 1 10.947 1 11.7426V12C1 12.1582 1.03673 12.3078 1.10213 12.4408L11.2996 2.24326C10.4192 1.46932 9.26439 1 8 1Z" fill="currentColor"/>
<path d="M12.4238 2.51556C12.4042 2.54681 12.3807 2.57636 12.3536 2.60355L1.13138 13.8257C0.930538 14.1179 0.95997 14.5206 1.21967 14.7803C1.51256 15.0732 1.98744 15.0732 2.28033 14.7803L4.06066 13H14C14.5523 13 15 12.5523 15 12V11.7426C15 10.947 14.6839 10.1839 14.1213 9.62132L13.5858 9.08579C13.2107 8.71071 13 8.20201 13 7.67157V6C13 5.41888 12.9009 4.86091 12.7186 4.34209L14.7803 2.28033C15.0732 1.98744 15.0732 1.51256 14.7803 1.21967C14.4874 0.926777 14.0126 0.926777 13.7197 1.21967L12.4238 2.51556Z" fill="currentColor"/>
<path d="M8 16C9.10457 16 10 15.1046 10 14H6C6 15.1046 6.89543 16 8 16Z" fill="currentColor"/>
</svg>
