<svg width="16" height="16" viewBox="0 0 16 16" fill="none" xmlns="http://www.w3.org/2000/svg">
<path fill-rule="evenodd" clip-rule="evenodd" d="M3 2C3 1.44772 3.44772 1 4 1H9C11.2091 1 13 2.79086 13 5C13 5.98196 12.6462 6.88128 12.059 7.57741C13.2224 8.28109 14 9.55829 14 11.0171C14 13.2357 12.2015 15.0342 9.98288 15.0342H4C3.44772 15.0342 3 14.5865 3 14.0342V2ZM5 9V13.0342H9.98288C11.0969 13.0342 12 12.1311 12 11.0171C12 9.9031 11.0969 9 9.98288 9H5ZM5 7H9C10.1046 7 11 6.10457 11 5C11 3.89543 10.1046 3 9 3H5V7Z" fill="currentColor"/>
</svg>
