<svg width="16" height="16" viewBox="0 0 16 16" fill="none" xmlns="http://www.w3.org/2000/svg">
<path d="M4.75 7.25C4.33579 7.25 4 7.58579 4 8C4 8.41421 4.33579 8.75 4.75 8.75H11.25C11.6642 8.75 12 8.41421 12 8C12 7.58579 11.6642 7.25 11.25 7.25H4.75Z" fill="currentColor"/>
<path fill-rule="evenodd" clip-rule="evenodd" d="M0 5C0 3.89543 0.895431 3 2 3H14C15.1046 3 16 3.89543 16 5V11C16 12.1046 15.1046 13 14 13H2C0.895431 13 0 12.1046 0 11V5ZM2 4.5H14C14.2761 4.5 14.5 4.72386 14.5 5V11C14.5 11.2761 14.2761 11.5 14 11.5H2C1.72386 11.5 1.5 11.2761 1.5 11V5C1.5 4.72386 1.72386 4.5 2 4.5Z" fill="currentColor"/>
</svg>
