<svg width="16" height="16" viewBox="0 0 16 16" fill="none" xmlns="http://www.w3.org/2000/svg">
<path d="M4 7.75C4 7.33579 4.33579 7 4.75 7H11.25C11.6642 7 12 7.33579 12 7.75C12 8.16421 11.6642 8.5 11.25 8.5H4.75C4.33579 8.5 4 8.16421 4 7.75Z" fill="currentColor"/>
<path d="M4.75 10C4.33579 10 4 10.3358 4 10.75C4 11.1642 4.33579 11.5 4.75 11.5H9.25C9.66421 11.5 10 11.1642 10 10.75C10 10.3358 9.66421 10 9.25 10H4.75Z" fill="currentColor"/>
<path fill-rule="evenodd" clip-rule="evenodd" d="M3 1C3 0.447715 3.44772 0 4 0C4.55228 0 5 0.447715 5 1H11C11 0.447715 11.4477 0 12 0C12.5523 0 13 0.447715 13 1C14.1046 1 15 1.89543 15 3V13C15 14.1046 14.1046 15 13 15H3C1.89543 15 1 14.1046 1 13V3C1 1.89543 1.89543 1 3 1ZM2.5 5V13C2.5 13.2761 2.72386 13.5 3 13.5H13C13.2761 13.5 13.5 13.2761 13.5 13V5H2.5Z" fill="currentColor"/>
</svg>
