<svg width="16" height="16" viewBox="0 0 16 16" fill="none" xmlns="http://www.w3.org/2000/svg">
<path fill-rule="evenodd" clip-rule="evenodd" d="M12.4793 1.92502C12.5759 1.52224 12.3278 1.11736 11.925 1.0207C11.5222 0.924032 11.1173 1.17218 11.0207 1.57496L10.1987 5H6.74127L7.47926 1.92503C7.57593 1.52225 7.32778 1.11738 6.925 1.02071C6.52222 0.924043 6.11735 1.17219 6.02068 1.57497L5.19867 5H2.99997C2.58576 5 2.24997 5.33579 2.24997 5.75C2.24997 6.16421 2.58576 6.5 2.99997 6.5H4.83867L4.11277 9.5246H1.99988C1.58566 9.5246 1.24988 9.86038 1.24988 10.2746C1.24988 10.6888 1.58566 11.0246 1.99988 11.0246H3.75277L3.02068 14.075C2.92401 14.4777 3.17217 14.8826 3.57494 14.9793C3.97772 15.076 4.3826 14.8278 4.47926 14.425L5.29537 11.0246H8.75277L8.02068 14.075C7.92401 14.4777 8.17216 14.8826 8.57494 14.9793C8.97772 15.0759 9.3826 14.8278 9.47926 14.425L10.2954 11.0246H12.2499C12.6641 11.0246 12.9999 10.6888 12.9999 10.2746C12.9999 9.86038 12.6641 9.5246 12.2499 9.5246H10.6554L11.3813 6.5H13.25C13.6642 6.5 14 6.16421 14 5.75C14 5.33579 13.6642 5 13.25 5H11.7413L12.4793 1.92502ZM9.11277 9.5246L9.83867 6.5H6.38127L5.65537 9.5246H9.11277Z" fill="currentColor"/>
</svg>
