<svg width="16" height="16" viewBox="0 0 16 16" fill="none" xmlns="http://www.w3.org/2000/svg">
<path d="M5 2.5C5 1.67157 5.67157 1 6.5 1H12.5C13.3284 1 14 1.67157 14 2.5C14 3.32843 13.3284 4 12.5 4H6.5C5.67157 4 5 3.32843 5 2.5Z" fill="currentColor"/>
<path d="M1 7.5C1 6.67157 1.67157 6 2.5 6H8.5C9.32843 6 10 6.67157 10 7.5C10 8.32843 9.32843 9 8.5 9H2.5C1.67157 9 1 8.32843 1 7.5Z" fill="currentColor"/>
<path d="M7.5 11C6.67157 11 6 11.6716 6 12.5C6 13.3284 6.67157 14 7.5 14H13.5C14.3284 14 15 13.3284 15 12.5C15 11.6716 14.3284 11 13.5 11H7.5Z" fill="currentColor"/>
</svg>
