<svg width="16" height="16" viewBox="0 0 16 16" fill="none" xmlns="http://www.w3.org/2000/svg">
<path d="M14 6C14.5523 6 15 6.44772 15 7V8C15 8.55228 14.5523 9 14 9H5C4.44771 9 4 8.55228 4 8V7C4 6.44772 4.44772 6 5 6H14Z" fill="currentColor"/>
<path d="M12 11C12 10.4477 11.5523 10 11 10H5C4.44771 10 4 10.4477 4 11V12C4 12.5523 4.44771 13 5 13H11C11.5523 13 12 12.5523 12 12V11Z" fill="currentColor"/>
<path d="M2.5 1.75C2.5 1.33579 2.16421 1 1.75 1C1.33579 1 1 1.33579 1 1.75V14.25C1 14.6642 1.33579 15 1.75 15C2.16421 15 2.5 14.6642 2.5 14.25V1.75Z" fill="currentColor"/>
<path d="M10 3C10 2.44772 9.55228 2 9 2H5C4.44772 2 4 2.44772 4 3V4C4 4.55228 4.44772 5 5 5H9C9.55228 5 10 4.55228 10 4V3Z" fill="currentColor"/>
</svg>
