<svg width="16" height="16" viewBox="0 0 16 16" fill="none" xmlns="http://www.w3.org/2000/svg">
<path d="M15.4291 4.62987C15.806 5.53982 16 6.51509 16 7.5H8.5V0C9.48492 0 10.4602 0.193993 11.3701 0.570903C12.2801 0.947814 13.1069 1.50026 13.8033 2.1967C14.4997 2.89314 15.0522 3.71993 15.4291 4.62987Z" fill="currentColor"/>
<path d="M12.8203 12.889C13.5895 11.7378 14 10.3845 14 9H7V2C5.61553 2 4.26216 2.41054 3.11101 3.17971C1.95987 3.94888 1.06266 5.04213 0.532846 6.32122C0.00303298 7.6003 -0.13559 9.00776 0.134506 10.3656C0.404603 11.7235 1.07129 12.9708 2.05026 13.9497C3.02922 14.9287 4.2765 15.5954 5.63437 15.8655C6.99224 16.1356 8.3997 15.997 9.67879 15.4672C10.9579 14.9373 12.0511 14.0401 12.8203 12.889Z" fill="currentColor"/>
</svg>
