<svg width="16" height="16" viewBox="0 0 16 16" fill="none" xmlns="http://www.w3.org/2000/svg">
<path d="M6 2C6 1.44771 6.44772 1 7 1H8C8.55228 1 9 1.44772 9 2V11C9 11.5523 8.55228 12 8 12H7C6.44772 12 6 11.5523 6 11V2Z" fill="currentColor"/>
<path d="M11 4C10.4477 4 10 4.44772 10 5V11C10 11.5523 10.4477 12 11 12H12C12.5523 12 13 11.5523 13 11V5C13 4.44772 12.5523 4 12 4H11Z" fill="currentColor"/>
<path d="M1.75 13.5C1.33579 13.5 1 13.8358 1 14.25C1 14.6642 1.33579 15 1.75 15H14.25C14.6642 15 15 14.6642 15 14.25C15 13.8358 14.6642 13.5 14.25 13.5H1.75Z" fill="currentColor"/>
<path d="M3 6C2.44772 6 2 6.44772 2 7V11C2 11.5523 2.44772 12 3 12H4C4.55228 12 5 11.5523 5 11V7C5 6.44772 4.55228 6 4 6H3Z" fill="currentColor"/>
</svg>
