<svg width="16" height="16" viewBox="0 0 16 16" fill="none" xmlns="http://www.w3.org/2000/svg">
<path d="M8.90989 11.7129L7.58643 10.0261L8.59681 8.88388L9.53447 10.079L14.6843 4.25698C14.9587 3.94672 15.4327 3.91768 15.743 4.19212C16.0532 4.46655 16.0822 4.94054 15.8078 5.25079L10.0617 11.7469C9.91425 11.9136 9.70034 12.0062 9.47786 11.9997C9.25537 11.9931 9.04729 11.8881 8.90989 11.7129Z" fill="currentColor"/>
<path d="M9.80786 5.25081C10.0823 4.94056 10.0533 4.46657 9.743 4.19214C9.43275 3.9177 8.95876 3.94674 8.68433 4.257L3.53452 10.079L1.34397 7.28704C1.08828 6.96116 0.61683 6.90426 0.290949 7.15994C-0.0349312 7.41563 -0.0918356 7.88708 0.163849 8.21296L2.90994 11.713C3.04734 11.8881 3.25542 11.9931 3.47791 11.9997C3.70039 12.0062 3.9143 11.9136 4.06177 11.7469L9.80786 5.25081Z" fill="currentColor"/>
</svg>
