<svg width="16" height="16" viewBox="0 0 16 16" fill="none" xmlns="http://www.w3.org/2000/svg">
<path d="M3 2.5H9C9.27614 2.5 9.5 2.72386 9.5 3V3.5H11V3C11 1.89543 10.1046 1 9 1H3C1.89543 1 1 1.89543 1 3V9C1 10.1046 1.89543 11 3 11H3.5V9.5H3C2.72386 9.5 2.5 9.27614 2.5 9V3C2.5 2.72386 2.72386 2.5 3 2.5Z" fill="currentColor"/>
<path d="M12.636 8.39751C12.8555 8.04626 12.7487 7.58354 12.3975 7.36401C12.0462 7.14448 11.5835 7.25126 11.364 7.60251L9.4437 10.675L8.59998 9.55001C8.35145 9.21864 7.88135 9.15148 7.54998 9.40001C7.21861 9.64854 7.15145 10.1186 7.39998 10.45L8.89998 12.45C9.04836 12.6479 9.28473 12.7598 9.53181 12.7493C9.77889 12.7388 10.0049 12.6072 10.136 12.3975L12.636 8.39751Z" fill="currentColor"/>
<path fill-rule="evenodd" clip-rule="evenodd" d="M7 5C5.89543 5 5 5.89543 5 7V13C5 14.1046 5.89543 15 7 15H13C14.1046 15 15 14.1046 15 13V7C15 5.89543 14.1046 5 13 5H7ZM13 6.5H7C6.72386 6.5 6.5 6.72386 6.5 7V13C6.5 13.2761 6.72386 13.5 7 13.5H13C13.2761 13.5 13.5 13.2761 13.5 13V7C13.5 6.72386 13.2761 6.5 13 6.5Z" fill="currentColor"/>
</svg>
