<svg width="16" height="16" viewBox="0 0 16 16" fill="none" xmlns="http://www.w3.org/2000/svg">
<path fill-rule="evenodd" clip-rule="evenodd" d="M5.1715 0.0885C5.0535 -0.0295 4.8635 -0.0295 4.7455 0.0885L2.3185 2.4135L1.1725 1.4205C1.0555 1.3025 0.8645 1.3025 0.7465 1.4205L0.0885 2.0795C-0.0295 2.1965 -0.0295 2.3875 0.0885 2.5045L1.9655 4.2295C2.1605 4.4245 2.4775 4.4245 2.6725 4.2295L5.8305 1.1725C5.9475 1.0555 5.9475 0.8655 5.8305 0.7475L5.1715 0.0885ZM15.7003 1.2379H8.3003C8.1343 1.2379 8.0003 1.3729 8.0003 1.5379V2.8389C8.0003 3.0039 8.1343 3.1379 8.3003 3.1379H15.7003C15.8663 3.1379 16.0003 3.0039 16.0003 2.8389V1.5379C16.0003 1.3729 15.8663 1.2379 15.7003 1.2379ZM5.1715 5.9005C5.0535 5.7825 4.8635 5.7825 4.7455 5.9005L2.3185 8.2255L1.1725 7.2325C1.0555 7.1145 0.8645 7.1145 0.7465 7.2325L0.0885 7.8915C-0.0295 8.0085 -0.0295 8.1995 0.0885 8.3175L1.9655 10.0415C2.1605 10.2365 2.4775 10.2365 2.6725 10.0415L5.8305 6.9855C5.9475 6.8675 5.9475 6.6775 5.8305 6.5595L5.1715 5.9005ZM15.7003 7.0499H8.3003C8.1343 7.0499 8.0003 7.1839 8.0003 7.3499V8.6509C8.0003 8.8159 8.1343 8.9499 8.3003 8.9499H15.7003C15.8663 8.9499 16.0003 8.8159 16.0003 8.6509V7.3499C16.0003 7.1839 15.8663 7.0499 15.7003 7.0499ZM5.1715 11.713C5.0535 11.595 4.8635 11.595 4.7455 11.713L2.3185 14.037L1.1725 13.045C1.0555 12.927 0.8645 12.927 0.7465 13.045L0.0885 13.704C-0.0295 13.821 -0.0295 14.011 0.0885 14.129L1.9655 15.854C2.1605 16.049 2.4775 16.049 2.6725 15.854L5.8305 12.797C5.9475 12.68 5.9475 12.489 5.8305 12.372L5.1715 11.713ZM15.7003 12.8624H8.3003C8.1343 12.8624 8.0003 12.9964 8.0003 13.1624V14.4624C8.0003 14.6284 8.1343 14.7624 8.3003 14.7624H15.7003C15.8663 14.7624 16.0003 14.6284 16.0003 14.4624V13.1624C16.0003 12.9964 15.8663 12.8624 15.7003 12.8624Z" fill="currentColor"/>
</svg>
