<svg width="16" height="16" viewBox="0 0 16 16" fill="none" xmlns="http://www.w3.org/2000/svg">
<path d="M11.8433 6.2127C12.0967 5.88502 12.0365 5.41398 11.7088 5.1606C11.3811 4.90722 10.9101 4.96744 10.6567 5.29512L6.95636 10.0804L5.30746 8.24827C5.03036 7.94039 4.55614 7.91544 4.24826 8.19253C3.94038 8.46963 3.91542 8.94384 4.19252 9.25173L6.44253 11.7517C6.5913 11.917 6.80574 12.0078 7.02796 11.9995C7.25019 11.9912 7.45727 11.8847 7.59331 11.7088L11.8433 6.2127Z" fill="currentColor"/>
<path fill-rule="evenodd" clip-rule="evenodd" d="M16 8C16 12.4183 12.4183 16 8 16C3.58172 16 0 12.4183 0 8C0 3.58172 3.58172 0 8 0C12.4183 0 16 3.58172 16 8ZM14.5 8C14.5 11.5899 11.5899 14.5 8 14.5C4.41015 14.5 1.5 11.5899 1.5 8C1.5 4.41015 4.41015 1.5 8 1.5C11.5899 1.5 14.5 4.41015 14.5 8Z" fill="currentColor"/>
</svg>
