<svg width="16" height="16" viewBox="0 0 16 16" fill="none" xmlns="http://www.w3.org/2000/svg">
<path fill-rule="evenodd" clip-rule="evenodd" d="M8 16C12.4183 16 16 12.4183 16 8C16 3.58172 12.4183 0 8 0C3.58172 0 0 3.58172 0 8C0 12.4183 3.58172 16 8 16ZM11.8433 6.2127C12.0967 5.88502 12.0365 5.41398 11.7088 5.1606C11.3811 4.90722 10.9101 4.96744 10.6567 5.29512L6.95638 10.0804L5.30747 8.24827C5.03037 7.94039 4.55616 7.91544 4.24827 8.19253C3.94039 8.46963 3.91544 8.94384 4.19253 9.25173L6.44254 11.7517C6.59131 11.917 6.80575 12.0078 7.02798 11.9995C7.2502 11.9912 7.45729 11.8847 7.59332 11.7088L11.8433 6.2127Z" fill="currentColor"/>
</svg>
