<svg width="16" height="16" viewBox="0 0 16 16" fill="none" xmlns="http://www.w3.org/2000/svg">
<path d="M4.26497 12.7953C3.96383 13.0797 3.48915 13.0661 3.20474 12.765C2.92033 12.4638 2.9339 11.9892 3.23503 11.7047L7.1577 8L3.23503 4.29526C2.9339 4.01085 2.92033 3.53617 3.20474 3.23503C3.48915 2.9339 3.96383 2.92033 4.26497 3.20474L8.76497 7.45474C8.91499 7.59643 9 7.79366 9 8C9 8.20635 8.91499 8.40358 8.76497 8.54526L4.26497 12.7953Z" fill="currentColor"/>
<path d="M9.26497 12.7953C8.96383 13.0797 8.48915 13.0661 8.20474 12.765C7.92033 12.4638 7.9339 11.9892 8.23503 11.7047L12.1577 8L8.23503 4.29526C7.9339 4.01085 7.92033 3.53617 8.20474 3.23503C8.48915 2.9339 8.96383 2.92033 9.26497 3.20474L13.765 7.45474C13.915 7.59643 14 7.79366 14 8C14 8.20635 13.915 8.40358 13.765 8.54526L9.26497 12.7953Z" fill="currentColor"/>
</svg>
