<svg width="16" height="16" viewBox="0 0 16 16" fill="none" xmlns="http://www.w3.org/2000/svg">
<path fill-rule="evenodd" clip-rule="evenodd" d="M8 16C12.4183 16 16 12.4183 16 8C16 3.58172 12.4183 0 8 0C3.58172 0 0 3.58172 0 8C0 12.4183 3.58172 16 8 16ZM11.7996 8.73966C12.0814 9.04319 12.0639 9.51774 11.7603 9.79959C11.4568 10.0814 10.9823 10.0639 10.7004 9.76034L8 6.85221L5.29959 9.76034C5.01774 10.0639 4.54319 10.0814 4.23966 9.79959C3.93613 9.51774 3.91855 9.04319 4.2004 8.73966L7.45041 5.23966C7.59231 5.08684 7.79145 5 8 5C8.20855 5 8.40769 5.08684 8.54959 5.23966L11.7996 8.73966Z" fill="currentColor"/>
</svg>
