<svg width="16" height="16" viewBox="0 0 16 16" fill="none" xmlns="http://www.w3.org/2000/svg">
<path d="M12.7953 4.26497C13.0797 3.96383 13.0661 3.48915 12.765 3.20474C12.4638 2.92033 11.9892 2.9339 11.7047 3.23503L8 7.1577L4.29526 3.23503C4.01085 2.9339 3.53617 2.92033 3.23503 3.20474C2.9339 3.48915 2.92033 3.96383 3.20474 4.26497L7.45474 8.76497C7.59643 8.91499 7.79366 9 8 9C8.20635 9 8.40358 8.91499 8.54526 8.76497L12.7953 4.26497Z" fill="currentColor"/>
<path d="M12.7953 9.26497C13.0797 8.96383 13.0661 8.48915 12.765 8.20474C12.4638 7.92033 11.9892 7.9339 11.7047 8.23503L8 12.1577L4.29526 8.23503C4.01085 7.9339 3.53617 7.92033 3.23503 8.20474C2.9339 8.48915 2.92033 8.96383 3.20474 9.26497L7.45474 13.765C7.59643 13.915 7.79366 14 8 14C8.20635 14 8.40358 13.915 8.54526 13.765L12.7953 9.26497Z" fill="currentColor"/>
</svg>
