<svg width="16" height="16" viewBox="0 0 16 16" fill="none" xmlns="http://www.w3.org/2000/svg">
<path d="M7.26034 4.20041C6.95681 3.91855 6.48226 3.93613 6.20041 4.23966C5.91855 4.54319 5.93613 5.01774 6.23966 5.29959L9.14779 8L6.23966 10.7004C5.93613 10.9823 5.91855 11.4568 6.20041 11.7603C6.48226 12.0639 6.95681 12.0814 7.26034 11.7996L10.7603 8.54959C10.9132 8.40769 11 8.20855 11 8C11 7.79145 10.9132 7.59231 10.7603 7.45041L7.26034 4.20041Z" fill="currentColor"/>
<path fill-rule="evenodd" clip-rule="evenodd" d="M8 0C3.58172 0 0 3.58172 0 8C0 12.4183 3.58172 16 8 16C12.4183 16 16 12.4183 16 8C16 3.58172 12.4183 0 8 0ZM8 1.5C4.41015 1.5 1.5 4.41015 1.5 8C1.5 11.5899 4.41015 14.5 8 14.5C11.5899 14.5 14.5 11.5899 14.5 8C14.5 4.41015 11.5899 1.5 8 1.5Z" fill="currentColor"/>
</svg>
