<svg width="16" height="16" viewBox="0 0 16 16" fill="none" xmlns="http://www.w3.org/2000/svg">
<path fill-rule="evenodd" clip-rule="evenodd" d="M16 8C16 12.4183 12.4183 16 8 16C3.58172 16 0 12.4183 0 8C0 3.58172 3.58172 0 8 0C12.4183 0 16 3.58172 16 8ZM8.73966 11.7996C9.04319 12.0814 9.51774 12.0639 9.79959 11.7603C10.0814 11.4568 10.0639 10.9823 9.76034 10.7004L6.85221 8L9.76034 5.29959C10.0639 5.01774 10.0814 4.54319 9.79959 4.23966C9.51774 3.93613 9.04319 3.91855 8.73966 4.2004L5.23966 7.45041C5.08684 7.59231 5 7.79145 5 8C5 8.20855 5.08684 8.40769 5.23966 8.54959L8.73966 11.7996Z" fill="currentColor"/>
</svg>
