<svg width="16" height="16" viewBox="0 0 16 16" fill="none" xmlns="http://www.w3.org/2000/svg">
<path fill-rule="evenodd" clip-rule="evenodd" d="M0 8C0 12.4183 3.58172 16 8 16C12.4183 16 16 12.4183 16 8C16 3.58172 12.4183 0 8 0C3.58172 0 0 3.58172 0 8ZM7.26034 11.7996C6.95681 12.0814 6.48226 12.0639 6.20041 11.7603C5.91855 11.4568 5.93613 10.9823 6.23966 10.7004L9.14779 8L6.23966 5.29959C5.93613 5.01774 5.91855 4.54319 6.20041 4.23966C6.48226 3.93613 6.95681 3.91855 7.26034 4.2004L10.7603 7.45041C10.9132 7.59231 11 7.79145 11 8C11 8.20855 10.9132 8.40769 10.7603 8.54959L7.26034 11.7996Z" fill="currentColor"/>
</svg>
