<svg width="16" height="16" viewBox="0 0 16 16" fill="none" xmlns="http://www.w3.org/2000/svg">
<path d="M4.26497 3.20474C3.96383 2.92033 3.48915 2.9339 3.20474 3.23503C2.92033 3.53617 2.9339 4.01085 3.23503 4.29526L7.1577 8L3.23503 11.7047C2.9339 11.9892 2.92033 12.4638 3.20474 12.765C3.48915 13.0661 3.96383 13.0797 4.26497 12.7953L8.76497 8.54526C8.91499 8.40358 9 8.20635 9 8C9 7.79366 8.91499 7.59642 8.76497 7.45474L4.26497 3.20474Z" fill="currentColor"/>
<path d="M12 3.75C12 3.33579 11.6642 3 11.25 3C10.8358 3 10.5 3.33579 10.5 3.75V12.25C10.5 12.6642 10.8358 13 11.25 13C11.6642 13 12 12.6642 12 12.25V3.75Z" fill="currentColor"/>
</svg>
