<svg width="16" height="16" viewBox="0 0 16 16" fill="none" xmlns="http://www.w3.org/2000/svg">
<path d="M11.7996 8.73966C12.0814 9.0432 12.0639 9.51774 11.7603 9.79959C11.4568 10.0814 10.9823 10.0639 10.7004 9.76034L8 6.85221L5.29959 9.76034C5.01774 10.0639 4.54319 10.0814 4.23966 9.79959C3.93613 9.51774 3.91855 9.0432 4.2004 8.73966L7.45041 5.23966C7.59231 5.08684 7.79145 5 8 5C8.20855 5 8.40769 5.08684 8.54959 5.23966L11.7996 8.73966Z" fill="currentColor"/>
<path fill-rule="evenodd" clip-rule="evenodd" d="M16 8C16 12.4183 12.4183 16 8 16C3.58172 16 0 12.4183 0 8C0 3.58172 3.58172 0 8 0C12.4183 0 16 3.58172 16 8ZM14.5 8C14.5 11.5899 11.5899 14.5 8 14.5C4.41015 14.5 1.5 11.5899 1.5 8C1.5 4.41015 4.41015 1.5 8 1.5C11.5899 1.5 14.5 4.41015 14.5 8Z" fill="currentColor"/>
</svg>
