<svg width="16" height="16" viewBox="0 0 16 16" fill="none" xmlns="http://www.w3.org/2000/svg">
<path d="M12.7953 11.735C13.0797 12.0362 13.0661 12.5109 12.765 12.7953C12.4638 13.0797 11.9892 13.0661 11.7047 12.765L8 8.8423L4.29526 12.765C4.01085 13.0661 3.53617 13.0797 3.23503 12.7953C2.9339 12.5109 2.92033 12.0362 3.20474 11.735L7.45474 7.23503C7.59643 7.08502 7.79366 7 8 7C8.20635 7 8.40358 7.08502 8.54526 7.23503L12.7953 11.735Z" fill="currentColor"/>
<path d="M12.7953 6.73503C13.0797 7.03617 13.0661 7.51085 12.765 7.79526C12.4638 8.07967 11.9892 8.06611 11.7047 7.76497L8 3.8423L4.29526 7.76497C4.01085 8.06611 3.53617 8.07967 3.23503 7.79526C2.9339 7.51085 2.92033 7.03617 3.20474 6.73503L7.45474 2.23503C7.59643 2.08502 7.79366 2 8 2C8.20635 2 8.40358 2.08502 8.54526 2.23503L12.7953 6.73503Z" fill="currentColor"/>
</svg>
