<svg width="16" height="16" viewBox="0 0 16 16" fill="none" xmlns="http://www.w3.org/2000/svg">
<path d="M11.735 12.7953C12.0362 13.0797 12.5109 13.0661 12.7953 12.765C13.0797 12.4638 13.0661 11.9892 12.765 11.7047L8.8423 8L12.765 4.29526C13.0661 4.01085 13.0797 3.53617 12.7953 3.23503C12.5109 2.9339 12.0362 2.92033 11.735 3.20474L7.23503 7.45474C7.08502 7.59643 7 7.79366 7 8C7 8.20635 7.08502 8.40358 7.23503 8.54526L11.735 12.7953Z" fill="currentColor"/>
<path d="M6.73503 12.7953C7.03617 13.0797 7.51085 13.0661 7.79526 12.765C8.07967 12.4638 8.06611 11.9892 7.76497 11.7047L3.8423 8L7.76497 4.29526C8.06611 4.01085 8.07967 3.53617 7.79526 3.23503C7.51085 2.9339 7.03617 2.92033 6.73503 3.20474L2.23503 7.45474C2.08502 7.59643 2 7.79366 2 8C2 8.20635 2.08502 8.40358 2.23503 8.54526L6.73503 12.7953Z" fill="currentColor"/>
</svg>
