<svg width="16" height="16" viewBox="0 0 16 16" fill="none" xmlns="http://www.w3.org/2000/svg">
<path d="M11.735 3.20474C12.0362 2.92033 12.5109 2.9339 12.7953 3.23503C13.0797 3.53617 13.0661 4.01085 12.765 4.29526L8.8423 8L12.765 11.7047C13.0661 11.9892 13.0797 12.4638 12.7953 12.765C12.5109 13.0661 12.0362 13.0797 11.735 12.7953L7.23503 8.54526C7.08502 8.40358 7 8.20635 7 8C7 7.79366 7.08502 7.59642 7.23503 7.45474L11.735 3.20474Z" fill="currentColor"/>
<path d="M4 3.75C4 3.33579 4.33579 3 4.75 3C5.16421 3 5.5 3.33579 5.5 3.75V12.25C5.5 12.6642 5.16421 13 4.75 13C4.33579 13 4 12.6642 4 12.25V3.75Z" fill="currentColor"/>
</svg>
