<svg width="16" height="16" viewBox="0 0 16 16" fill="none" xmlns="http://www.w3.org/2000/svg">
<path fill-rule="evenodd" clip-rule="evenodd" d="M8 0C12.4183 0 16 3.58172 16 8C16 12.4183 12.4183 16 8 16C3.58172 16 0 12.4183 0 8C0 3.58172 3.58172 0 8 0ZM11.7996 7.26034C12.0814 6.95681 12.0639 6.48226 11.7603 6.20041C11.4568 5.91855 10.9823 5.93613 10.7004 6.23966L8 9.14779L5.29959 6.23966C5.01774 5.93613 4.54319 5.91855 4.23966 6.20041C3.93613 6.48226 3.91855 6.95681 4.2004 7.26034L7.45041 10.7603C7.59231 10.9132 7.79145 11 8 11C8.20855 11 8.40769 10.9132 8.54959 10.7603L11.7996 7.26034Z" fill="currentColor"/>
</svg>
