<svg width="16" height="16" viewBox="0 0 16 16" fill="none" xmlns="http://www.w3.org/2000/svg">
<path d="M12.7953 11.735C13.0797 12.0362 13.0661 12.5109 12.765 12.7953C12.4638 13.0797 11.9892 13.0661 11.7047 12.765L8 8.8423L4.29526 12.765C4.01085 13.0661 3.53617 13.0797 3.23503 12.7953C2.9339 12.5109 2.92033 12.0362 3.20474 11.735L7.45474 7.23503C7.59643 7.08502 7.79366 7 8 7C8.20635 7 8.40358 7.08502 8.54526 7.23503L12.7953 11.735Z" fill="currentColor"/>
<path d="M12.25 4C12.6642 4 13 4.33579 13 4.75C13 5.16421 12.6642 5.5 12.25 5.5H3.75C3.33579 5.5 3 5.16421 3 4.75C3 4.33579 3.33579 4 3.75 4H12.25Z" fill="currentColor"/>
</svg>
