<svg width="16" height="16" viewBox="0 0 16 16" fill="none" xmlns="http://www.w3.org/2000/svg">
<path d="M12.7953 4.26497C13.0797 3.96383 13.0661 3.48915 12.765 3.20474C12.4638 2.92033 11.9892 2.9339 11.7047 3.23503L8 7.1577L4.29526 3.23503C4.01085 2.9339 3.53617 2.92033 3.23503 3.20474C2.9339 3.48915 2.92033 3.96383 3.20474 4.26497L7.45474 8.76497C7.59643 8.91499 7.79366 9 8 9C8.20635 9 8.40358 8.91499 8.54526 8.76497L12.7953 4.26497Z" fill="currentColor"/>
<path d="M12.25 12C12.6642 12 13 11.6642 13 11.25C13 10.8358 12.6642 10.5 12.25 10.5H3.75C3.33579 10.5 3 10.8358 3 11.25C3 11.6642 3.33579 12 3.75 12H12.25Z" fill="currentColor"/>
</svg>
