<svg width="16" height="16" viewBox="0 0 16 16" fill="none" xmlns="http://www.w3.org/2000/svg">
<path d="M8.73966 11.7996C9.0432 12.0814 9.51774 12.0639 9.79959 11.7603C10.0814 11.4568 10.0639 10.9823 9.76034 10.7004L6.85221 8L9.76034 5.29959C10.0639 5.01774 10.0814 4.54319 9.79959 4.23966C9.51774 3.93613 9.0432 3.91855 8.73966 4.2004L5.23966 7.45041C5.08684 7.59231 5 7.79145 5 8C5 8.20855 5.08684 8.40769 5.23966 8.54959L8.73966 11.7996Z" fill="currentColor"/>
<path fill-rule="evenodd" clip-rule="evenodd" d="M8 16C12.4183 16 16 12.4183 16 8C16 3.58172 12.4183 0 8 0C3.58172 0 0 3.58172 0 8C0 12.4183 3.58172 16 8 16ZM8 14.5C11.5899 14.5 14.5 11.5899 14.5 8C14.5 4.41015 11.5899 1.5 8 1.5C4.41015 1.5 1.5 4.41015 1.5 8C1.5 11.5899 4.41015 14.5 8 14.5Z" fill="currentColor"/>
</svg>
