<svg width="16" height="16" viewBox="0 0 16 16" fill="none" xmlns="http://www.w3.org/2000/svg">
<path d="M9.00118 9.91496C9.0004 9.94321 9 9.97156 9 10C9 11.6569 10.3431 13 12 13C13.6569 13 15 11.6569 15 10C15 8.34315 13.6569 7 12 7C11.4541 7 10.9422 7.14583 10.5012 7.40066V6.75C10.5012 5.50736 11.5085 4.5 12.7512 4.5H13.25C13.6642 4.5 14 4.16421 14 3.75C14 3.33579 13.6642 3 13.25 3H12.7512C10.6801 3 9.00118 4.67893 9.00118 6.75V9.91496Z" fill="currentColor"/>
<path d="M1.00118 9.91494C1.0004 9.9432 1 9.97155 1 10C1 11.6569 2.34315 13 4 13C5.65685 13 7 11.6569 7 10C7 8.34315 5.65685 7 4 7C3.45406 7 2.94217 7.14583 2.50118 7.40066V6.75C2.50118 5.50736 3.50854 4.5 4.75118 4.5H5.25C5.66421 4.5 6 4.16421 6 3.75C6 3.33579 5.66421 3 5.25 3H4.75118C2.68011 3 1.00118 4.67893 1.00118 6.75V9.91494Z" fill="currentColor"/>
</svg>
