<svg width="16" height="16" viewBox="0 0 16 16" fill="none" xmlns="http://www.w3.org/2000/svg">
<path fill-rule="evenodd" clip-rule="evenodd" d="M5.60685 0.999023C5.91252 0.999037 6.18762 1.18443 6.30229 1.46768L8.35966 6.54999L6.40896 8.5H3.68265L2.45 11.5442C2.29454 11.9282 1.85714 12.1134 1.47306 11.958C1.08898 11.8026 0.903648 11.3654 1.05911 10.9814L4.91137 1.46762C5.02606 1.18438 5.30118 0.99901 5.60685 0.999023ZM5.60673 3.74816L6.92312 7H4.29002L5.60673 3.74816Z" fill="currentColor"/>
<path d="M5.29436 13.1565C4.9037 12.7659 4.9037 12.1328 5.29436 11.7423L7.03956 9.99765L11.0047 13.9615L9.25954 15.7061C8.86889 16.0966 8.23551 16.0966 7.84485 15.7061L5.29436 13.1565Z" fill="currentColor"/>
<path d="M11.7121 13.2544L7.74691 9.29054L11.7459 5.29289C12.1366 4.90237 12.77 4.90237 13.1606 5.29289L15.7111 7.84252C16.1018 8.23304 16.1018 8.86621 15.7111 9.25673L11.7121 13.2544Z" fill="currentColor"/>
</svg>
