<svg width="16" height="16" viewBox="0 0 16 16" fill="none" xmlns="http://www.w3.org/2000/svg">
<path d="M9 1C9 0.817856 8.9513 0.647087 8.86622 0.5C8.69331 0.201099 8.37014 0 8 0C7.62986 0 7.30669 0.201099 7.13378 0.5C7.0487 0.647087 7 0.817856 7 1H5.5C5.22386 1 5 1.22386 5 1.5V3.5C5 3.77614 5.22386 4 5.5 4H10.5C10.7761 4 11 3.77614 11 3.5V1.5C11 1.22386 10.7761 1 10.5 1H9Z" fill="currentColor"/>
<path d="M2 4C2 2.89543 2.89543 2 4 2V4C4 4.55228 4.44772 5 5 5H11C11.5523 5 12 4.55228 12 4V2C13.1046 2 14 2.89543 14 4V14C14 15.1046 13.1046 16 12 16H4C2.89543 16 2 15.1046 2 14V4Z" fill="currentColor"/>
</svg>
