<svg width="16" height="16" viewBox="0 0 16 16" fill="none" xmlns="http://www.w3.org/2000/svg">
<path d="M9 1C9 0.817856 8.9513 0.647087 8.86622 0.5C8.69331 0.201099 8.37014 0 8 0C7.62986 0 7.30669 0.201099 7.13378 0.5C7.0487 0.647087 7 0.817856 7 1H5.5C5.22386 1 5 1.22386 5 1.5V3.5C5 3.77614 5.22386 4 5.5 4H10.5C10.7761 4 11 3.77614 11 3.5V1.5C11 1.22386 10.7761 1 10.5 1H9Z" fill="currentColor"/>
<path fill-rule="evenodd" clip-rule="evenodd" d="M4 2C2.89543 2 2 2.89543 2 4V14C2 15.1046 2.89543 16 4 16H12C13.1046 16 14 15.1046 14 14V4C14 2.89543 13.1046 2 12 2V4C12 4.55228 11.5523 5 11 5H5C4.44772 5 4 4.55228 4 4V2ZM10.6253 7.10395C10.9825 7.31371 11.102 7.7733 10.8922 8.13047L8.24977 12.63C8.1223 12.847 7.89444 12.9857 7.64308 12.9991C7.39172 13.0126 7.15039 12.899 7.0005 12.6968L5.14746 10.1966C4.90081 9.86383 4.97064 9.39412 5.30341 9.14748C5.63619 8.90083 6.1059 8.97066 6.35254 9.30343L7.53048 10.8927L9.59877 7.37087C9.80853 7.01369 10.2681 6.89419 10.6253 7.10395Z" fill="currentColor"/>
</svg>
