<svg width="16" height="16" viewBox="0 0 16 16" fill="none" xmlns="http://www.w3.org/2000/svg">
<path d="M8.5 3.74606C8.5 3.33185 8.16421 2.99606 7.75 2.99606C7.33579 2.99606 7 3.33185 7 3.74606V8.75C7 9.16421 7.33579 9.5 7.75 9.5H11.2465C11.6607 9.5 11.9965 9.16421 11.9965 8.75C11.9965 8.33579 11.6607 8 11.2465 8H8.5V3.74606Z" fill="currentColor"/>
<path fill-rule="evenodd" clip-rule="evenodd" d="M16 8C16 12.4183 12.4183 16 8 16C3.58172 16 0 12.4183 0 8C0 3.58172 3.58172 0 8 0C12.4183 0 16 3.58172 16 8ZM14.5 8C14.5 11.5899 11.5899 14.5 8 14.5C4.41015 14.5 1.5 11.5899 1.5 8C1.5 4.41015 4.41015 1.5 8 1.5C11.5899 1.5 14.5 4.41015 14.5 8Z" fill="currentColor"/>
</svg>
