<svg width="16" height="16" viewBox="0 0 16 16" fill="none" xmlns="http://www.w3.org/2000/svg">
<path d="M12.9974 5.02572C12.9962 5.03373 12.995 5.04162 12.995 5.05C14.691 5.292 16 6.737 16 8.5C16 10.1182 14.9019 11.4798 13.4102 11.8805C13.6239 11.1458 13.4573 10.3205 12.8988 9.71898L9.64879 6.21899C9.22306 5.76051 8.62565 5.5 8 5.5C7.37435 5.5 6.77694 5.76051 6.35121 6.21899L3.10121 9.71898C2.58063 10.2796 2.40055 11.0347 2.55152 11.7296C1.05843 11.1493 0 9.69816 0 8C0 6.106 1.321 4.528 3.089 4.113C3.509 1.777 5.542 0 8 0C10.762 0 13 2.238 13 5C13 5.00913 12.9987 5.01749 12.9974 5.02572Z" fill="currentColor"/>
<path d="M8.55126 7.24145C8.41423 7.09299 8.21798 7 8 7C7.78205 7 7.58581 7.09297 7.44878 7.24141L4.20041 10.7397C3.91856 11.0432 3.93613 11.5177 4.23967 11.7996C4.5432 12.0814 5.01775 12.0639 5.2996 11.7603L7.25 9.6599V15.25C7.25 15.6642 7.58579 16 8 16C8.41422 16 8.75 15.6642 8.75 15.25V9.6599L10.7004 11.7603C10.9823 12.0639 11.4568 12.0814 11.7603 11.7996C12.0639 11.5177 12.0815 11.0432 11.7996 10.7397L8.55126 7.24145Z" fill="currentColor"/>
</svg>
