<svg width="16" height="16" viewBox="0 0 16 16" fill="none" xmlns="http://www.w3.org/2000/svg">
<path d="M8 2C10.762 2 13 4.238 13 7C13 7.01793 12.9952 7.03289 12.9951 7.0498C14.6911 7.29184 16 8.73703 16 10.5C16 12.433 14.433 14 12.5 14H4C1.791 14 0 12.209 0 10C0 8.10607 1.32096 6.52835 3.08887 6.11328C3.50887 3.77728 5.542 2 8 2ZM8 3.5C6.28622 3.5 4.8602 4.73944 4.56543 6.37891C4.45945 6.96737 4.01377 7.4366 3.43164 7.57324C2.31955 7.83434 1.5 8.82486 1.5 10C1.5 11.3806 2.61943 12.5 4 12.5H12.5C13.6046 12.5 14.5 11.6046 14.5 10.5C14.5 9.50432 13.7608 8.6747 12.7832 8.53516C12.0903 8.43628 11.564 7.8736 11.501 7.18848L11.4951 7.0498C11.4951 7.0237 11.498 6.99926 11.499 6.97656C11.4864 5.05379 9.92575 3.5 8 3.5Z" fill="currentColor"/>
</svg>
