<svg width="16" height="16" viewBox="0 0 16 16" fill="none" xmlns="http://www.w3.org/2000/svg">
<path d="M12.9974 5.02572C12.9962 5.03373 12.995 5.04162 12.995 5.05C14.691 5.292 16 6.737 16 8.5C16 10.0872 14.9435 11.4276 13.4954 11.8564C13.4619 11.3293 13.2438 10.8118 12.841 10.409C12.14 9.70801 11.0915 9.56626 10.25 9.98375V7.75C10.25 6.50736 9.24264 5.5 8 5.5C6.75736 5.5 5.75 6.50736 5.75 7.75V9.98375C4.90848 9.56626 3.86001 9.70801 3.15901 10.409C2.79196 10.7761 2.57824 11.2384 2.51784 11.7164C1.04254 11.1274 0 9.68536 0 8C0 6.106 1.321 4.528 3.089 4.113C3.509 1.777 5.542 0 8 0C10.762 0 13 2.238 13 5C13 5.00913 12.9987 5.01749 12.9974 5.02572Z" fill="currentColor"/>
<path d="M8.55126 15.7585C8.41423 15.907 8.21798 16 8 16C7.78205 16 7.58581 15.907 7.44878 15.7586L4.20041 12.2603C3.91856 11.9568 3.93613 11.4823 4.23967 11.2004C4.5432 10.9186 5.01775 10.9361 5.2996 11.2397L7.25 13.3401V7.75C7.25 7.33579 7.58579 7 8 7C8.41422 7 8.75 7.33579 8.75 7.75V13.3401L10.7004 11.2397C10.9823 10.9361 11.4568 10.9186 11.7603 11.2004C12.0639 11.4823 12.0815 11.9568 11.7996 12.2603L8.55126 15.7585Z" fill="currentColor"/>
</svg>
