<svg width="16" height="16" viewBox="0 0 16 16" fill="none" xmlns="http://www.w3.org/2000/svg">
<path d="M12.7831 6.53496C12.044 6.4295 11.495 5.79657 11.495 5.05C11.495 5.00582 11.4969 4.96609 11.4994 4.93224C11.4633 3.02996 9.91093 1.5 8 1.5C6.28622 1.5 4.8601 2.73897 4.56533 4.37844C4.45949 4.9671 4.01405 5.43663 3.43178 5.57331C2.31963 5.83436 1.5 6.82482 1.5 8C1.5 8.93402 2.01237 9.7485 2.77134 10.1777C2.5107 10.6578 2.43874 11.2105 2.55152 11.7296C1.05843 11.1493 0 9.69816 0 8C0 6.106 1.321 4.528 3.089 4.113C3.509 1.777 5.542 0 8 0C10.762 0 13 2.238 13 5C13 5.00913 12.9987 5.01749 12.9974 5.02572C12.9962 5.03373 12.995 5.04162 12.995 5.05C14.691 5.292 16 6.737 16 8.5C16 10.1182 14.9019 11.4798 13.4102 11.8805C13.5578 11.3728 13.5239 10.822 13.3047 10.3315C14.0085 10.0219 14.5 9.31832 14.5 8.5C14.5 7.50428 13.7607 6.67445 12.7831 6.53496Z" fill="currentColor"/>
<path d="M8 7C8.20855 7 8.40769 7.08684 8.54959 7.23966L11.7996 10.7397C12.0814 11.0432 12.0639 11.5177 11.7603 11.7996C11.4568 12.0814 10.9823 12.0639 10.7004 11.7603L8.75 9.6599V15.25C8.75 15.6642 8.41421 16 8 16C7.58579 16 7.25 15.6642 7.25 15.25V9.6599L5.29959 11.7603C5.01774 12.0639 4.54319 12.0814 4.23966 11.7996C3.93613 11.5177 3.91855 11.0432 4.20041 10.7397L7.45041 7.23966C7.59231 7.08684 7.79145 7 8 7Z" fill="currentColor"/>
</svg>
