<svg width="16" height="16" viewBox="0 0 16 16" fill="none" xmlns="http://www.w3.org/2000/svg">
<path d="M11.495 5.05C11.495 5.79657 12.044 6.4295 12.7831 6.53496C13.7607 6.67445 14.5 7.50428 14.5 8.5C14.5 9.40846 13.8943 10.1754 13.0647 10.4192C13.3756 10.8421 13.521 11.3516 13.4976 11.8558C14.9446 11.4263 16 10.0864 16 8.5C16 6.737 14.691 5.292 12.995 5.05C12.995 5.04162 12.9962 5.03373 12.9974 5.02572C12.9987 5.01749 13 5.00913 13 5C13 2.238 10.762 0 8 0C5.542 0 3.509 1.777 3.089 4.113C1.321 4.528 0 6.106 0 8C0 9.6787 1.03431 11.116 2.50037 11.7093C2.50951 11.2068 2.68599 10.7079 3.02645 10.3033C2.12945 9.92364 1.5 9.03524 1.5 8C1.5 6.82482 2.31963 5.83436 3.43178 5.57331C4.01405 5.43663 4.45949 4.9671 4.56533 4.37844C4.8601 2.73897 6.28622 1.5 8 1.5C9.91093 1.5 11.4633 3.02996 11.4994 4.93224C11.4969 4.96609 11.495 5.00582 11.495 5.05Z" fill="currentColor"/>
<path d="M8 8C8.41421 8 8.75 8.33579 8.75 8.75V13.3401L10.7004 11.2397C10.9823 10.9361 11.4568 10.9186 11.7603 11.2004C12.0639 11.4823 12.0814 11.9568 11.7996 12.2603L8.55128 15.7585C8.54588 15.7644 8.54039 15.7701 8.53481 15.7758C8.39875 15.9142 8.2094 16 8 16C7.79821 16 7.61504 15.9203 7.48023 15.7907L7.46519 15.7758C7.4596 15.7701 7.4541 15.7644 7.44869 15.7585L4.20041 12.2603C3.91855 11.9568 3.93613 11.4823 4.23966 11.2004C4.54319 10.9186 5.01774 10.9361 5.29959 11.2397L7.25 13.3401V8.75C7.25 8.33579 7.58579 8 8 8Z" fill="currentColor"/>
</svg>
