<svg width="16" height="16" viewBox="0 0 16 16" fill="none" xmlns="http://www.w3.org/2000/svg">
<path fill-rule="evenodd" clip-rule="evenodd" d="M1 3C1 1.89543 1.89543 1 3 1H13C14.1046 1 15 1.89543 15 3V13C15 14.1046 14.1046 15 13 15H3C1.89543 15 1 14.1046 1 13V3ZM4.19253 4.24828C4.46962 3.94039 4.94384 3.91543 5.25172 4.19253L7.75172 6.44252C7.90976 6.58475 8 6.78738 8 6.99999C8 7.21261 7.90976 7.41523 7.75172 7.55746L5.25172 9.80747C4.94384 10.0846 4.46962 10.0596 4.19253 9.75172C3.91544 9.44384 3.94039 8.96962 4.24828 8.69253L6.12886 6.99999L4.24828 5.30747C3.94039 5.03038 3.91543 4.55616 4.19253 4.24828ZM9.25 8.50967C8.83579 8.50967 8.5 8.84546 8.5 9.25967C8.5 9.67389 8.83579 10.0097 9.25 10.0097H12.25C12.6642 10.0097 13 9.67389 13 9.25967C13 8.84546 12.6642 8.50967 12.25 8.50967H9.25Z" fill="currentColor"/>
</svg>
