<svg width="16" height="16" viewBox="0 0 16 16" fill="none" xmlns="http://www.w3.org/2000/svg">
<path d="M4.19253 4.24828C4.46962 3.94039 4.94384 3.91543 5.25172 4.19253L7.75172 6.44252C7.90976 6.58475 8 6.78738 8 6.99999C8 7.21261 7.90976 7.41523 7.75172 7.55746L5.25172 9.80747C4.94384 10.0846 4.46962 10.0596 4.19253 9.75172C3.91544 9.44384 3.94039 8.96962 4.24828 8.69253L6.12886 6.99999L4.24828 5.30747C3.94039 5.03038 3.91543 4.55616 4.19253 4.24828Z" fill="currentColor"/>
<path d="M8.25 8.50967C7.83579 8.50967 7.5 8.84546 7.5 9.25967C7.5 9.67389 7.83579 10.0097 8.25 10.0097H11.25C11.6642 10.0097 12 9.67389 12 9.25967C12 8.84546 11.6642 8.50967 11.25 8.50967H8.25Z" fill="currentColor"/>
<path fill-rule="evenodd" clip-rule="evenodd" d="M3 1C1.89543 1 1 1.89543 1 3V13C1 14.1046 1.89543 15 3 15H13C14.1046 15 15 14.1046 15 13V3C15 1.89543 14.1046 1 13 1H3ZM13 2.5H3C2.72386 2.5 2.5 2.72386 2.5 3V13C2.5 13.2761 2.72386 13.5 3 13.5H13C13.2761 13.5 13.5 13.2761 13.5 13V3C13.5 2.72386 13.2761 2.5 13 2.5Z" fill="currentColor"/>
</svg>
