<svg width="16" height="16" viewBox="0 0 16 16" fill="none" xmlns="http://www.w3.org/2000/svg">
<path fill-rule="evenodd" clip-rule="evenodd" d="M6.50073 12.7713C6.21768 12.6825 5.94547 12.5691 5.68658 12.4338L4.59507 13.2678C4.19693 13.572 3.63511 13.5346 3.28081 13.1803L2.82008 12.7196C2.46589 12.3654 2.42839 11.8038 2.73236 11.4056L3.56623 10.3134C3.43095 10.0547 3.31766 9.78265 3.22883 9.49978L1.86685 9.3168C1.37048 9.25011 1 8.82652 1 8.3257V7.67375C1 7.17277 1.3707 6.74911 1.86724 6.6826L3.22883 6.50022C3.31761 6.21752 3.43082 5.94564 3.56598 5.68706L2.73209 4.59432C2.42826 4.19619 2.46581 3.63469 2.81995 3.28056L3.28095 2.81956C3.63519 2.46531 4.19689 2.42786 4.59503 2.73194L5.68706 3.56598C5.94564 3.43082 6.21752 3.31761 6.50022 3.22883L6.6832 1.86685C6.74989 1.37048 7.17348 1 7.6743 1H8.32625C8.82723 1 9.25089 1.3707 9.3174 1.86724L9.49978 3.22883C9.78248 3.31761 10.0544 3.43082 10.3129 3.56598L11.4057 2.73209C11.8038 2.42826 12.3653 2.46581 12.7194 2.81995L13.1804 3.28095C13.5347 3.63519 13.5721 4.19689 13.2681 4.59503L12.434 5.68706C12.5693 5.9458 12.6825 6.21785 12.7713 6.50073L14.1325 6.68276C14.6292 6.74917 15 7.17288 15 7.67394V8.32551C15 8.82642 14.6294 9.25004 14.1329 9.31664L12.7713 9.49927C12.6825 9.78232 12.5691 10.0545 12.4338 10.3134L13.2678 11.4049C13.572 11.8031 13.5346 12.3649 13.1803 12.7192L12.7196 13.1799C12.3654 13.5341 11.8038 13.5716 11.4056 13.2676L10.3134 12.4338C10.0545 12.5691 9.78232 12.6825 9.49927 12.7713L9.31724 14.1325C9.25083 14.6292 8.82712 15 8.32606 15H7.67449C7.17358 15 6.74995 14.6294 6.68336 14.1329L6.50073 12.7713ZM8 10C9.10457 10 10 9.10457 10 8C10 6.89543 9.10457 6 8 6C6.89543 6 6 6.89543 6 8C6 9.10457 6.89543 10 8 10Z" fill="currentColor"/>
</svg>
