<svg width="16" height="16" viewBox="0 0 16 16" fill="none" xmlns="http://www.w3.org/2000/svg">
<path d="M8.54963 6.76031C8.40772 6.91314 8.20858 6.99997 8.00003 6.99997C7.79148 6.99997 7.59234 6.91314 7.45044 6.76031L4.20044 3.26031C3.91858 2.95678 3.93616 2.48223 4.23969 2.20038C4.54323 1.91853 5.01777 1.9361 5.29963 2.23963L8.00003 5.14776L10.7004 2.23963C10.9823 1.9361 11.4568 1.91853 11.7604 2.20038C12.0639 2.48223 12.0815 2.95678 11.7996 3.26031L8.54963 6.76031Z" fill="currentColor"/>
<path d="M8.5496 9.23966C8.40769 9.08684 8.20855 9 8 9C7.79145 9 7.59232 9.08684 7.45041 9.23966L4.20041 12.7397C3.91856 13.0432 3.93613 13.5177 4.23966 13.7996C4.5432 14.0814 5.01775 14.0639 5.2996 13.7603L8 10.8522L10.7004 13.7603C10.9823 14.0639 11.4568 14.0814 11.7603 13.7996C12.0639 13.5177 12.0815 13.0432 11.7996 12.7397L8.5496 9.23966Z" fill="currentColor"/>
</svg>
