<svg width="16" height="16" viewBox="0 0 16 16" fill="none" xmlns="http://www.w3.org/2000/svg">
<path d="M8.00002 4.75C8.41423 4.75 8.75002 5.08579 8.75002 5.5V7.25H10.5C10.9142 7.25 11.25 7.58579 11.25 8C11.25 8.41421 10.9142 8.75 10.5 8.75H8.75002V10.5C8.75002 10.9142 8.41423 11.25 8.00002 11.25C7.5858 11.25 7.25002 10.9142 7.25002 10.5V8.75H5.50002C5.0858 8.75 4.75002 8.41421 4.75002 8C4.75002 7.58579 5.0858 7.25 5.50002 7.25H7.25002V5.5C7.25002 5.08579 7.5858 4.75 8.00002 4.75Z" fill="currentColor"/>
<path fill-rule="evenodd" clip-rule="evenodd" d="M8.00002 0C3.58174 0 1.91237e-05 3.58172 1.91237e-05 8C1.91237e-05 8.6663 0.1748 9.46402 0.388027 10.1805C0.568797 10.7879 0.790959 11.3819 1.00049 11.8578L0.0326419 15.0312C-0.0481836 15.2962 0.023678 15.5842 0.219534 15.7802C0.415389 15.9761 0.703332 16.0482 0.96839 15.9675L4.14683 15.0002C4.62204 15.2092 5.21522 15.4312 5.82189 15.6119C6.53737 15.825 7.3343 16 8.00002 16C12.4183 16 16 12.4183 16 8C16 3.58172 12.4183 0 8.00002 0ZM1.50002 8C1.50002 4.41015 4.41017 1.5 8.00002 1.5C11.5899 1.5 14.5 4.41015 14.5 8C14.5 11.5899 11.5899 14.5 8.00002 14.5C7.55256 14.5 6.92075 14.3741 6.25016 14.1743C5.59153 13.9781 4.95617 13.7291 4.52217 13.5227C4.35331 13.4424 4.16053 13.4281 3.98165 13.4825L1.87792 14.1228L2.51818 12.0235C2.57281 11.8443 2.55845 11.6512 2.4779 11.4821C2.2711 11.048 2.02198 10.4121 1.82571 9.7526C1.62591 9.08126 1.50002 8.44839 1.50002 8Z" fill="currentColor"/>
</svg>
