<svg width="16" height="16" viewBox="0 0 16 16" fill="none" xmlns="http://www.w3.org/2000/svg">
<g clip-path="url(#clip0_4263_26890)">
<path d="M1.90992e-05 8C1.90992e-05 3.58172 3.58174 0 8.00002 0C12.4183 0 16 3.58172 16 8C16 8.29375 15.9842 8.58381 15.9533 8.86936C15.7765 7.75514 15.1398 6.79407 14.2437 6.18676C13.4588 3.47927 10.9606 1.5 8.00002 1.5C4.41017 1.5 1.50002 4.41015 1.50002 8C1.50002 8.44839 1.62591 9.08126 1.82571 9.7526C2.02198 10.4121 2.2711 11.048 2.4779 11.4821C2.55845 11.6512 2.57281 11.8443 2.51818 12.0235L1.87792 14.1228L3.98165 13.4825C4.16053 13.4281 4.35331 13.4424 4.52217 13.5227C4.95617 13.7291 5.59153 13.9781 6.25016 14.1743C6.33414 14.1994 6.41752 14.2232 6.5 14.2458V15C6.5 15.2895 6.54921 15.5675 6.63971 15.8261C6.36313 15.7646 6.08693 15.6909 5.82189 15.6119C5.21522 15.4312 4.62204 15.2092 4.14683 15.0002L0.96839 15.9675C0.703332 16.0482 0.415389 15.9761 0.219534 15.7802C0.023678 15.5842 -0.0481836 15.2962 0.0326419 15.0312L1.00049 11.8578C0.790959 11.3819 0.568797 10.7879 0.388027 10.1805C0.1748 9.46402 1.90992e-05 8.6663 1.90992e-05 8Z" fill="currentColor"/>
<path fill-rule="evenodd" clip-rule="evenodd" d="M9 11C8.44772 11 8 11.4477 8 12V15C8 15.5523 8.44772 16 9 16H15C15.5523 16 16 15.5523 16 15V12C16 11.4477 15.5523 11 15 11H14.503V9.50149C14.503 8.11995 13.383 7 12.0015 7C10.62 7 9.5 8.11995 9.5 9.50149V11H9ZM13.003 9.50149V11H11V9.50149C11 8.94838 11.4484 8.5 12.0015 8.5C12.5546 8.5 13.003 8.94838 13.003 9.50149Z" fill="currentColor"/>
</g>
<defs>
<clipPath id="clip0_4263_26890">
<rect width="16" height="16" fill="white"/>
</clipPath>
</defs>
</svg>
