<svg width="16" height="16" viewBox="0 0 16 16" fill="none" xmlns="http://www.w3.org/2000/svg">
<path d="M11.5857 5.96852C11.8444 5.64507 11.792 5.17311 11.4685 4.91435C11.1451 4.65559 10.6731 4.70803 10.4143 5.03148L6.93781 9.37715L5.53033 7.96967C5.23744 7.67678 4.76256 7.67678 4.46967 7.96967C4.17678 8.26256 4.17678 8.73744 4.46967 9.03033L6.46967 11.0303C6.62052 11.1812 6.82847 11.2606 7.04148 11.2489C7.25448 11.2371 7.45238 11.1351 7.58565 10.9685L11.5857 5.96852Z" fill="currentColor"/>
<path fill-rule="evenodd" clip-rule="evenodd" d="M1.91254e-05 8C1.91254e-05 3.58172 3.58174 0 8.00002 0C12.4183 0 16 3.58172 16 8C16 12.4183 12.4183 16 8.00002 16C7.3343 16 6.53737 15.825 5.82189 15.6119C5.21522 15.4312 4.62204 15.2092 4.14683 15.0002L0.96839 15.9675C0.703332 16.0482 0.415389 15.9761 0.219534 15.7802C0.023678 15.5842 -0.0481836 15.2962 0.0326419 15.0312L1.00049 11.8578C0.790959 11.3819 0.568797 10.7879 0.388027 10.1805C0.1748 9.46402 1.91254e-05 8.6663 1.91254e-05 8ZM8.00002 1.5C4.41017 1.5 1.50002 4.41015 1.50002 8C1.50002 8.44839 1.62591 9.08126 1.82571 9.7526C2.02198 10.4121 2.2711 11.048 2.4779 11.4821C2.55845 11.6512 2.57281 11.8443 2.51818 12.0235L1.87792 14.1228L3.98165 13.4825C4.16053 13.4281 4.35331 13.4424 4.52217 13.5227C4.95617 13.7291 5.59153 13.9781 6.25016 14.1743C6.92075 14.3741 7.55256 14.5 8.00002 14.5C11.5899 14.5 14.5 11.5899 14.5 8C14.5 4.41015 11.5899 1.5 8.00002 1.5Z" fill="currentColor"/>
</svg>
