<svg width="16" height="16" viewBox="0 0 16 16" fill="none" xmlns="http://www.w3.org/2000/svg">
<path fill-rule="evenodd" clip-rule="evenodd" d="M8 15C11.866 15 15 11.866 15 8C15 4.13401 11.866 1 8 1C4.13401 1 1 4.13401 1 8C1 9.31931 1.36498 10.5534 1.99948 11.6067L1.04342 14.334C0.915441 14.6991 1.23274 15.0649 1.61224 14.9899L4.99073 14.322C5.90234 14.7567 6.92275 15 8 15ZM4.75 6C4.33579 6 4 6.33579 4 6.75C4 7.16421 4.33579 7.5 4.75 7.5H11.25C11.6642 7.5 12 7.16421 12 6.75C12 6.33579 11.6642 6 11.25 6H4.75ZM5 9.75C5 9.33579 5.33579 9 5.75 9H10.25C10.6642 9 11 9.33579 11 9.75C11 10.1642 10.6642 10.5 10.25 10.5H5.75C5.33579 10.5 5 10.1642 5 9.75Z" fill="currentColor"/>
</svg>
