<svg width="16" height="16" viewBox="0 0 16 16" fill="none" xmlns="http://www.w3.org/2000/svg">
<path d="M8 0C7.58579 0 7.25 0.335786 7.25 0.75V15.25C7.25 15.6642 7.58579 16 8 16C8.41421 16 8.75 15.6642 8.75 15.25V0.75C8.75 0.335786 8.41421 0 8 0Z" fill="currentColor"/>
<path d="M2 2H5.75V5.75H3.75C3.33579 5.75 3 6.08579 3 6.5C3 6.91421 3.33579 7.25 3.75 7.25H5.75V8.75H3.75C3.33579 8.75 3 9.08579 3 9.5C3 9.91421 3.33579 10.25 3.75 10.25H5.75V14H2C0.895431 14 0 13.1046 0 12V4C0 2.89543 0.895431 2 2 2Z" fill="currentColor"/>
<path d="M12.25 5.75H10.25V7.25H12.25C12.6642 7.25 13 6.91421 13 6.5C13 6.08579 12.6642 5.75 12.25 5.75Z" fill="currentColor"/>
<path d="M12.25 8.75H10.25V10.25H12.25C12.6642 10.25 13 9.91421 13 9.5C13 9.08579 12.6642 8.75 12.25 8.75Z" fill="currentColor"/>
<path d="M14 12.5H10.25V14H14C15.1046 14 16 13.1046 16 12V4C16 2.89543 15.1046 2 14 2H10.25V3.5H14C14.2761 3.5 14.5 3.72386 14.5 4V12C14.5 12.2761 14.2761 12.5 14 12.5Z" fill="currentColor"/>
</svg>
