<svg width="16" height="16" viewBox="0 0 16 16" fill="none" xmlns="http://www.w3.org/2000/svg">
<path fill-rule="evenodd" clip-rule="evenodd" d="M2 1C0.895431 1 0 1.89543 0 3V9.5C0 10.6046 0.895431 11.5 2 11.5H6V13.5H4.75C4.33579 13.5 4 13.8358 4 14.25C4 14.6642 4.33579 15 4.75 15H11.25C11.6642 15 12 14.6642 12 14.25C12 13.8358 11.6642 13.5 11.25 13.5H10V11.5H14C15.1046 11.5 16 10.6046 16 9.5V3C16 1.89543 15.1046 1 14 1H2ZM14 2.5H2C1.72386 2.5 1.5 2.72386 1.5 3V9.5C1.5 9.77614 1.72386 10 2 10H14C14.2761 10 14.5 9.77614 14.5 9.5V3C14.5 2.72386 14.2761 2.5 14 2.5Z" fill="currentColor"/>
</svg>
