<svg width="16" height="16" viewBox="0 0 16 16" fill="none" xmlns="http://www.w3.org/2000/svg">
<path d="M10.7803 5.21967C11.0732 5.51256 11.0732 5.98744 10.7803 6.28033L9.05453 8.00613L10.7803 9.73194C11.0732 10.0248 11.0732 10.4997 10.7803 10.7926C10.4874 11.0855 10.0126 11.0855 9.71968 10.7926L7.99387 9.06679L6.28033 10.7803C5.98744 11.0732 5.51256 11.0732 5.21967 10.7803C4.92678 10.4874 4.92678 10.0126 5.21967 9.71967L6.93321 8.00613L5.21967 6.2926C4.92678 5.9997 4.92678 5.52483 5.21967 5.23194C5.51256 4.93904 5.98744 4.93904 6.28033 5.23194L7.99387 6.94547L9.71967 5.21967C10.0126 4.92678 10.4874 4.92678 10.7803 5.21967Z" fill="currentColor"/>
<path fill-rule="evenodd" clip-rule="evenodd" d="M16 8C16 12.4183 12.4183 16 8 16C3.58172 16 0 12.4183 0 8C0 3.58172 3.58172 0 8 0C12.4183 0 16 3.58172 16 8ZM14.5 8C14.5 11.5899 11.5899 14.5 8 14.5C4.41015 14.5 1.5 11.5899 1.5 8C1.5 4.41015 4.41015 1.5 8 1.5C11.5899 1.5 14.5 4.41015 14.5 8Z" fill="currentColor"/>
</svg>
