<svg width="16" height="16" viewBox="0 0 16 16" fill="none" xmlns="http://www.w3.org/2000/svg">
<path fill-rule="evenodd" clip-rule="evenodd" d="M3 1C1.89543 1 1 1.89543 1 3V13C1 14.1046 1.89543 15 3 15H13C14.1046 15 15 14.1046 15 13V3C15 1.89543 14.1046 1 13 1H3ZM4.25 4C3.83579 4 3.5 4.33579 3.5 4.75V11.25C3.5 11.6642 3.83579 12 4.25 12C4.66421 12 5 11.6642 5 11.25V4.75C5 4.33579 4.66421 4 4.25 4ZM7.25 7.75C7.25 7.33579 7.58579 7 8 7C8.41421 7 8.75 7.33579 8.75 7.75V11.25C8.75 11.6642 8.41421 12 8 12C7.58579 12 7.25 11.6642 7.25 11.25V7.75ZM11.75 6C11.3358 6 11 6.33579 11 6.75V11.25C11 11.6642 11.3358 12 11.75 12C12.1642 12 12.5 11.6642 12.5 11.25V6.75C12.5 6.33579 12.1642 6 11.75 6Z" fill="currentColor"/>
</svg>
