<svg width="16" height="16" viewBox="0 0 16 16" fill="none" xmlns="http://www.w3.org/2000/svg">
<path d="M3 3C3 1.89543 3.89543 1 5 1H11C12.1046 1 13 1.89543 13 3H3Z" fill="currentColor"/>
<path d="M4 4C2.89543 4 2 4.89543 2 6H14C14 4.89543 13.1046 4 12 4H4Z" fill="currentColor"/>
<path fill-rule="evenodd" clip-rule="evenodd" d="M3 7C1.89543 7 1 7.89543 1 9V13C1 14.1046 1.89543 15 3 15H13C14.1046 15 15 14.1046 15 13V9C15 7.89543 14.1046 7 13 7H3ZM6.75 9C6.33579 9 6 9.33579 6 9.75C6 10.1642 6.33579 10.5 6.75 10.5H9.25C9.66421 10.5 10 10.1642 10 9.75C10 9.33579 9.66421 9 9.25 9H6.75Z" fill="currentColor"/>
</svg>
