<svg width="16" height="16" viewBox="0 0 16 16" fill="none" xmlns="http://www.w3.org/2000/svg">
<path fill-rule="evenodd" clip-rule="evenodd" d="M8 0C11.866 0 15 1.119 15 2.5C15 3.881 11.866 5 8 5C4.134 5 1 3.881 1 2.5C1 1.119 4.134 0 8 0ZM8 16C4.134 16 1 14.881 1 13.5V10.911C1 10.733 1.218 10.637 1.337 10.769C2.245 11.773 4.884 12.5 8 12.5C11.116 12.5 13.755 11.773 14.663 10.769C14.782 10.637 15 10.733 15 10.911V13.5C15 14.881 11.866 16 8 16ZM1 5.4111C1 5.2341 1.218 5.1371 1.337 5.2681C2.245 6.2731 4.884 7.0001 8 7.0001C11.116 7.0001 13.755 6.2731 14.663 5.2681C14.782 5.1371 15 5.2341 15 5.4111V8.0001C15 9.3811 11.866 10.5001 8 10.5001C4.134 10.5001 1 9.3811 1 8.0001V5.4111Z" fill="currentColor"/>
</svg>
