<svg width="16" height="16" viewBox="0 0 16 16" fill="none" xmlns="http://www.w3.org/2000/svg">
<path d="M7.5 11.4844V12.9844H1C0.447715 12.9844 0 12.5367 0 11.9844V3.98438C0 3.43209 0.447715 2.98438 1 2.98438H15C15.5523 2.98438 16 3.43209 16 3.98438V10.95L14.5 9.45V6.94438C13.2405 6.73085 12.254 5.74392 12.041 4.48438H3.96C3.74648 5.74383 2.75955 6.73036 1.5 6.94338V9.02437C2.75946 9.2379 3.74599 10.2248 3.959 11.4844H7.5Z" fill="currentColor"/>
<path d="M8 10C6.89543 10 6 9.10457 6 8C6 6.89543 6.89543 6 8 6C9.10457 6 10 6.89543 10 8C10 9.10457 9.10457 10 8 10Z" fill="currentColor"/>
<path d="M9 12.75C9 12.3358 9.33579 12 9.75 12L13.4393 12L12.2197 10.7803C11.9268 10.4874 11.9268 10.0126 12.2197 9.71967C12.5126 9.42678 12.9874 9.42678 13.2803 9.71967L15.7803 12.2197C15.7915 12.2309 15.8024 12.2424 15.8128 12.2542C15.9293 12.3864 16 12.5599 16 12.75C16 12.9584 15.915 13.147 15.7778 13.2829L13.2803 15.7803C12.9874 16.0732 12.5126 16.0732 12.2197 15.7803C11.9268 15.4874 11.9268 15.0126 12.2197 14.7197L13.4393 13.5L9.75 13.5C9.33579 13.5 9 13.1642 9 12.75Z" fill="currentColor"/>
</svg>
