<svg width="16" height="16" viewBox="0 0 16 16" fill="none" xmlns="http://www.w3.org/2000/svg">
<path fill-rule="evenodd" clip-rule="evenodd" d="M6.0002 0.999023C6.30221 0.999023 6.57476 1.18018 6.6917 1.45864L11.9417 13.9607C12.1021 14.3426 11.9225 14.7822 11.5406 14.9425C11.1587 15.1029 10.7191 14.9233 10.5587 14.5414L8.86252 10.5023H3.13787L1.4417 14.5414C1.28132 14.9233 0.841717 15.1029 0.45981 14.9425C0.0779035 14.7822 -0.101683 14.3426 0.0586915 13.9607L1.90538 9.56308C1.92354 9.4932 1.95152 9.42727 1.98777 9.36688L5.30869 1.45864C5.42563 1.18018 5.69818 0.999023 6.0002 0.999023ZM6.0002 3.68611L8.23262 9.00226H3.76777L6.0002 3.68611Z" fill="currentColor"/>
<path d="M10.2502 2.5C9.83599 2.5 9.5002 2.83579 9.5002 3.25C9.5002 3.66422 9.83599 4 10.2502 4L15.2502 4C15.6644 4 16.0002 3.66421 16.0002 3.25C16.0002 2.83579 15.6644 2.5 15.2502 2.5L10.2502 2.5Z" fill="currentColor"/>
</svg>
