<svg width="16" height="16" viewBox="0 0 16 16" fill="none" xmlns="http://www.w3.org/2000/svg">
<path d="M2.75 1C2.33579 1 2 1.33579 2 1.75V14.25C2 14.6642 2.33579 15 2.75 15C3.16421 15 3.5 14.6642 3.5 14.25V1.75C3.5 1.33579 3.16421 1 2.75 1Z" fill="currentColor"/>
<path d="M12.5 1.75C12.5 1.33579 12.8358 1 13.25 1C13.6642 1 14 1.33579 14 1.75V14.25C14 14.6642 13.6642 15 13.25 15C12.8358 15 12.5 14.6642 12.5 14.25V1.75Z" fill="currentColor"/>
<path d="M6 5C6 4.44772 6.44772 4 7 4H9C9.55228 4 10 4.44772 10 5V11C10 11.5523 9.55228 12 9 12H7C6.44772 12 6 11.5523 6 11V5Z" fill="currentColor"/>
</svg>
