<svg width="16" height="16" viewBox="0 0 16 16" fill="none" xmlns="http://www.w3.org/2000/svg">
<path d="M1 2.75C1 2.33579 1.33579 2 1.75 2H14.25C14.6642 2 15 2.33579 15 2.75C15 3.16421 14.6642 3.5 14.25 3.5H1.75C1.33579 3.5 1 3.16421 1 2.75Z" fill="currentColor"/>
<path d="M1 13.25C1 12.8358 1.33579 12.5 1.75 12.5H14.25C14.6642 12.5 15 12.8358 15 13.25C15 13.6642 14.6642 14 14.25 14H1.75C1.33579 14 1 13.6642 1 13.25Z" fill="currentColor"/>
<path d="M5 6C4.44772 6 4 6.44772 4 7V9C4 9.55228 4.44772 10 5 10H11C11.5523 10 12 9.55228 12 9V7C12 6.44772 11.5523 6 11 6H5Z" fill="currentColor"/>
</svg>
