<svg width="16" height="16" viewBox="0 0 16 16" fill="none" xmlns="http://www.w3.org/2000/svg">
<path d="M8 1.25C8.41421 1.25 8.75 1.58579 8.75 2V8.43934L11.7197 5.46967C12.0126 5.17678 12.4874 5.17678 12.7803 5.46967C13.0732 5.76256 13.0732 6.23744 12.7803 6.53033L8.53033 10.7803C8.23744 11.0732 7.76256 11.0732 7.46967 10.7803L3.21967 6.53033C2.92678 6.23744 2.92678 5.76256 3.21967 5.46967C3.51256 5.17678 3.98744 5.17678 4.28033 5.46967L7.25 8.43934V2C7.25 1.58579 7.58579 1.25 8 1.25Z" fill="currentColor"/>
<path d="M1.75 10C2.16421 10 2.5 10.3358 2.5 10.75V13.25C2.5 13.3881 2.61193 13.5 2.75 13.5H13.25C13.3881 13.5 13.5 13.3881 13.5 13.25V10.75C13.5 10.3358 13.8358 10 14.25 10C14.6642 10 15 10.3358 15 10.75V13.25C15 14.2165 14.2165 15 13.25 15H2.75C1.7835 15 1 14.2165 1 13.25V10.75C1 10.3358 1.33579 10 1.75 10Z" fill="currentColor"/>
</svg>
