<svg width="16" height="16" viewBox="0 0 16 16" fill="none" xmlns="http://www.w3.org/2000/svg">
<path d="M5.5 4C6.32843 4 7 3.32843 7 2.5C7 1.67157 6.32843 1 5.5 1C4.67157 1 4 1.67157 4 2.5C4 3.32843 4.67157 4 5.5 4Z" fill="currentColor"/>
<path d="M5.5 15C6.32843 15 7 14.3284 7 13.5C7 12.6716 6.32843 12 5.5 12C4.67157 12 4 12.6716 4 13.5C4 14.3284 4.67157 15 5.5 15Z" fill="currentColor"/>
<path d="M12 2.5C12 3.32843 11.3284 4 10.5 4C9.67157 4 9 3.32843 9 2.5C9 1.67157 9.67157 1 10.5 1C11.3284 1 12 1.67157 12 2.5Z" fill="currentColor"/>
<path d="M10.5 15C11.3284 15 12 14.3284 12 13.5C12 12.6716 11.3284 12 10.5 12C9.67157 12 9 12.6716 9 13.5C9 14.3284 9.67157 15 10.5 15Z" fill="currentColor"/>
<path d="M7 8C7 8.82843 6.32843 9.5 5.5 9.5C4.67157 9.5 4 8.82843 4 8C4 7.17157 4.67157 6.5 5.5 6.5C6.32843 6.5 7 7.17157 7 8Z" fill="currentColor"/>
<path d="M10.5 9.5C11.3284 9.5 12 8.82843 12 8C12 7.17157 11.3284 6.5 10.5 6.5C9.67157 6.5 9 7.17157 9 8C9 8.82843 9.67157 9.5 10.5 9.5Z" fill="currentColor"/>
</svg>
