<svg width="16" height="16" viewBox="0 0 16 16" fill="none" xmlns="http://www.w3.org/2000/svg">
<path fill-rule="evenodd" clip-rule="evenodd" d="M2.71923 10.1372C2.59515 10.329 2.48086 10.5057 2.37769 10.6635C2.15098 11.0101 1.68617 11.1074 1.33951 10.8807C0.992841 10.654 0.895594 10.1892 1.1223 9.8425C1.21998 9.69314 1.33004 9.5229 1.451 9.3358C2.13391 8.2795 3.16422 6.68585 4.27432 5.27857C4.92758 4.45043 5.63055 3.65779 6.33007 3.06554C6.99989 2.49842 7.79821 2 8.62776 2C8.90306 2 9.20137 2.06089 9.46126 2.24803C9.72781 2.43997 9.87337 2.70655 9.94208 2.96629C10.0655 3.43283 9.96692 3.97232 9.8402 4.43292C9.58321 5.36703 9.02741 6.573 8.50605 7.70425C8.48937 7.74043 8.47273 7.77653 8.45614 7.81255C7.89834 9.02326 7.38944 10.1413 7.17808 10.9526C7.11578 11.1917 7.09259 11.3582 7.08677 11.4668C7.11267 11.4547 7.14461 11.4379 7.183 11.4144C7.31702 11.3324 7.4814 11.1992 7.67721 11.008C8.05946 10.6349 8.47119 10.1324 8.92391 9.57984C8.9393 9.56106 8.95474 9.54222 8.97022 9.52333C9.42416 8.96942 9.92017 8.36741 10.4106 7.9063C10.6577 7.67402 10.9253 7.45616 11.2078 7.29337C11.4883 7.1318 11.8259 7 12.2001 7C12.4099 7 12.6309 7.04667 12.8345 7.16921C13.0388 7.29214 13.1795 7.46375 13.2715 7.64104C13.441 7.96772 13.4609 8.34287 13.4491 8.63971C13.4247 9.25319 13.2341 10.0203 13.0497 10.6983C12.9936 10.9046 12.9378 11.1038 12.8844 11.2944C12.7989 11.5998 12.7195 11.883 12.6551 12.1379C12.6734 12.1245 12.6919 12.1107 12.7105 12.0967C13.0245 11.8602 13.3244 11.5834 13.5903 11.3379C13.6428 11.2894 13.694 11.2421 13.7437 11.1966C14.0493 10.917 14.5238 10.9381 14.8034 11.2437C15.0829 11.5494 15.0619 12.0238 14.7563 12.3034C14.7154 12.3408 14.6705 12.3822 14.6224 12.4268C14.3585 12.6707 13.9933 13.0084 13.613 13.2948C13.3855 13.4662 13.1316 13.6358 12.8673 13.7649C12.6094 13.8908 12.292 14.003 11.95 14.003C11.6725 14.003 11.4018 13.8825 11.221 13.6425C11.0716 13.4443 11.0315 13.2271 11.0177 13.0926C10.99 12.8206 11.0382 12.5093 11.0917 12.2446C11.1733 11.8404 11.3158 11.3322 11.456 10.8318C11.506 10.6534 11.5557 10.476 11.6023 10.3047C11.7894 9.61647 11.9298 9.01494 11.9495 8.59721C11.8066 8.68063 11.6362 8.81287 11.4381 8.99915C11.0316 9.38131 10.5979 9.90366 10.1304 10.4741C10.1068 10.503 10.083 10.5319 10.0592 10.561C9.62897 11.0863 9.16901 11.648 8.72505 12.0814C8.48897 12.3119 8.23379 12.53 7.96572 12.694C7.70201 12.8553 7.37196 12.9974 6.99999 12.9974C6.7225 12.9974 6.42587 12.9385 6.16473 12.7609C5.89542 12.5778 5.73804 12.3189 5.65871 12.0562C5.51622 11.5844 5.60574 11.038 5.72654 10.5744C5.97915 9.60484 6.55766 8.34854 7.09377 7.18489L7.09994 7.1715C7.65607 5.9644 8.17005 4.8488 8.39393 4.03503C8.46016 3.7943 8.48734 3.62488 8.49598 3.51312C8.22456 3.56361 7.82502 3.76524 7.29933 4.21033C6.7105 4.70887 6.07897 5.41277 5.45201 6.20757C4.39037 7.55342 3.40515 9.07667 2.71923 10.1372Z" fill="currentColor"/>
</svg>
