<svg width="16" height="16" viewBox="0 0 16 16" fill="none" xmlns="http://www.w3.org/2000/svg">
<path fill-rule="evenodd" clip-rule="evenodd" d="M8.46371 0.160534L8 0.75L7.53628 0.160537C7.80837 -0.0535112 8.19162 -0.0535126 8.46371 0.160534ZM8 1.73787C7.90902 1.81994 7.80699 1.91396 7.69603 2.01928C7.22347 2.46784 6.59354 3.11711 5.96502 3.91804C4.69339 5.53846 3.5 7.68718 3.5 10C3.5 12.4853 5.51472 14.5 8 14.5C10.4853 14.5 12.5 12.4853 12.5 10C12.5 7.68715 11.3066 5.53843 10.035 3.91802C9.40646 3.1171 8.77653 2.46783 8.30398 2.01928C8.19302 1.91395 8.09099 1.81994 8 1.73787ZM7.53583 1.33911C7.53575 1.33904 7.53576 1.33905 7.53583 1.33911V1.33911ZM11.215 2.99198C12.5684 4.71657 14 7.19285 14 10C14 13.3137 11.3137 16 8 16C4.68629 16 2 13.3137 2 10C2 7.19288 3.43161 4.7166 4.78498 2.99201C5.46896 2.12042 6.15153 1.41719 6.66335 0.931359C6.9197 0.688027 7.13439 0.498127 7.28658 0.367794C7.36272 0.302601 7.42331 0.252231 7.46576 0.21745C7.48699 0.200058 7.5037 0.186556 7.51556 0.17704L7.52968 0.165766L7.53393 0.162392L7.53535 0.161274L7.53628 0.160537C7.5365 0.160369 7.53628 0.160537 8 0.75C8.46371 0.160534 8.4635 0.160366 8.46371 0.160534L8.46606 0.162388L8.47032 0.165762L8.48444 0.177037C8.49629 0.186552 8.513 0.200054 8.53423 0.217446C8.57669 0.252226 8.63728 0.302596 8.71341 0.367789C8.86561 0.49812 9.0803 0.688018 9.33665 0.931347C9.84847 1.41717 10.531 2.1204 11.215 2.99198Z" fill="currentColor"/>
</svg>
