<svg width="16" height="16" viewBox="0 0 16 16" fill="none" xmlns="http://www.w3.org/2000/svg">
<path d="M8.46371 0.160534L8 0.75L7.53628 0.160537C7.80837 -0.0535112 8.19162 -0.0535126 8.46371 0.160534Z" fill="currentColor"/>
<path fill-rule="evenodd" clip-rule="evenodd" d="M11.5303 3.40616C11.4252 3.26372 11.3199 3.1256 11.215 2.99198C10.531 2.1204 9.84847 1.41717 9.33665 0.931347C9.0803 0.688018 8.86561 0.49812 8.71341 0.367789C8.63728 0.302596 8.57669 0.252226 8.53423 0.217446C8.513 0.200054 8.49629 0.186552 8.48444 0.177037L8.47032 0.165762L8.46606 0.162388L8.46465 0.161271C8.46443 0.161102 8.46371 0.160534 8 0.75C7.53628 0.160537 7.5365 0.160369 7.53628 0.160537L7.53535 0.161274L7.53393 0.162392L7.52968 0.165766L7.51556 0.17704C7.5037 0.186555 7.48699 0.200057 7.46576 0.21745C7.42331 0.252231 7.36272 0.302601 7.28658 0.367794C7.13439 0.498127 6.9197 0.688027 6.66335 0.931359C6.15153 1.41719 5.46896 2.12042 4.78498 2.99201C3.43161 4.7166 2 7.19288 2 10C2 10.8646 2.18289 11.6866 2.5121 12.4292L1.21953 13.7225C0.926713 14.0154 0.926841 14.4903 1.21981 14.7831C1.51278 15.0759 1.98766 15.0758 2.28047 14.7828L14.7764 2.28019C15.0692 1.98722 15.0691 1.51234 14.7761 1.21953C14.4831 0.926713 14.0083 0.926841 13.7154 1.21981L11.5303 3.40616ZM10.4567 4.48035C10.3181 4.28665 10.177 4.09904 10.035 3.91802C9.40646 3.1171 8.77653 2.46783 8.30398 2.01928C8.19302 1.91395 8.09099 1.81994 8 1.73787C7.90902 1.81994 7.80699 1.91396 7.69603 2.01928C7.22347 2.46784 6.59354 3.11711 5.96502 3.91804C4.69339 5.53846 3.5 7.68718 3.5 10C3.5 10.4379 3.56255 10.8612 3.67921 11.2615L10.4567 4.48035Z" fill="currentColor"/>
<path d="M11.9591 7.22071L13.107 6.07213C13.6385 7.26227 14 8.58936 14 10C14 13.3137 11.3137 16 8 16C6.64503 16 5.39495 15.5509 4.39055 14.7933L5.46484 13.7185C6.18679 14.2116 7.05971 14.5 8 14.5C10.4853 14.5 12.5 12.4853 12.5 10C12.5 9.03629 12.2928 8.10108 11.9591 7.22071Z" fill="currentColor"/>
</svg>
