<svg width="16" height="16" viewBox="0 0 16 16" fill="none" xmlns="http://www.w3.org/2000/svg">
<path fill-rule="evenodd" clip-rule="evenodd" d="M12 12H13C14.1046 12 15 11.1046 15 10V3C15 1.89543 14.1046 1 13 1H6C4.89543 1 4 1.89543 4 3V4H3C1.89543 4 1 4.89543 1 6V13C1 14.1046 1.89543 15 3 15H10C11.1046 15 12 14.1046 12 13V12ZM13 2.5H6C5.72386 2.5 5.5 2.72386 5.5 3V4H10C11.1046 4 12 4.89543 12 6V10.5H13C13.2761 10.5 13.5 10.2761 13.5 10V3C13.5 2.72386 13.2761 2.5 13 2.5ZM3 5.5H10C10.2761 5.5 10.5 5.72386 10.5 6V13C10.5 13.2761 10.2761 13.5 10 13.5H3C2.72386 13.5 2.5 13.2761 2.5 13V6C2.5 5.72386 2.72386 5.5 3 5.5Z" fill="currentColor"/>
</svg>
