<svg width="16" height="16" viewBox="0 0 16 16" fill="none" xmlns="http://www.w3.org/2000/svg">
<path d="M3.68989 9.07023L3.02075 11.358C2.90997 11.7368 3.26104 12.0886 3.64001 11.9786L5.93067 11.3137C6.25409 11.2199 6.54857 11.0458 6.7868 10.8078L11.5973 6.00145L9.001 3.40562L4.19436 8.21835C3.95747 8.45555 3.784 8.74848 3.68989 9.07023Z" fill="currentColor"/>
<path d="M13.7092 3.89131L12.3047 5.29465L9.70766 2.69807L11.1105 1.2934C11.5009 0.902512 12.1343 0.902247 12.5251 1.29281L13.7094 2.47665C14.1002 2.86727 14.1001 3.50078 13.7092 3.89131Z" fill="currentColor"/>
<path d="M1.75 13.5069C1.33579 13.5069 1 13.8427 1 14.2569C1 14.6711 1.33579 15.0069 1.75 15.0069L14.25 15.0069C14.6642 15.0069 15 14.6711 15 14.2569C15 13.8427 14.6642 13.5069 14.25 13.5069L1.75 13.5069Z" fill="currentColor"/>
</svg>
