<svg width="16" height="16" viewBox="0 0 16 16" fill="none" xmlns="http://www.w3.org/2000/svg">
<path d="M5.68989 8.07023L5.02075 10.358C4.90997 10.7368 5.26104 11.0886 5.64001 10.9786L7.93067 10.3137C8.25409 10.2199 8.54857 10.0458 8.7868 9.80782L13.5973 5.00145L11.001 2.40562L6.19436 7.21835C5.95747 7.45555 5.784 7.74848 5.68989 8.07023Z" fill="currentColor"/>
<path d="M15.7092 2.89131L14.3047 4.29465L11.7077 1.69807L13.1105 0.293402C13.5009 -0.0974885 14.1343 -0.0977529 14.5251 0.292811L15.7094 1.47665C16.1002 1.86727 16.1001 2.50078 15.7092 2.89131Z" fill="currentColor"/>
<path d="M3 1.00001H10.2845L8.78617 2.50001H3C2.72386 2.50001 2.5 2.72387 2.5 3.00001V11.4202C2.49738 11.4791 2.49741 11.5375 2.5 11.5954V13C2.5 13.2762 2.72386 13.5 3 13.5H4.4306C4.47066 13.5012 4.51099 13.5013 4.55156 13.5H13C13.2761 13.5 13.5 13.2762 13.5 13V7.21941L15 5.72055V13C15 14.1046 14.1046 15 13 15H3C1.89543 15 1 14.1046 1 13V3.00001C1 1.89544 1.89543 1.00001 3 1.00001Z" fill="currentColor"/>
</svg>
