<svg width="16" height="16" viewBox="0 0 16 16" fill="none" xmlns="http://www.w3.org/2000/svg">
<path d="M1.75 1C1.33579 1 1 1.33579 1 1.75V5.24573C1 5.65994 1.33579 5.99573 1.75 5.99573C2.16421 5.99573 2.5 5.65994 2.5 5.24573V2.5H5.24573C5.65994 2.5 5.99573 2.16421 5.99573 1.75C5.99573 1.33579 5.65994 1 5.24573 1H1.75Z" fill="currentColor"/>
<path d="M1.75 14.9957C1.33579 14.9957 1 14.6599 1 14.2457V10.75C1 10.3358 1.33579 10 1.75 10C2.16421 10 2.5 10.3358 2.5 10.75V13.4957H5.24573C5.65994 13.4957 5.99573 13.8315 5.99573 14.2457C5.99573 14.6599 5.65994 14.9957 5.24573 14.9957H1.75Z" fill="currentColor"/>
<path d="M14.9957 1.75C14.9957 1.33579 14.6599 1 14.2457 1H10.75C10.3358 1 10 1.33579 10 1.75C10 2.16421 10.3358 2.5 10.75 2.5H13.4957V5.24573C13.4957 5.65994 13.8315 5.99573 14.2457 5.99573C14.6599 5.99573 14.9957 5.65994 14.9957 5.24573V1.75Z" fill="currentColor"/>
<path d="M14.2457 14.9957C14.6599 14.9957 14.9957 14.6599 14.9957 14.2457V10.75C14.9957 10.3358 14.6599 10 14.2457 10C13.8315 10 13.4957 10.3358 13.4957 10.75V13.4957H10.75C10.3358 13.4957 10 13.8315 10 14.2457C10 14.6599 10.3358 14.9957 10.75 14.9957H14.2457Z" fill="currentColor"/>
</svg>
