<svg width="16" height="16" viewBox="0 0 16 16" fill="none" xmlns="http://www.w3.org/2000/svg">
<path d="M6.7805 12.7198C7.0733 13.0128 7.07315 13.4877 6.78016 13.7805C6.48717 14.0733 6.0123 14.0731 5.7195 13.7802L1.2195 9.27726C1.07889 9.13657 0.999936 8.94578 1 8.74686C1.00006 8.54795 1.07914 8.35721 1.21984 8.2166L5.71984 3.7195C6.01283 3.4267 6.4877 3.42686 6.7805 3.71984C7.0733 4.01283 7.07315 4.4877 6.78016 4.7805L3.55859 8H9.25C11.0449 8 12.5 6.54493 12.5 4.75V1.75C12.5 1.33579 12.8358 1 13.25 1C13.6642 1 14 1.33579 14 1.75V4.75C14 7.37335 11.8734 9.5 9.25 9.5H3.56273L6.7805 12.7198Z" fill="currentColor"/>
</svg>
