<svg width="16" height="16" viewBox="0 0 16 16" fill="none" xmlns="http://www.w3.org/2000/svg">
<g clip-path="url(#clip0_7063_408)">
<path fill-rule="evenodd" clip-rule="evenodd" d="M12.6426 8C12.8775 8.00021 13.0808 8.16397 13.1309 8.39355L13.2988 9.16797C13.6516 9.29242 13.9755 9.48015 14.2539 9.71875L15 9.47754L15.0049 9.47559C15.2291 9.40306 15.4738 9.49728 15.5918 9.70117L15.9355 10.2959C16.0531 10.4995 16.0127 10.7578 15.8389 10.916L15.252 11.4492C15.2851 11.6278 15.3018 11.8119 15.3018 12C15.3018 12.1881 15.285 12.3723 15.252 12.5508L15.8389 13.082C16.0134 13.2401 16.0542 13.4992 15.9365 13.7031L15.5908 14.3018C15.4725 14.5064 15.2266 14.5999 15.002 14.5264L14.2529 14.2803C13.9745 14.5189 13.6517 14.7076 13.2988 14.832L13.1318 15.6055C13.0821 15.8356 12.879 15.9999 12.6436 16H11.9521C11.7156 15.9999 11.5114 15.834 11.4629 15.6025L11.3018 14.832C10.9488 14.7076 10.6252 14.5199 10.3467 14.2812L9.59375 14.5234C9.36963 14.5954 9.12554 14.5007 9.00781 14.2969L8.66211 13.6982C8.5441 13.4934 8.58559 13.2339 8.76172 13.0762L9.34863 12.5518C9.31546 12.373 9.29785 12.1883 9.29785 12C9.29785 11.8117 9.31546 11.627 9.34863 11.4482L8.76172 10.9199C8.5867 10.762 8.54634 10.503 8.66406 10.2988L9.00684 9.7041C9.12447 9.5004 9.36874 9.40584 9.59277 9.47754L10.3477 9.71973C10.6262 9.48108 10.9488 9.29238 11.3018 9.16797L11.4668 8.39551C11.5161 8.16486 11.7202 8 11.9561 8H12.6426ZM12.2998 11.001C11.7482 11.0011 11.3008 11.4484 11.3008 12C11.3008 12.5516 11.7482 12.9989 12.2998 12.999C12.8515 12.999 13.2988 12.5517 13.2988 12C13.2988 11.4483 12.8515 11.001 12.2998 11.001Z" fill="currentColor"/>
<path d="M15 7.20898C14.2023 6.75833 13.2814 6.50009 12.2998 6.5C9.60383 6.5 7.36197 8.44002 6.8916 11H2C0.895431 11 0 10.1046 0 9V2.45801L7.12012 6.64648C7.35468 6.78432 7.64532 6.78432 7.87988 6.64648L15 2.45801V7.20898Z" fill="currentColor"/>
<path d="M13 0C13.7017 0 14.3188 0.36144 14.6758 0.908203L7.5 5.12988L0.324219 0.908203C0.681171 0.36144 1.29832 0 2 0H13Z" fill="currentColor"/>
</g>
<defs>
<clipPath id="clip0_7063_408">
<rect width="16" height="16" fill="white"/>
</clipPath>
</defs>
</svg>
