<svg width="16" height="16" viewBox="0 0 16 16" fill="none" xmlns="http://www.w3.org/2000/svg">
<path d="M13 12C13 13.1046 12.1046 14 11 14H2C0.895431 14 0 13.1046 0 12V8.23535L6.14 11.3311C6.36478 11.4544 6.63522 11.4544 6.86 11.3311L13 8.23535V12Z" fill="currentColor"/>
<path d="M14 2C15.1046 2 16 2.89543 16 4V9C16 9.93162 15.3622 10.7113 14.5 10.9336V5.5C14.5 4.39543 13.6046 3.5 12.5 3.5H3.06543C3.28765 2.63768 4.06829 2 5 2H14Z" fill="currentColor"/>
<path d="M11 5C11.9506 5 12.7439 5.66377 12.9473 6.55273L6.5 9.81836L0.0517578 6.55273C0.255024 5.66366 1.04931 5 2 5H11Z" fill="currentColor"/>
</svg>
