<svg width="16" height="16" viewBox="0 0 16 16" fill="none" xmlns="http://www.w3.org/2000/svg">
<path d="M0.323787 0.908562L7.5 5.12986L14.6762 0.908562C14.3193 0.361547 13.7019 0 13 0H2C1.29813 0 0.680695 0.361547 0.323787 0.908562Z" fill="currentColor"/>
<path d="M15 2.45837L7.88027 6.64645C7.64555 6.78452 7.35445 6.78452 7.11973 6.64645L0 2.45837V9C0 10.1046 0.89543 11 2 11H7.33564C7.72208 10.6873 8.21416 10.5 8.75 10.5H10.5024C10.4895 10.3709 10.4883 10.2401 10.499 10.1089C10.5475 9.51716 10.8286 9.02007 11.1775 8.6739C11.5267 8.32755 12.0249 8.05152 12.6146 8.00622C13.2447 7.95781 13.8651 8.18455 14.3384 8.65635L14.341 8.65899L14.9789 9.29184C14.9928 9.19657 15 9.09913 15 9V2.45837Z" fill="currentColor"/>
<path d="M8.75 12.0001C8.33579 12.0001 8 12.3359 8 12.7501C8 13.1643 8.33579 13.5001 8.75 13.5001L13.4393 13.5001L12.2197 14.7197C11.9268 15.0126 11.9268 15.4875 12.2197 15.7803C12.5126 16.0732 12.9874 16.0732 13.2803 15.7803L15.7803 13.2804C16.0695 12.9912 16.0709 12.4906 15.7803 12.2001L13.2803 9.71982C12.5981 9.03764 11.529 10.0995 12.21 10.7805L13.4393 12.0001L8.75 12.0001Z" fill="currentColor"/>
</svg>
