<svg width="16" height="16" viewBox="0 0 16 16" fill="none" xmlns="http://www.w3.org/2000/svg">
<path d="M2 2C0.895431 2 0 2.89543 0 4V4.00702C0.0223212 4.01659 0.0443848 4.02733 0.066116 4.03926L8 8.39443L15.9339 4.03926C15.9556 4.02733 15.9777 4.01659 16 4.00702V4C16 2.89543 15.1046 2 14 2H2Z" fill="currentColor"/>
<path d="M16 5.7141L8.3609 9.90746C8.13612 10.0308 7.86388 10.0308 7.6391 9.90746L0 5.7141V12C0 13.1046 0.895431 14 2 14H14C15.1046 14 16 13.1046 16 12V5.7141Z" fill="currentColor"/>
</svg>
