<svg width="16" height="16" viewBox="0 0 16 16" fill="none" xmlns="http://www.w3.org/2000/svg">
<g clip-path="url(#clip0_3315_3590)">
<path d="M0.323787 0.908562L7.5 5.12986L14.6762 0.908562C14.3193 0.361547 13.7019 0 13 0H2C1.29813 0 0.680695 0.361547 0.323787 0.908562Z" fill="currentColor"/>
<path d="M15 2.45837L7.88027 6.64645C7.64555 6.78452 7.35445 6.78452 7.11973 6.64645L0 2.45837V9C0 10.1046 0.89543 11 2 11H6.59069C7.06094 8.43988 9.30393 6.5 12 6.5C13.1068 6.5 14.1372 6.82692 15 7.38947V2.45837Z" fill="currentColor"/>
<path fill-rule="evenodd" clip-rule="evenodd" d="M16 12C16 14.2091 14.2091 16 12 16C9.79086 16 8 14.2091 8 12C8 9.79086 9.79086 8 12 8C14.2091 8 16 9.79086 16 12ZM12 9C12.2761 9 12.5 9.22386 12.5 9.5V11.7324L13.7773 12.584C14.0071 12.7372 14.0692 13.0476 13.916 13.2774C13.7628 13.5071 13.4524 13.5692 13.2227 13.416L11.7226 12.416C11.5836 12.3233 11.5 12.1672 11.5 12V9.5C11.5 9.22386 11.7239 9 12 9Z" fill="currentColor"/>
</g>
<defs>
<clipPath id="clip0_3315_3590">
<rect width="16" height="16" fill="white"/>
</clipPath>
</defs>
</svg>
