<svg width="16" height="16" viewBox="0 0 16 16" fill="none" xmlns="http://www.w3.org/2000/svg">
<path d="M6.99882 6.08504C6.9996 6.05679 7 6.02844 7 6C7 4.34315 5.65685 3 4 3C2.34315 3 1 4.34315 1 6C1 7.65685 2.34315 9 4 9C4.54594 9 5.05783 8.85417 5.49882 8.59934V9.25C5.49882 10.4926 4.49146 11.5 3.24882 11.5H2.75C2.33579 11.5 2 11.8358 2 12.25C2 12.6642 2.33579 13 2.75 13H3.24882C5.31989 13 6.99882 11.3211 6.99882 9.25V6.08504Z" fill="currentColor"/>
<path d="M14.9988 6.08506C14.9996 6.0568 15 6.02845 15 6C15 4.34315 13.6569 3 12 3C10.3431 3 9 4.34315 9 6C9 7.65685 10.3431 9 12 9C12.5459 9 13.0578 8.85417 13.4988 8.59934V9.25C13.4988 10.4926 12.4915 11.5 11.2488 11.5H10.75C10.3358 11.5 10 11.8358 10 12.25C10 12.6642 10.3358 13 10.75 13H11.2488C13.3199 13 14.9988 11.3211 14.9988 9.25V6.08506Z" fill="currentColor"/>
</svg>
