<svg width="16" height="16" viewBox="0 0 16 16" fill="none" xmlns="http://www.w3.org/2000/svg">
<path d="M9.75 6.99573C9.33579 6.99573 9 6.65994 9 6.24573V2.75C9 2.33579 9.33579 2 9.75 2C10.1642 2 10.5 2.33579 10.5 2.75V5.49573H13.2457C13.6599 5.49573 13.9957 5.83151 13.9957 6.24573C13.9957 6.65994 13.6599 6.99573 13.2457 6.99573H9.75Z" fill="currentColor"/>
<path d="M9.75 9C9.33579 9 9 9.33579 9 9.75V13.2457C9 13.6599 9.33579 13.9957 9.75 13.9957C10.1642 13.9957 10.5 13.6599 10.5 13.2457V10.5H13.2457C13.6599 10.5 13.9957 10.1642 13.9957 9.75C13.9957 9.33579 13.6599 9 13.2457 9H9.75Z" fill="currentColor"/>
<path d="M6.99573 9.75C6.99573 9.33579 6.65994 9 6.24573 9H2.75C2.33579 9 2 9.33579 2 9.75C2 10.1642 2.33579 10.5 2.75 10.5H5.49573V13.2457C5.49573 13.6599 5.83151 13.9957 6.24573 13.9957C6.65994 13.9957 6.99573 13.6599 6.99573 13.2457V9.75Z" fill="currentColor"/>
<path d="M6.24573 6.99573C6.65994 6.99573 6.99573 6.65994 6.99573 6.24573V2.75C6.99573 2.33579 6.65994 2 6.24573 2C5.83151 2 5.49573 2.33579 5.49573 2.75V5.49573H2.75C2.33579 5.49573 2 5.83151 2 6.24573C2 6.65994 2.33579 6.99573 2.75 6.99573H6.24573Z" fill="currentColor"/>
</svg>
