<svg width="16" height="16" viewBox="0 0 16 16" fill="none" xmlns="http://www.w3.org/2000/svg">
<path d="M8.67048 2.24934C8.53121 2.09401 8.33354 2.0037 8.12494 2.00011C7.91635 1.99652 7.71569 2.07998 7.57117 2.23044L4.20912 5.73044C3.92217 6.02916 3.93172 6.50394 4.23044 6.79088C4.52916 7.07783 5.00394 7.06828 5.29088 6.76956L8.09309 3.85237L10.6916 6.75066C10.9681 7.05907 11.4423 7.08493 11.7507 6.80843C12.0591 6.53192 12.0849 6.05775 11.8084 5.74934L8.67048 2.24934Z" fill="currentColor"/>
<path d="M8.67048 13.7507C8.53121 13.906 8.33354 13.9963 8.12494 13.9999C7.91635 14.0035 7.71569 13.92 7.57117 13.7696L4.20912 10.2696C3.92217 9.97084 3.93172 9.49606 4.23044 9.20912C4.52916 8.92217 5.00394 8.93172 5.29088 9.23044L8.09309 12.1476L10.6916 9.24934C10.9681 8.94093 11.4423 8.91507 11.7507 9.19157C12.0591 9.46808 12.0849 9.94225 11.8084 10.2507L8.67048 13.7507Z" fill="currentColor"/>
</svg>
