<svg width="16" height="16" viewBox="0 0 16 16" fill="none" xmlns="http://www.w3.org/2000/svg">
<path d="M10.0019 8C10.0019 9.10457 9.10646 10 8.00189 10C6.89732 10 6.00189 9.10457 6.00189 8C6.00189 6.89543 6.89732 6 8.00189 6C9.10646 6 10.0019 6.89543 10.0019 8Z" fill="currentColor"/>
<path fill-rule="evenodd" clip-rule="evenodd" d="M8.00189 2C4.31218 2 1.19217 4.36955 0.0608221 7.66533C0.0199959 7.78423 2.06634e-05 7.89258 1.46898e-08 8C-2.09697e-05 8.10916 0.0205667 8.21736 0.0608221 8.33467C1.19217 11.6304 4.31218 14 8.00189 14C11.6214 14 14.7211 11.7198 15.9052 8.52179C15.9689 8.34969 16 8.17417 16 8C16 7.82302 15.9679 7.64743 15.9052 7.47822C14.7211 4.28024 11.6214 2 8.00189 2ZM11.5019 8C11.5019 9.933 9.93489 11.5 8.00189 11.5C6.0689 11.5 4.50189 9.933 4.50189 8C4.50189 6.067 6.0689 4.5 8.00189 4.5C9.93489 4.5 11.5019 6.067 11.5019 8Z" fill="currentColor"/>
</svg>
