<svg width="16" height="16" viewBox="0 0 16 16" fill="none" xmlns="http://www.w3.org/2000/svg">
<path fill-rule="evenodd" clip-rule="evenodd" d="M14.7784 2.28019C15.0712 1.98722 15.0711 1.51234 14.7781 1.21953C14.4852 0.926713 14.0103 0.926841 13.7175 1.21981L11.9572 2.981C10.7768 2.35489 9.42981 2 8.00189 2C4.31218 2 1.19217 4.36955 0.0608221 7.66533C0.0199959 7.78423 2.06647e-05 7.89258 1.60254e-08 8C-2.09684e-05 8.10916 0.0205667 8.21736 0.0608221 8.33467C0.584578 9.86045 1.53455 11.1877 2.76994 12.1733L1.22157 13.7225C0.928752 14.0154 0.92888 14.4903 1.22185 14.7831C1.51482 15.0759 1.9897 15.0758 2.28251 14.7828L4.04921 13.0152L4.05401 13.0178L6.11955 10.9512L6.11497 10.9483L7.22091 9.84178L7.22625 9.84403L9.84557 7.22351L9.84325 7.21803L10.9492 6.11149L10.9523 6.11629L13.2449 3.82258L13.2404 3.81902L14.7784 2.28019ZM9.88812 5.05124C9.34378 4.70232 8.69646 4.5 8.00189 4.5C6.0689 4.5 4.50189 6.067 4.50189 8C4.50189 8.69524 4.70461 9.34314 5.05415 9.88781L6.1602 8.78117C6.05828 8.54118 6.00189 8.27717 6.00189 8C6.00189 6.89543 6.89732 6 8.00189 6C8.27868 6 8.54234 6.05623 8.78207 6.15789L9.88812 5.05124Z" fill="currentColor"/>
<path d="M8.00189 11.5C7.90167 11.5 7.80243 11.4958 7.70435 11.4875L5.55422 13.6387C6.32808 13.8736 7.14979 14 8.00189 14C11.6214 14 14.7211 11.7198 15.9052 8.52179C15.9689 8.34969 16 8.17417 16 8C16 7.82302 15.9679 7.64743 15.9052 7.47822C15.5453 6.50626 15.0085 5.61907 14.3339 4.85491L11.4893 7.70084C11.4976 7.79945 11.5019 7.89923 11.5019 8C11.5019 9.933 9.93489 11.5 8.00189 11.5Z" fill="currentColor"/>
</svg>
