<svg width="16" height="16" viewBox="0 0 16 16" fill="none" xmlns="http://www.w3.org/2000/svg">
<path d="M2.5 4.75C2.5 4.33579 2.16421 4 1.75 4C1.33579 4 1 4.33579 1 4.75V11.25C1 11.6642 1.33579 12 1.75 12C2.16421 12 2.5 11.6642 2.5 11.25V4.75Z" fill="currentColor"/>
<path d="M4.34907 7.24109L8.17507 4.12109C8.49907 3.84409 9.00007 4.07409 9.00007 4.50109V11.4991C9.00007 11.9261 8.49907 12.1561 8.17507 11.8791L4.34907 8.76009C3.88307 8.36009 3.88307 7.64009 4.34907 7.24109Z" fill="currentColor"/>
<path d="M10.3491 7.24109L14.1751 4.12109C14.4991 3.84409 15.0001 4.07409 15.0001 4.50109V11.4991C15.0001 11.9261 14.4991 12.1561 14.1751 11.8791L10.3491 8.76009C9.88307 8.36009 9.88307 7.64009 10.3491 7.24109Z" fill="currentColor"/>
</svg>
