<svg width="16" height="16" viewBox="0 0 16 16" fill="none" xmlns="http://www.w3.org/2000/svg">
<path d="M14.25 4C14.6642 4 15 4.33579 15 4.75V11.25C15 11.6642 14.6642 12 14.25 12C13.8358 12 13.5 11.6642 13.5 11.25V4.75C13.5 4.33579 13.8358 4 14.25 4Z" fill="currentColor"/>
<path d="M1.825 4.12111C1.501 3.84411 1 4.07411 1 4.50111V11.4991C1 11.9261 1.501 12.1561 1.825 11.8791L5.651 8.75911C6.116 8.36011 6.116 7.64011 5.651 7.24011L1.825 4.12111Z" fill="currentColor"/>
<path d="M7.825 4.12111C7.501 3.84411 7 4.07411 7 4.50111V11.4991C7 11.9261 7.501 12.1561 7.825 11.8791L11.651 8.75911C12.117 8.36011 12.117 7.64011 11.651 7.24011L7.825 4.12111Z" fill="currentColor"/>
</svg>
