<svg width="16" height="16" viewBox="0 0 16 16" fill="none" xmlns="http://www.w3.org/2000/svg">
<path d="M9 12C9 12.5523 8.55228 13 8 13C7.44772 13 7 12.5523 7 12C7 11.4477 7.44772 11 8 11C8.55228 11 9 11.4477 9 12Z" fill="currentColor"/>
<path d="M6.5 5.99969C6.5 5.17127 7.17157 4.49969 8 4.49969C8.82843 4.49969 9.5 5.17127 9.5 5.99969C9.5 6.59608 9.152 7.11266 8.64465 7.35468C8.06993 7.62885 7.25 8.24849 7.25 9.24969V9.75C7.25 10.1642 7.58579 10.5 8 10.5C8.41421 10.5 8.75 10.1642 8.75 9.75V9.24969C8.75 9.19909 8.76889 9.12246 8.86192 9.01588C8.95853 8.90519 9.10945 8.7949 9.2905 8.70852C10.2999 8.22698 11 7.19583 11 5.99969C11 4.34284 9.65685 2.99969 8 2.99969C6.34315 2.99969 5 4.34284 5 5.99969C5 6.41391 5.33579 6.74969 5.75 6.74969C6.16421 6.74969 6.5 6.41391 6.5 5.99969Z" fill="currentColor"/>
<path fill-rule="evenodd" clip-rule="evenodd" d="M2 1.75C2 0.783502 2.7835 0 3.75 0H9.08579C9.54992 0 9.99504 0.184375 10.3232 0.512563L13.4874 3.67678C13.8156 4.00497 14 4.45008 14 4.91421V14.25C14 15.2165 13.2165 16 12.25 16H3.75C2.7835 16 2 15.2165 2 14.25V1.75ZM3.75 1.5C3.61193 1.5 3.5 1.61193 3.5 1.75V14.25C3.5 14.3881 3.61193 14.5 3.75 14.5H12.25C12.3881 14.5 12.5 14.3881 12.5 14.25V4.91421C12.5 4.84791 12.4737 4.78432 12.4268 4.73744L9.26256 1.57322C9.21568 1.52634 9.15209 1.5 9.08579 1.5H3.75Z" fill="currentColor"/>
</svg>
