<svg width="16" height="16" viewBox="0 0 16 16" fill="none" xmlns="http://www.w3.org/2000/svg">
<path fill-rule="evenodd" clip-rule="evenodd" d="M3.75 1.5C3.61193 1.5 3.5 1.61193 3.5 1.75V14.25C3.5 14.3881 3.61193 14.5 3.75 14.5H6V16H3.75C2.7835 16 2 15.2165 2 14.25V1.75C2 0.783502 2.7835 0 3.75 0H9.08579C9.54992 0 9.99504 0.184375 10.3232 0.512563L13.4874 3.67678C13.8156 4.00497 14 4.45008 14 4.91421V6H9.75C8.7835 6 8 5.2165 8 4.25V1.5H3.75ZM9.5 1.81066L12.1893 4.5H9.75C9.61193 4.5 9.5 4.38807 9.5 4.25V1.81066Z" fill="currentColor"/>
<path d="M11.2165 11.2164C11.5094 10.9235 11.9843 10.9235 12.2772 11.2164L15.7813 14.7206C16.0742 15.0135 16.0742 15.4884 15.7813 15.7813C15.4884 16.0742 15.0135 16.0742 14.7207 15.7813L11.2165 12.2771C10.9236 11.9842 10.9236 11.5093 11.2165 11.2164Z" fill="currentColor"/>
<path d="M12 7.5C12 7.22386 11.7761 7 11.5 7C11.2239 7 11 7.22386 11 7.5V9C11 9.27614 11.2239 9.5 11.5 9.5C11.7761 9.5 12 9.27614 12 9V7.5Z" fill="currentColor"/>
<path d="M8.14645 8.14645C8.34171 7.95118 8.65829 7.95118 8.85355 8.14645L10.3536 9.64645C10.5488 9.84171 10.5488 10.1583 10.3536 10.3536C10.1583 10.5488 9.84171 10.5488 9.64645 10.3536L8.14645 8.85355C7.95118 8.65829 7.95118 8.34171 8.14645 8.14645Z" fill="currentColor"/>
<path d="M14.1464 8.14645C14.3417 7.95118 14.6583 7.95118 14.8536 8.14645C15.0488 8.34171 15.0488 8.65829 14.8536 8.85355L13.3536 10.3536C13.1583 10.5488 12.8417 10.5488 12.6464 10.3536C12.4512 10.1583 12.4512 9.84171 12.6464 9.64645L14.1464 8.14645Z" fill="currentColor"/>
<path d="M7.00012 11.5029C7.00012 11.2268 7.22398 11.0029 7.50012 11.0029H9.00012C9.27626 11.0029 9.50012 11.2268 9.50012 11.5029C9.50012 11.7791 9.27626 12.0029 9.00012 12.0029H7.50012C7.22398 12.0029 7.00012 11.7791 7.00012 11.5029Z" fill="currentColor"/>
<path d="M10.3536 13.3536C10.5488 13.1583 10.5488 12.8417 10.3536 12.6464C10.1583 12.4512 9.84171 12.4512 9.64645 12.6464L8.14645 14.1464C7.95118 14.3417 7.95118 14.6583 8.14645 14.8536C8.34171 15.0488 8.65829 15.0488 8.85355 14.8536L10.3536 13.3536Z" fill="currentColor"/>
</svg>
