<svg width="16" height="16" viewBox="0 0 16 16" fill="none" xmlns="http://www.w3.org/2000/svg">
<path fill-rule="evenodd" clip-rule="evenodd" d="M3.75 1.5C3.61193 1.5 3.5 1.61193 3.5 1.75V14.25C3.5 14.3881 3.61193 14.5 3.75 14.5H8.33276C8.55486 15.0601 8.88043 15.568 9.28588 16H3.75C2.7835 16 2 15.2165 2 14.25V1.75C2 0.783502 2.7835 0 3.75 0H9.08579C9.54992 0 9.99504 0.184375 10.3232 0.512563L13.4874 3.67678C13.8156 4.00497 14 4.45008 14 4.91421V8.16619C13.6017 8.05783 13.1826 8 12.75 8C12.6661 8 12.5828 8.00217 12.5 8.00647V6H9.75C8.7835 6 8 5.2165 8 4.25V1.5H3.75ZM9.5 1.81066L12.1893 4.5H9.75C9.61193 4.5 9.5 4.38807 9.5 4.25V1.81066Z" fill="currentColor"/>
<path d="M12.75 9.49994C13.1642 9.49994 13.5 9.83573 13.5 10.2499V11.9999H15.25C15.6642 11.9999 16 12.3357 16 12.7499C16 13.1642 15.6642 13.4999 15.25 13.4999H13.5V15.2499C13.5 15.6642 13.1642 15.9999 12.75 15.9999C12.3358 15.9999 12 15.6642 12 15.2499V13.4999H10.25C9.83579 13.4999 9.5 13.1642 9.5 12.7499C9.5 12.3357 9.83579 11.9999 10.25 11.9999H12V10.2499C12 9.83573 12.3358 9.49994 12.75 9.49994Z" fill="currentColor"/>
</svg>
