<svg width="16" height="16" viewBox="0 0 16 16" fill="none" xmlns="http://www.w3.org/2000/svg">
<path fill-rule="evenodd" clip-rule="evenodd" d="M3.75 0C2.7835 0 2 0.783502 2 1.75V14.25C2 15.2165 2.7835 16 3.75 16H6.70802C6.57422 15.6938 6.5 15.3556 6.5 15V14.5H3.75C3.61193 14.5 3.5 14.3881 3.5 14.25V1.75C3.5 1.61193 3.61193 1.5 3.75 1.5H8V4.25C8 5.2165 8.7835 6 9.75 6H10.0631C10.6374 5.68142 11.2982 5.5 12.0015 5.5C12.7294 5.5 13.4119 5.69437 14 6.03404V4.91421C14 4.45008 13.8156 4.00497 13.4874 3.67678L10.3232 0.512563C9.99504 0.184375 9.54992 0 9.08579 0H3.75ZM12.1893 4.5L9.5 1.81066V4.25C9.5 4.38807 9.61193 4.5 9.75 4.5H12.1893Z" fill="currentColor"/>
<path fill-rule="evenodd" clip-rule="evenodd" d="M8 12C8 11.4477 8.44772 11 9 11H9.5V9.50149C9.5 8.11995 10.62 7 12.0015 7C13.383 7 14.503 8.11995 14.503 9.50149V11H15C15.5523 11 16 11.4477 16 12V15C16 15.5523 15.5523 16 15 16H9C8.44772 16 8 15.5523 8 15V12ZM13.003 11V9.50149C13.003 8.94838 12.5546 8.5 12.0015 8.5C11.4484 8.5 11 8.94838 11 9.50149V11H13.003Z" fill="currentColor"/>
</svg>
