<svg width="16" height="16" viewBox="0 0 16 16" fill="none" xmlns="http://www.w3.org/2000/svg">
<path d="M6.24275 7.07125C6.47954 6.92918 6.78667 7.00596 6.92875 7.24275L8 9.02818L9.07125 7.24275C9.21333 7.00596 9.52046 6.92918 9.75725 7.07125C9.99404 7.21333 10.0708 7.52046 9.92875 7.75725L8.5831 10L9.92875 12.2428C10.0708 12.4795 9.99404 12.7867 9.75725 12.9287C9.52046 13.0708 9.21333 12.994 9.07125 12.7572L8 10.9718L6.92875 12.7572C6.78667 12.994 6.47954 13.0708 6.24275 12.9287C6.00596 12.7867 5.92918 12.4795 6.07125 12.2428L7.4169 10L6.07125 7.75725C5.92918 7.52046 6.00596 7.21333 6.24275 7.07125Z" fill="currentColor"/>
<path fill-rule="evenodd" clip-rule="evenodd" d="M3.75 0C2.7835 0 2 0.783502 2 1.75V14.25C2 15.2165 2.7835 16 3.75 16H12.25C13.2165 16 14 15.2165 14 14.25V4.91421C14 4.45008 13.8156 4.00497 13.4874 3.67678L10.3232 0.512563C9.99504 0.184375 9.54992 0 9.08579 0H3.75ZM3.5 1.75C3.5 1.61193 3.61193 1.5 3.75 1.5H8V4.25C8 5.2165 8.7835 6 9.75 6H12.5V14.25C12.5 14.3881 12.3881 14.5 12.25 14.5H3.75C3.61193 14.5 3.5 14.3881 3.5 14.25V1.75ZM12.1893 4.5L9.5 1.81066V4.25C9.5 4.38807 9.61193 4.5 9.75 4.5H12.1893Z" fill="currentColor"/>
</svg>
