<svg width="16" height="16" viewBox="0 0 16 16" fill="none" xmlns="http://www.w3.org/2000/svg">
<path fill-rule="evenodd" clip-rule="evenodd" d="M3.5 1.75C3.5 1.61193 3.61193 1.5 3.75 1.5H8V4.25C8 5.2165 8.7835 6 9.75 6H12.5V6.51373C12.5821 6.50466 12.6655 6.5 12.75 6.5C13.2125 6.5 13.6425 6.63957 14 6.87889V4.91421C14 4.45008 13.8156 4.00497 13.4874 3.67678L10.3232 0.512563C9.99504 0.184375 9.54992 0 9.08579 0H3.75C2.7835 0 2 0.783502 2 1.75V14.25C2 15.2165 2.7835 16 3.75 16H10.318L8.81802 14.5H3.75C3.61193 14.5 3.5 14.3881 3.5 14.25V1.75ZM12.1893 4.5L9.5 1.81066V4.25C9.5 4.38807 9.61193 4.5 9.75 4.5H12.1893Z" fill="currentColor"/>
<path d="M12.75 8C13.1642 8 13.5 8.33579 13.5 8.75V13.4393L14.7197 12.2197C15.0126 11.9268 15.4874 11.9268 15.7803 12.2197C16.0732 12.5126 16.0732 12.9874 15.7803 13.2803L13.2803 15.7803C13.269 15.7917 13.2573 15.8026 13.2453 15.8132C13.1132 15.9295 12.9399 16 12.75 16C12.5416 16 12.353 15.915 12.2171 15.7778L9.71967 13.2803C9.42678 12.9874 9.42678 12.5126 9.71967 12.2197C10.0126 11.9268 10.4874 11.9268 10.7803 12.2197L12 13.4393V8.75C12 8.33579 12.3358 8 12.75 8Z" fill="currentColor"/>
</svg>
