<svg width="16" height="16" viewBox="0 0 16 16" fill="none" xmlns="http://www.w3.org/2000/svg">
<path fill-rule="evenodd" clip-rule="evenodd" d="M3.5 1.75C3.5 1.61193 3.61193 1.5 3.75 1.5H8V4.25C8 5.2165 8.7835 6 9.75 6H12.5V7.76747C13.025 7.91118 13.5272 8.11007 14 8.35745V4.91421C14 4.45008 13.8156 4.00497 13.4874 3.67678L10.3232 0.512563C9.99504 0.184375 9.54992 0 9.08579 0H3.75C2.7835 0 2 0.783502 2 1.75V14.25C2 15.2165 2.7835 16 3.75 16H5.97945C5.40792 15.5733 4.89861 15.0678 4.46744 14.5H3.75C3.61193 14.5 3.5 14.3881 3.5 14.25V1.75ZM12.1893 4.5L9.5 1.81066V4.25C9.5 4.38807 9.61193 4.5 9.75 4.5H12.1893Z" fill="currentColor"/>
<path d="M10.5 14C11.3284 14 12 13.3284 12 12.5C12 11.6716 11.3284 11 10.5 11C9.67157 11 9 11.6716 9 12.5C9 13.3284 9.67157 14 10.5 14Z" fill="currentColor"/>
<path fill-rule="evenodd" clip-rule="evenodd" d="M5.11489 12.9237C4.96259 12.6616 4.96259 12.3383 5.11489 12.0762C6.1828 10.2385 8.19441 9.00002 10.5 9.00002C12.8056 9.00002 14.8172 10.2385 15.8851 12.0762C16.0374 12.3383 16.0374 12.6616 15.8851 12.9237C14.8172 14.7614 12.8056 15.9999 10.5 15.9999C8.19441 15.9999 6.1828 14.7614 5.11489 12.9237ZM10.5 15C11.8807 15 13 13.8807 13 12.5C13 11.1193 11.8807 10 10.5 10C9.11929 10 8 11.1193 8 12.5C8 13.8807 9.11929 15 10.5 15Z" fill="currentColor"/>
</svg>
