<svg width="16" height="16" viewBox="0 0 16 16" fill="none" xmlns="http://www.w3.org/2000/svg">
<path d="M5.75 8C5.33579 8 5 8.33579 5 8.75C5 9.16421 5.33579 9.5 5.75 9.5H10.25C10.6642 9.5 11 9.16421 11 8.75C11 8.33579 10.6642 8 10.25 8H5.75Z" fill="currentColor"/>
<path d="M5 11.75C5 11.3358 5.33579 11 5.75 11H10.25C10.6642 11 11 11.3358 11 11.75C11 12.1642 10.6642 12.5 10.25 12.5H5.75C5.33579 12.5 5 12.1642 5 11.75Z" fill="currentColor"/>
<path fill-rule="evenodd" clip-rule="evenodd" d="M3.75 0C2.7835 0 2 0.783502 2 1.75V14.25C2 15.2165 2.7835 16 3.75 16H12.25C13.2165 16 14 15.2165 14 14.25V4.91421C14 4.45008 13.8156 4.00497 13.4874 3.67678L10.3232 0.512563C9.99504 0.184375 9.54992 0 9.08579 0H3.75ZM3.5 1.75C3.5 1.61193 3.61193 1.5 3.75 1.5H8V4.25C8 5.2165 8.7835 6 9.75 6H12.5V14.25C12.5 14.3881 12.3881 14.5 12.25 14.5H3.75C3.61193 14.5 3.5 14.3881 3.5 14.25V1.75ZM12.1893 4.5L9.5 1.81066V4.25C9.5 4.38807 9.61193 4.5 9.75 4.5H12.1893Z" fill="currentColor"/>
</svg>
