<svg width="16" height="16" viewBox="0 0 16 16" fill="none" xmlns="http://www.w3.org/2000/svg">
<path fill-rule="evenodd" clip-rule="evenodd" d="M3.75 1.5C3.61193 1.5 3.5 1.61193 3.5 1.75V14.25C3.5 14.3881 3.61193 14.5 3.75 14.5H7V16H3.75C2.7835 16 2 15.2165 2 14.25V1.75C2 0.783502 2.7835 0 3.75 0H9.08579C9.54992 0 9.99504 0.184375 10.3232 0.512563L13.4874 3.67678C13.8156 4.00497 14 4.45008 14 4.91421V8H12.5V6H9.75C8.7835 6 8 5.2165 8 4.25V1.5H3.75ZM9.5 1.81066L12.1893 4.5H9.75C9.61193 4.5 9.5 4.38807 9.5 4.25V1.81066Z" fill="currentColor"/>
<path d="M8 12.75C8 12.3358 8.33579 12 8.75 12L13.4393 12L12.2197 10.7803C11.9268 10.4874 11.9268 10.0126 12.2197 9.71967C12.5126 9.42678 12.9874 9.42678 13.2803 9.71967L15.7803 12.2197C15.921 12.3603 16 12.5511 16 12.75C16 12.9489 15.921 13.1397 15.7803 13.2803L13.2803 15.7803C12.9874 16.0732 12.5126 16.0732 12.2197 15.7803C11.9268 15.4874 11.9268 15.0126 12.2197 14.7197L13.4393 13.5L8.75 13.5C8.33579 13.5 8 13.1642 8 12.75Z" fill="currentColor"/>
</svg>
