<svg width="16" height="16" viewBox="0 0 16 16" fill="none" xmlns="http://www.w3.org/2000/svg">
<path fill-rule="evenodd" clip-rule="evenodd" d="M3.49999 1.75C3.49999 1.61193 3.61192 1.5 3.74999 1.5H7.99999V4.25C7.99999 5.2165 8.78349 6 9.74999 6H12.5V7.5H14V4.91421C14 4.45008 13.8156 4.00497 13.4874 3.67678L10.3232 0.512563C9.99503 0.184375 9.54991 0 9.08578 0H3.74999C2.78349 0 1.99999 0.783502 1.99999 1.75V7.5H3.49999V1.75ZM12.1893 4.5L9.49999 1.81066V4.25C9.49999 4.38807 9.61192 4.5 9.74999 4.5H12.1893Z" fill="currentColor"/>
<path fill-rule="evenodd" clip-rule="evenodd" d="M6.50385 9C6.2277 9 6.00385 9.22386 6.00385 9.5V14.5C6.00385 14.7761 6.2277 15 6.50385 15H7.50385C8.88456 15 10.0038 13.8807 10.0038 12.5V11.5C10.0038 10.1193 8.88456 9 7.50385 9H6.50385ZM7.50385 14H7.00385V10H7.50385C8.33227 10 9.00385 10.6716 9.00385 11.5V12.5C9.00385 13.3284 8.33227 14 7.50385 14Z" fill="currentColor"/>
<path fill-rule="evenodd" clip-rule="evenodd" d="M1.5 9.00397C1.22386 9.00397 1 9.22783 1 9.50397V14.504C1 14.7801 1.22386 15.004 1.5 15.004C1.77614 15.004 2 14.7801 2 14.504V13H3.00198C4.10546 13 5 12.1055 5 11.002C5 9.89851 4.10546 9.00397 3.00198 9.00397H1.5ZM3.00198 12H2V10.004H3.00198C3.55317 10.004 4 10.4508 4 11.002C4 11.5532 3.55317 12 3.00198 12Z" fill="currentColor"/>
<path d="M11 9.5C11 9.22386 11.2239 9 11.5 9H14.5C14.7761 9 15 9.22386 15 9.5C15 9.77615 14.7761 10 14.5 10H12V11.5H14C14.2761 11.5 14.5 11.7239 14.5 12C14.5 12.2761 14.2761 12.5 14 12.5H12V14.5C12 14.7761 11.7761 15 11.5 15C11.2239 15 11 14.7761 11 14.5V9.5Z" fill="currentColor"/>
</svg>
