<svg width="16" height="16" viewBox="0 0 16 16" fill="none" xmlns="http://www.w3.org/2000/svg">
<path d="M12 16H3.75C2.7835 16 2 15.2165 2 14.25V1.75C2 0.783502 2.7835 0 3.75 0H9.08579C9.54992 0 9.99504 0.184375 10.3232 0.512563L13.3385 3.52788C13.2273 3.51097 13.1135 3.5022 12.9976 3.5022C12.4895 3.5022 12.0207 3.67069 11.6442 3.95485L9.5 1.81066V4.25C9.5 4.38807 9.61193 4.5 9.75 4.5H11.1285C10.8886 4.85769 10.7487 5.28805 10.7487 5.7511C10.7487 5.83522 10.7533 5.91827 10.7623 6H9.75C8.7835 6 8 5.2165 8 4.25V1.5H3.75C3.61193 1.5 3.5 1.61193 3.5 1.75V14.25C3.5 14.3881 3.61193 14.5 3.75 14.5H12.25C12.3881 14.5 12.5 14.3881 12.5 14.25V12H14V14C14 15.1046 13.1046 16 12 16Z" fill="currentColor"/>
<path d="M13.5303 5.21967C13.2374 4.92678 12.7626 4.92678 12.4697 5.21967C12.1768 5.51256 12.1768 5.98744 12.4697 6.28033L13.1874 6.99805H12.75C10.1266 6.99805 8 9.1247 8 11.748V12.2469C8 12.6611 8.33579 12.9969 8.75 12.9969C9.16421 12.9969 9.5 12.6611 9.5 12.2469V11.748C9.5 9.95312 10.9551 8.49805 12.75 8.49805H13.6874L12.4697 9.71576C12.1768 10.0087 12.1768 10.4835 12.4697 10.7764C12.7626 11.0693 13.2374 11.0693 13.5303 10.7764L15.7784 8.52838C16.0713 8.23548 16.0713 7.76061 15.7784 7.46772L15.5616 7.25096C15.5414 7.22817 15.5199 7.20662 15.4971 7.18643L13.5303 5.21967Z" fill="currentColor"/>
</svg>
