<svg width="16" height="16" viewBox="0 0 16 16" fill="none" xmlns="http://www.w3.org/2000/svg">
<path d="M5.97724 8.35086C5.89487 8.08729 5.61443 7.94039 5.35086 8.02276C5.08729 8.10513 4.94039 8.38556 5.02276 8.64914L6.27276 12.6491C6.33799 12.8579 6.53131 13 6.75 13C6.96869 13 7.16201 12.8579 7.22724 12.6491L8 10.1763L8.77276 12.6491C8.83799 12.8579 9.03131 13 9.25 13C9.46869 13 9.66201 12.8579 9.72724 12.6491L10.9772 8.64914C11.0596 8.38556 10.9127 8.10513 10.6491 8.02276C10.3856 7.94039 10.1051 8.08729 10.0228 8.35086L9.25 10.8237L8.47724 8.35086C8.41201 8.14213 8.21869 8 8 8C7.78131 8 7.58799 8.14213 7.52276 8.35086L6.75 10.8237L5.97724 8.35086Z" fill="currentColor"/>
<path fill-rule="evenodd" clip-rule="evenodd" d="M2 1.75C2 0.783502 2.7835 0 3.75 0H9.08579C9.54992 0 9.99504 0.184375 10.3232 0.512563L13.4874 3.67678C13.8156 4.00497 14 4.45008 14 4.91421V14.25C14 15.2165 13.2165 16 12.25 16H3.75C2.7835 16 2 15.2165 2 14.25V1.75ZM3.75 1.5C3.61193 1.5 3.5 1.61193 3.5 1.75V14.25C3.5 14.3881 3.61193 14.5 3.75 14.5H12.25C12.3881 14.5 12.5 14.3881 12.5 14.25V6H9.75C8.7835 6 8 5.2165 8 4.25V1.5H3.75ZM9.5 1.81066L12.1893 4.5H9.75C9.61193 4.5 9.5 4.38807 9.5 4.25V1.81066Z" fill="currentColor"/>
</svg>
