<svg width="16" height="16" viewBox="0 0 16 16" fill="none" xmlns="http://www.w3.org/2000/svg">
<g clip-path="url(#clip0_454_1664)">
<path fill-rule="evenodd" clip-rule="evenodd" d="M3.5 1.75C3.5 1.61193 3.61193 1.5 3.75 1.5H8V4.25C8 5.2165 8.7835 6 9.75 6H12.5V10.3807L14 8.07602V4.91421C14 4.45008 13.8156 4.00497 13.4874 3.67678L10.3232 0.512563C9.99504 0.184375 9.54992 0 9.08579 0H3.75C2.7835 0 2 0.783502 2 1.75V14.25C2 15.2165 2.7835 16 3.75 16H9.77029L8.65836 14.5H3.75C3.61193 14.5 3.5 14.3881 3.5 14.25V1.75ZM12.1893 4.5L9.5 1.81066V4.25C9.5 4.38807 9.61193 4.5 9.75 4.5H12.1893Z" fill="currentColor"/>
<path d="M15.8922 10.1305C16.102 9.77336 15.9825 9.31376 15.6253 9.10398C15.2682 8.89419 14.8086 9.01366 14.5988 9.37082L11.9427 13.8929L10.3525 11.7477C10.1058 11.415 9.63612 11.3452 9.30337 11.5919C8.97061 11.8385 8.90082 12.3082 9.14749 12.641L11.4127 15.6968C11.5626 15.899 11.8039 16.0126 12.0553 15.9991C12.3066 15.9857 12.5345 15.8471 12.6619 15.63L15.8922 10.1305Z" fill="currentColor"/>
</g>
<defs>
<clipPath id="clip0_454_1664">
<rect width="16" height="16" fill="white"/>
</clipPath>
</defs>
</svg>
