<svg width="16" height="16" viewBox="0 0 16 16" fill="none" xmlns="http://www.w3.org/2000/svg">
<path fill-rule="evenodd" clip-rule="evenodd" d="M15 6.00002V5C15 3.89543 14.1046 3 13 3H8.4375L6.5625 1H2C0.89543 1 0 1.89543 0 3V13C0 14.1046 0.895431 15 2 15H13.6563C14.1362 15 14.5485 14.6591 14.6385 14.1877L15.9762 7.18769C16.0936 6.57328 15.6245 6.00368 15 6.00002ZM8.4375 4.5C8.02289 4.5 7.62677 4.32839 7.34319 4.02591L5.91265 2.5H2C1.72386 2.5 1.5 2.72386 1.5 3V12.9873L3.04722 6.75891C3.15798 6.31304 3.5583 6 4.01773 6H13.5V5C13.5 4.72386 13.2761 4.5 13 4.5H8.4375ZM2.91822 13.5H13.2428L14.3893 7.5H4.40871L2.91822 13.5Z" fill="currentColor"/>
</svg>
