<svg width="16" height="16" viewBox="0 0 16 16" fill="none" xmlns="http://www.w3.org/2000/svg">
<path d="M9 4.5C8.60218 4.5 8.22064 4.34196 7.93934 4.06066L6.37868 2.5H2C1.72386 2.5 1.5 2.72386 1.5 3V4H0V3C0 1.89543 0.89543 1 2 1H7L9 3H14C15.1046 3 16 3.89543 16 5V13C16 14.1046 15.1046 15 14 15H2C0.895431 15 0 14.1046 0 13V12.5H1.5V13C1.5 13.2761 1.72386 13.5 2 13.5H14C14.2761 13.5 14.5 13.2761 14.5 13V5C14.5 4.72386 14.2761 4.5 14 4.5H9Z" fill="currentColor"/>
<path d="M0.75 7.5C0.335787 7.5 0 7.83579 0 8.25C0 8.66421 0.335787 9 0.75 9L4.43933 9L3.21967 10.2197C2.92678 10.5126 2.92678 10.9874 3.21967 11.2803C3.51257 11.5732 3.98744 11.5732 4.28033 11.2803L6.77777 8.78288C6.91499 8.64696 7 8.45841 7 8.25C7 8.05994 6.92931 7.8864 6.81278 7.75423C6.80236 7.7424 6.79154 7.73087 6.78033 7.71966L4.28033 5.21967C3.98743 4.92678 3.51256 4.92678 3.21967 5.21967C2.92678 5.51257 2.92678 5.98744 3.21967 6.28033L4.43935 7.5L0.75 7.5Z" fill="currentColor"/>
</svg>
