<svg width="16" height="16" viewBox="0 0 16 16" fill="none" xmlns="http://www.w3.org/2000/svg">
<path d="M0 13V3C0 1.89543 0.89543 1 2 1H7L9 3H14C15.1046 3 16 3.89543 16 5V10.318L14.341 8.65901C13.4623 7.78033 12.0377 7.78033 11.159 8.65901C10.656 9.16204 10.4409 9.84399 10.5138 10.5H9.75C8.50736 10.5 7.5 11.5074 7.5 12.75V15H2C0.895431 15 0 14.1046 0 13Z" fill="currentColor"/>
<path d="M15.7803 12.2197C15.921 12.3603 16 12.5511 16 12.75C16 12.9489 15.921 13.1397 15.7803 13.2803L13.2803 15.7803C12.9874 16.0732 12.5126 16.0732 12.2197 15.7803C12.0086 15.5693 11.9497 15.2638 12.0427 15C12.0788 14.8976 12.1378 14.8015 12.2197 14.7197L13.4393 13.5H9.75C9.33579 13.5 9 13.1642 9 12.75C9 12.3358 9.33579 12 9.75 12H13.4393L12.2197 10.7803C12.1378 10.6985 12.0788 10.6024 12.0427 10.5C11.9497 10.2362 12.0086 9.93069 12.2197 9.71967C12.5126 9.42678 12.9874 9.42678 13.2803 9.71967L15.7803 12.2197Z" fill="currentColor"/>
</svg>
