<svg width="16" height="16" viewBox="0 0 16 16" fill="none" xmlns="http://www.w3.org/2000/svg">
<path d="M7.93934 4.06066C8.22064 4.34196 8.60218 4.5 9 4.5H14C14.2761 4.5 14.5 4.72386 14.5 5V9H16V5C16 3.89543 15.1046 3 14 3H9L7 1H2C0.89543 1 0 1.89543 0 3V13C0 14.1046 0.895431 15 2 15H7V13.5H2C1.72386 13.5 1.5 13.2761 1.5 13V3C1.5 2.72386 1.72386 2.5 2 2.5H6.37868L7.93934 4.06066Z" fill="currentColor"/>
<path d="M9 12.75C9 12.3358 9.33579 12 9.75 12L13.4393 12L12.2197 10.7803C11.9268 10.4874 11.9268 10.0126 12.2197 9.71967C12.5126 9.42678 12.9874 9.42678 13.2803 9.71967L15.7803 12.2197C15.7915 12.2309 15.8024 12.2424 15.8128 12.2542C15.9293 12.3864 16 12.5599 16 12.75C16 12.9584 15.915 13.147 15.7778 13.2829L13.2803 15.7803C12.9874 16.0732 12.5126 16.0732 12.2197 15.7803C11.9268 15.4874 11.9268 15.0126 12.2197 14.7197L13.4393 13.5L9.75 13.5C9.33579 13.5 9 13.1642 9 12.75Z" fill="currentColor"/>
</svg>
