<svg width="16" height="16" viewBox="0 0 16 16" fill="none" xmlns="http://www.w3.org/2000/svg">
<path d="M1.49711 7.75722L0 11.5V3C0 1.89543 0.95939 1 2.14286 1H6.5625L8.4375 3H12.8571C14.0406 3 15 3.89543 15 5V6.5H3.35407C2.53626 6.5 1.80084 6.9979 1.49711 7.75722Z" fill="currentColor"/>
<path d="M3.08835 8.62656C3.24091 8.24798 3.60845 8 4.01698 8H14.9978C15.7235 8 16.208 8.74716 15.9114 9.40873L13.6698 14.4087C13.5085 14.7685 13.1508 15 12.7562 15H2.00204C1.29289 15 0.808591 14.2837 1.07342 13.6266L3.08835 8.62656Z" fill="currentColor"/>
</svg>
