<svg width="16" height="16" viewBox="0 0 16 16" fill="none" xmlns="http://www.w3.org/2000/svg">
<path fill-rule="evenodd" clip-rule="evenodd" d="M9 4.5C8.60218 4.5 8.22064 4.34196 7.93934 4.06066L6.37868 2.5H2C1.72386 2.5 1.5 2.72386 1.5 3V13C1.5 13.2761 1.72386 13.5 2 13.5H14C14.2761 13.5 14.5 13.2761 14.5 13V5C14.5 4.72386 14.2761 4.5 14 4.5H9ZM7 1L9 3H14C15.1046 3 16 3.89543 16 5V13C16 14.1046 15.1046 15 14 15H2C0.895431 15 0 14.1046 0 13V3C0 1.89543 0.89543 1 2 1H7Z" fill="currentColor"/>
</svg>
