<svg width="16" height="16" viewBox="0 0 16 16" fill="none" xmlns="http://www.w3.org/2000/svg">
<path d="M9 4.5C8.60218 4.5 8.22064 4.34196 7.93934 4.06066L6.37868 2.5H2C1.72386 2.5 1.5 2.72386 1.5 3V13C1.5 13.2761 1.72386 13.5 2 13.5H8.05888C8.14374 14.035 8.31791 14.5402 8.56565 15H2C0.895431 15 0 14.1046 0 13V3C0 1.89543 0.89543 1 2 1H7L9 3H14C15.1046 3 16 3.89543 16 5V9.28588C15.568 8.88043 15.0601 8.55486 14.5 8.33276V5C14.5 4.72386 14.2761 4.5 14 4.5H9Z" fill="currentColor"/>
<path d="M12.75 9.5C13.1642 9.5 13.5 9.83579 13.5 10.25V12H15.25C15.6642 12 16 12.3358 16 12.75C16 13.1642 15.6642 13.5 15.25 13.5H13.5V15.25C13.5 15.6642 13.1642 16 12.75 16C12.3358 16 12 15.6642 12 15.25V13.5H10.25C9.83579 13.5 9.5 13.1642 9.5 12.75C9.5 12.3358 9.83579 12 10.25 12H12V10.25C12 9.83579 12.3358 9.5 12.75 9.5Z" fill="currentColor"/>
</svg>
