<svg width="16" height="16" viewBox="0 0 16 16" fill="none" xmlns="http://www.w3.org/2000/svg">
<path d="M6 3C6 2.44772 6.44772 2 7 2H15C15.5523 2 16 2.44772 16 3C16 3.55228 15.5523 4 15 4H12V13C12 13.5523 11.5523 14 11 14C10.4477 14 10 13.5523 10 13V4H7C6.44772 4 6 3.55228 6 3Z" fill="currentColor"/>
<path d="M0 7C0 6.44772 0.447715 6 1 6H7C7.55228 6 8 6.44772 8 7C8 7.55228 7.55228 8 7 8H5V13C5 13.5523 4.55228 14 4 14C3.44772 14 3 13.5523 3 13V8H1C0.447715 8 0 7.55228 0 7Z" fill="currentColor"/>
</svg>
