<svg width="16" height="16" viewBox="0 0 16 16" fill="none" xmlns="http://www.w3.org/2000/svg">
<path d="M16.0002 0.750183C16.0002 0.48015 15.855 0.230963 15.6201 0.0977683C15.3852 -0.0354263 15.0969 -0.0320632 14.8651 0.106573L12.3651 1.60225C12.0097 1.8149 11.8939 2.27545 12.1066 2.63091C12.3192 2.98636 12.7798 3.10212 13.1352 2.88946L14.5002 2.07286V6.24524C14.5002 6.65945 14.836 6.99524 15.2502 6.99524C15.6644 6.99524 16.0002 6.65945 16.0002 6.24524V0.750183Z" fill="currentColor"/>
<path fill-rule="evenodd" clip-rule="evenodd" d="M8.00019 7.75C8.00019 7.33579 8.33598 7 8.75019 7H10.5025C11.8832 7 13.0025 8.11929 13.0025 9.5C13.0025 9.99959 12.8559 10.465 12.6035 10.8555C13.4374 11.3278 14.0002 12.2232 14.0002 13.25C14.0002 14.7688 12.769 16 11.2502 16H8.75019C8.33598 16 8.00019 15.6642 8.00019 15.25V7.75ZM9.50019 12V14.5H11.2502C11.9405 14.5 12.5002 13.9404 12.5002 13.25C12.5002 12.5596 11.9405 12 11.2502 12H9.50019ZM9.50019 10.5H10.5025C11.0547 10.5 11.5025 10.0523 11.5025 9.5C11.5025 8.94772 11.0547 8.5 10.5025 8.5H9.50019V10.5Z" fill="currentColor"/>
<path fill-rule="evenodd" clip-rule="evenodd" d="M4.19135 7.49095C4.08266 7.19564 3.80117 6.99957 3.48649 7C3.17181 7.00043 2.89086 7.19725 2.78297 7.49286L0.0456622 14.9929C-0.0963521 15.382 0.103957 15.8125 0.493064 15.9545C0.882172 16.0966 1.31273 15.8962 1.45475 15.5071L2.1873 13.5H4.80462L5.54405 15.5091C5.68712 15.8978 6.11822 16.0969 6.50694 15.9538C6.89567 15.8108 7.09481 15.3797 6.95174 14.991L4.19135 7.49095ZM4.25254 12L3.49047 9.92943L2.73476 12H4.25254Z" fill="currentColor"/>
</svg>
