<svg width="16" height="16" viewBox="0 0 16 16" fill="none" xmlns="http://www.w3.org/2000/svg">
<path fill-rule="evenodd" clip-rule="evenodd" d="M13.4616 6.8742H8.48962C8.21362 6.8742 7.98962 7.0982 7.98962 7.3742V8.7102C7.98962 8.9852 8.21362 9.2102 8.48962 9.2102H11.3956C10.8206 10.8392 9.13462 11.9432 7.23462 11.5592C5.88662 11.2862 4.77362 10.2142 4.46462 8.8742C3.91562 6.4972 5.70562 4.3862 7.98962 4.3862C8.72462 4.3862 9.39962 4.6132 9.96862 4.9912C10.1646 5.1212 10.4196 5.1132 10.5856 4.9462L11.7636 3.7702C11.8896 3.6442 11.8836 3.4312 11.7446 3.3192C10.4976 2.3192 8.84762 1.8022 7.07062 2.0702C4.52962 2.4542 2.46262 4.5112 2.07262 7.0522C1.50062 10.7912 4.38462 14.0102 8.01762 14.0002C10.3366 13.9932 12.4246 12.5312 13.4306 10.4412C13.9636 9.3342 14.0766 8.2802 13.9576 7.2992C13.9276 7.0532 13.7086 6.8742 13.4616 6.8742Z" fill="currentColor"/>
</svg>
