<svg width="16" height="16" viewBox="0 0 16 16" fill="none" xmlns="http://www.w3.org/2000/svg">
<path d="M6 9C6.55228 9 7 9.44772 7 10V13C7 13.5523 6.55228 14 6 14H3C2.44772 14 2 13.5523 2 13V10C2 9.44772 2.44772 9 3 9H6Z" fill="currentColor"/>
<path d="M13 9C13.5523 9 14 9.44772 14 10V13C14 13.5523 13.5523 14 13 14H10C9.44772 14 9 13.5523 9 13V10C9 9.44772 9.44772 9 10 9H13Z" fill="currentColor"/>
<path d="M6 2C6.55228 2 7 2.44772 7 3V6C7 6.55228 6.55228 7 6 7H3C2.44772 7 2 6.55228 2 6V3C2 2.44772 2.44772 2 3 2H6Z" fill="currentColor"/>
<path d="M12 1C12.4142 1 12.75 1.33579 12.75 1.75V3.25H14.25C14.6642 3.25 15 3.58579 15 4C15 4.41421 14.6642 4.75 14.25 4.75H12.75V6.25C12.75 6.66421 12.4142 7 12 7C11.5858 7 11.25 6.66421 11.25 6.25V4.75H9.75C9.33579 4.75 9 4.41421 9 4C9 3.58579 9.33579 3.25 9.75 3.25H11.25V1.75C11.25 1.33579 11.5858 1 12 1Z" fill="currentColor"/>
</svg>
