<svg width="16" height="16" viewBox="0 0 16 16" fill="none" xmlns="http://www.w3.org/2000/svg">
<path d="M3 2C3 1.44772 2.55228 1 2 1C1.44772 1 1 1.44772 1 2V12C1 12.5523 1.44772 13 2 13C2.55228 13 3 12.5523 3 12V7.5H7V12C7 12.5523 7.44772 13 8 13C8.55228 13 9 12.5523 9 12V2C9 1.44772 8.55228 1 8 1C7.44772 1 7 1.44772 7 2V6H3V2Z" fill="currentColor"/>
<path d="M14.6645 10.7509C14.8852 10.369 15.001 9.93554 15 9.49445C14.999 9.05337 14.8814 8.62039 14.659 8.23948C14.4366 7.85856 14.1173 7.54327 13.7337 7.3256C13.3501 7.10794 12.9157 6.99565 12.4746 7.00013C12.0335 7.00461 11.6015 7.12571 11.2224 7.35113C10.8432 7.57655 10.5305 7.89827 10.3159 8.28362C10.1882 8.51292 10.056 8.80779 10.0076 9.14411C9.94867 9.5541 10.2332 9.93427 10.6432 9.99324C11.0532 10.0522 11.4334 9.76764 11.4924 9.35765C11.5046 9.27251 11.5453 9.1589 11.6263 9.01345C11.7122 8.85931 11.8373 8.73062 11.9889 8.64045C12.1406 8.55028 12.3134 8.50184 12.4898 8.50005C12.6663 8.49826 12.84 8.54317 12.9935 8.63024C13.1469 8.71731 13.2746 8.84342 13.3636 8.99579C13.4525 9.14816 13.4996 9.32135 13.5 9.49778C13.5004 9.67422 13.4541 9.84761 13.3658 10.0004C13.2822 10.1451 13.1637 10.2664 13.0214 10.3533C12.997 10.3648 12.9627 10.3814 12.9212 10.4022C12.8381 10.4439 12.7228 10.5045 12.5859 10.5836C12.3137 10.7407 11.9475 10.9758 11.5776 11.2867C10.8613 11.8888 10.0001 12.8886 10.0003 14.2548C10.0003 14.6689 10.3361 15.0047 10.7503 15.0047H14.2496C14.6638 15.0047 15 14.6689 15 14.2547C15 13.8404 14.6642 13.5047 14.25 13.5047H11.6722C11.8557 13.1071 12.1708 12.7476 12.5428 12.435C12.8279 12.1953 13.1168 12.0091 13.3359 11.8826C13.4446 11.8198 13.534 11.773 13.5943 11.7427C13.6244 11.7276 13.6471 11.7167 13.6611 11.7101L13.6754 11.7034L13.6765 11.7029C13.699 11.6928 13.7219 11.6812 13.7433 11.6689C14.126 11.4495 14.4438 11.1328 14.6645 10.7509Z" fill="currentColor"/>
</svg>
