<svg width="16" height="16" viewBox="0 0 16 16" fill="none" xmlns="http://www.w3.org/2000/svg">
<path d="M3 2C3 1.44772 2.55228 1 2 1C1.44772 1 1 1.44772 1 2V12C1 12.5523 1.44772 13 2 13C2.55228 13 3 12.5523 3 12V7.5H7V12C7 12.5523 7.44772 13 8 13C8.55228 13 9 12.5523 9 12V2C9 1.44772 8.55228 1 8 1C7.44772 1 7 1.44772 7 2V6H3V2Z" fill="currentColor"/>
<path d="M14 8.75C14 8.46611 13.8397 8.20655 13.5859 8.07941C13.332 7.95228 13.0282 7.97936 12.8008 8.14938L10.8008 9.64505C10.4691 9.89312 10.4013 10.3631 10.6494 10.6948C10.8974 11.0266 11.3675 11.0944 11.6992 10.8463L12.5 10.2474V14.2451C12.5 14.6593 12.8358 14.9951 13.25 14.9951C13.6642 14.9951 14 14.6593 14 14.2451V8.75Z" fill="currentColor"/>
</svg>
