<svg width="16" height="16" viewBox="0 0 16 16" fill="none" xmlns="http://www.w3.org/2000/svg">
<g clip-path="url(#clip0_448_1664)">
<path d="M7 3.00157L9.69884 0.301344C10.0894 -0.0893805 10.7225 -0.0893806 11.1131 0.301345L15.6988 4.8895C16.0894 5.28023 16.0894 5.91372 15.6988 6.30445L13 9.00468L12.5 8.50442L10.7071 10.2982C10.3166 10.689 9.68342 10.689 9.29289 10.2982L5.70711 6.7106C5.31658 6.31987 5.31658 5.68638 5.70711 5.29565L7.5 3.50183L7 3.00157Z" fill="currentColor"/>
<path d="M1.75 11.3059L5.00445 8L8 11L6.36 12.7166C6.26656 12.8093 6.15574 12.8827 6.03391 12.9325C5.91207 12.9823 5.78161 13.0075 5.65 13.0067H2.46C2.26342 13.0059 2.07145 12.9472 1.90806 12.8378C1.74468 12.7284 1.61714 12.5733 1.54138 12.3918C1.46562 12.2103 1.44501 12.0105 1.48211 11.8174C1.51921 11.6242 1.61239 11.4463 1.75 11.3059Z" fill="currentColor"/>
<path d="M1 14.0073H15C15.2652 14.0073 15.5196 14.1127 15.7071 14.3003C15.8946 14.4879 16 14.7424 16 15.0078C16 15.2731 15.8946 15.5276 15.7071 15.7153C15.5196 15.9029 15.2652 16.0083 15 16.0083H1C0.734784 16.0083 0.48043 15.9029 0.292893 15.7153C0.105357 15.5276 0 15.2731 0 15.0078C0 14.7424 0.105357 14.4879 0.292893 14.3003C0.48043 14.1127 0.734784 14.0073 1 14.0073Z" fill="currentColor"/>
</g>
<defs>
<clipPath id="clip0_448_1664">
<rect width="16" height="16" fill="white"/>
</clipPath>
</defs>
</svg>
