<svg width="16" height="16" viewBox="0 0 16 16" fill="none" xmlns="http://www.w3.org/2000/svg">
<path d="M8.43067 0.148725C8.16418 -0.0499629 7.7987 -0.0495356 7.53267 0.149775L0.300345 5.56836C-0.0311503 5.81672 -0.098543 6.28679 0.149819 6.61829C0.398181 6.94978 0.868249 7.01717 1.19974 6.76881L7.98347 1.68633L14.8018 6.76986C15.1338 7.01745 15.6037 6.94896 15.8513 6.61688C16.0989 6.28481 16.0304 5.8149 15.6983 5.56731L8.43067 0.148725Z" fill="currentColor"/>
<path d="M2.03316 8L2.0042 14.9959C2.00191 15.5498 2.45029 16 3.00419 16H6.00004V12C6.00004 11.4477 6.44776 11 7.00004 11H9.00004C9.55233 11 10 11.4477 10 12V16H13C13.5523 16 14 15.5523 14 15V8L8.00004 3.5L2.03316 8Z" fill="currentColor"/>
</svg>
