<svg width="16" height="16" viewBox="0 0 16 16" fill="none" xmlns="http://www.w3.org/2000/svg">
<path d="M3 11.9997L6.07992 7.22836C6.27687 6.92325 6.72313 6.92325 6.92008 7.22836L9 10.4505L10.0799 8.77755C10.2769 8.47243 10.7231 8.47243 10.9201 8.77755L13 11.9997H3Z" fill="currentColor"/>
<path d="M11.5 7C12.3284 7 13 6.32843 13 5.5C13 4.67157 12.3284 4 11.5 4C10.6716 4 10 4.67157 10 5.5C10 6.32843 10.6716 7 11.5 7Z" fill="currentColor"/>
<path fill-rule="evenodd" clip-rule="evenodd" d="M0 3C0 1.89543 0.895431 1 2 1H14C15.1046 1 16 1.89543 16 3V12.9998C16 14.1043 15.1046 14.9998 14 14.9998H2C0.895431 14.9998 0 14.1043 0 12.9998V3ZM2 2.5H14C14.2761 2.5 14.5 2.72386 14.5 3V12.9998C14.5 13.2759 14.2761 13.4998 14 13.4998H2C1.72386 13.4998 1.5 13.2759 1.5 12.9998V3C1.5 2.72386 1.72386 2.5 2 2.5Z" fill="currentColor"/>
</svg>
