<svg width="16" height="16" viewBox="0 0 16 16" fill="none" xmlns="http://www.w3.org/2000/svg">
<path d="M12.027 3.5C10.2321 3.5 8.77699 4.95508 8.77699 6.75V8.26425L9.69036 7.24852C9.96732 6.94052 10.4415 6.91535 10.7495 7.19231C11.0575 7.46927 11.0827 7.94348 10.8057 8.25148L8.55769 10.7515C8.41545 10.9097 8.21273 11 8 11C7.78727 11 7.58455 10.9097 7.44231 10.7515L5.19427 8.25148C4.9173 7.94348 4.94247 7.46927 5.25047 7.19231C5.55847 6.91535 6.03268 6.94052 6.30964 7.24852L7.27699 8.32429V6.75C7.27699 4.12665 9.40364 2 12.027 2H14.25C14.6642 2 15 2.33579 15 2.75C15 3.16421 14.6642 3.5 14.25 3.5H12.027Z" fill="currentColor"/>
<path d="M12.5 6V13C12.5 13.2761 12.2761 13.5 12 13.5H4C3.72386 13.5 3.5 13.2761 3.5 13V5C3.5 4.72386 3.72386 4.5 4 4.5H6.19424C6.40279 3.95973 6.68424 3.45571 7.02654 3H4C2.89543 3 2 3.89543 2 5V13C2 14.1046 2.89543 15 4 15H12C13.1046 15 14 14.1046 14 13V6H12.5Z" fill="currentColor"/>
</svg>
