<svg width="16" height="16" viewBox="0 0 16 16" fill="none" xmlns="http://www.w3.org/2000/svg">
<path d="M8.75 5.43934V0.75C8.75 0.335786 8.41421 0 8 0C7.58579 0 7.25 0.335786 7.25 0.75V5.43934L6.03033 4.21967C5.73744 3.92678 5.26256 3.92678 4.96967 4.21967C4.67678 4.51256 4.67678 4.98744 4.96967 5.28033L7.46967 7.78033C7.76256 8.07322 8.23744 8.07322 8.53033 7.78033L11.0303 5.28033C11.3232 4.98744 11.3232 4.51256 11.0303 4.21967C10.7374 3.92678 10.2626 3.92678 9.96967 4.21967L8.75 5.43934Z" fill="currentColor"/>
<path d="M5 1H3C1.89543 1 1 1.89543 1 3V13C1 14.1046 1.89543 15 3 15H13C14.1046 15 15 14.1046 15 13V3C15 1.89543 14.1046 1 13 1H11V2.5H13C13.2761 2.5 13.5 2.72386 13.5 3V9H11C10.4477 9 10 9.44771 10 10V11H6V10C6 9.44772 5.55228 9 5 9H2.5V3C2.5 2.72386 2.72386 2.5 3 2.5H5V1Z" fill="currentColor"/>
</svg>
