<svg width="16" height="16" viewBox="0 0 16 16" fill="none" xmlns="http://www.w3.org/2000/svg">
<path d="M8.28709 0.0569091C8.19866 0.0202391 8.10169 0 8 0C7.89831 0 7.80134 0.0202391 7.71291 0.0569091C7.62445 0.0935089 7.54158 0.147763 7.46967 0.21967L4.96967 2.71967C4.67678 3.01256 4.67678 3.48744 4.96967 3.78033C5.26256 4.07322 5.73744 4.07322 6.03033 3.78033L7.25 2.56066V7.25C7.25 7.66421 7.58579 8 8 8C8.41421 8 8.75 7.66421 8.75 7.25V2.56066L9.96967 3.78033C10.2626 4.07322 10.7374 4.07322 11.0303 3.78033C11.3232 3.48744 11.3232 3.01256 11.0303 2.71967L8.53038 0.21972C8.45847 0.147812 8.37555 0.0935089 8.28709 0.0569091Z" fill="currentColor"/>
<path d="M4 1H3C1.89543 1 1 1.89543 1 3V13C1 14.1046 1.89543 15 3 15H13C14.1046 15 15 14.1046 15 13V3C15 1.89543 14.1046 1 13 1H12V2.5H13C13.2761 2.5 13.5 2.72386 13.5 3V9H11C10.4477 9 10 9.44771 10 10V11H6V10C6 9.44772 5.55228 9 5 9H2.5V3C2.5 2.72386 2.72386 2.5 3 2.5H4V1Z" fill="currentColor"/>
</svg>
