<svg width="16" height="16" viewBox="0 0 16 16" fill="none" xmlns="http://www.w3.org/2000/svg">
<path d="M12.7502 0C13.1644 0 13.5002 0.335786 13.5002 0.75V2.5H15.2502C15.6644 2.5 16.0002 2.83579 16.0002 3.25C16.0002 3.66421 15.6644 4 15.2502 4H13.5002V5.75C13.5002 6.16421 13.1644 6.5 12.7502 6.5C12.336 6.5 12.0002 6.16421 12.0002 5.75V4H10.2502C9.83598 4 9.50019 3.66421 9.50019 3.25C9.50019 2.83579 9.83598 2.5 10.2502 2.5H12.0002V0.75C12.0002 0.335786 12.336 0 12.7502 0Z" fill="currentColor"/>
<path fill-rule="evenodd" clip-rule="evenodd" d="M6.00018 0.999021C6.3022 0.999021 6.57475 1.18018 6.69168 1.45864L11.9417 13.9607C12.1021 14.3426 11.9225 14.7822 11.5406 14.9425C11.1587 15.1029 10.7191 14.9233 10.5587 14.5414L8.86251 10.5023H3.13787L1.4417 14.5414C1.28132 14.9233 0.841718 15.1029 0.459811 14.9425C0.077904 14.7822 -0.101683 14.3426 0.0586912 13.9607L1.90535 9.56312C1.92351 9.49321 1.95151 9.42726 1.98778 9.36683L5.30868 1.45864C5.42561 1.18018 5.69816 0.999021 6.00018 0.999021ZM6.00018 3.68611L8.23261 9.00226H3.76777L6.00018 3.68611Z" fill="currentColor"/>
</svg>
