<svg width="16" height="16" viewBox="0 0 16 16" fill="none" xmlns="http://www.w3.org/2000/svg">
<path d="M2.00356 2C1.45127 2 1.00356 2.44772 1.00356 3C1.00356 3.55228 1.45127 4 2.00356 4H14.0036C14.5558 4 15.0036 3.55228 15.0036 3C15.0036 2.44772 14.5558 2 14.0036 2H2.00356Z" fill="currentColor"/>
<path d="M8.00356 7C7.45127 7 7.00356 7.44772 7.00356 8C7.00356 8.55228 7.45127 9 8.00356 9H14.0036C14.5558 9 15.0036 8.55228 15.0036 8C15.0036 7.44772 14.5558 7 14.0036 7H8.00356Z" fill="currentColor"/>
<path d="M1.00356 13C1.00356 12.4477 1.45127 12 2.00356 12H14.0036C14.5558 12 15.0036 12.4477 15.0036 13C15.0036 13.5523 14.5558 14 14.0036 14H2.00356C1.45127 14 1.00356 13.5523 1.00356 13Z" fill="currentColor"/>
<path d="M4.76743 8.42731C5.08129 8.23138 5.08129 7.77399 4.76743 7.57806L0.764603 5.0793C0.431563 4.8714 0 5.11107 0 5.50392V10.5014C0 10.8943 0.431562 11.134 0.764603 10.9261L4.76743 8.42731Z" fill="currentColor"/>
</svg>
