<svg width="16" height="16" viewBox="0 0 16 16" fill="none" xmlns="http://www.w3.org/2000/svg">
<path d="M2.00355 2C1.45127 2 1.00355 2.44772 1.00355 3C1.00355 3.55228 1.45127 4 2.00356 4H14.0036C14.5558 4 15.0036 3.55228 15.0036 3C15.0036 2.44772 14.5558 2 14.0036 2H2.00355Z" fill="currentColor"/>
<path d="M8.00355 7C7.45127 7 7.00355 7.44772 7.00355 8C7.00355 8.55228 7.45127 9 8.00355 9H14.0036C14.5558 9 15.0036 8.55228 15.0036 8C15.0036 7.44772 14.5558 7 14.0036 7H8.00355Z" fill="currentColor"/>
<path d="M1.00355 13C1.00355 12.4477 1.45127 12 2.00355 12H14.0036C14.5558 12 15.0036 12.4477 15.0036 13C15.0036 13.5523 14.5558 14 14.0036 14H2.00356C1.45127 14 1.00355 13.5523 1.00355 13Z" fill="currentColor"/>
<path d="M0.235397 8.42731C-0.0784658 8.23138 -0.0784657 7.77399 0.235397 7.57806L4.23822 5.0793C4.57126 4.8714 5.00283 5.11107 5.00283 5.50392L5.00283 10.5014C5.00283 10.8943 4.57126 11.134 4.23822 10.9261L0.235397 8.42731Z" fill="currentColor"/>
</svg>
