<svg width="16" height="16" viewBox="0 0 16 16" fill="none" xmlns="http://www.w3.org/2000/svg">
<path d="M8.5 6H6.75C6.33579 6 6 6.33579 6 6.75C6 7.16421 6.33579 7.5 6.75 7.5H7.5V11H6.75C6.33579 11 6 11.3358 6 11.75C6 12.1642 6.33579 12.5 6.75 12.5H9.75C10.1642 12.5 10.5 12.1642 10.5 11.75C10.5 11.3358 10.1642 11 9.75 11H9V6.5C9 6.22386 8.77614 6 8.5 6Z" fill="currentColor"/>
<path d="M8 5C8.55229 5 9 4.55228 9 4C9 3.44772 8.55229 3 8 3C7.44772 3 7 3.44772 7 4C7 4.55228 7.44772 5 8 5Z" fill="currentColor"/>
<path fill-rule="evenodd" clip-rule="evenodd" d="M8 16C12.4183 16 16 12.4183 16 8C16 3.58172 12.4183 0 8 0C3.58172 0 0 3.58172 0 8C0 12.4183 3.58172 16 8 16ZM8 14.5C11.5899 14.5 14.5 11.5899 14.5 8C14.5 4.41015 11.5899 1.5 8 1.5C4.41015 1.5 1.5 4.41015 1.5 8C1.5 11.5899 4.41015 14.5 8 14.5Z" fill="currentColor"/>
</svg>
