<svg width="16" height="16" viewBox="0 0 16 16" fill="none" xmlns="http://www.w3.org/2000/svg">
<path d="M7.25479 0.998596C6.84058 0.998596 6.50479 1.33438 6.50479 1.7486C6.50479 2.16281 6.84058 2.4986 7.25479 2.4986H9.00131V13.4839H7.25479C6.84058 13.4839 6.50479 13.8197 6.50479 14.2339C6.50479 14.6481 6.84058 14.9839 7.25479 14.9839H12.25C12.6642 14.9839 13 14.6481 13 14.2339C13 13.8197 12.6642 13.4839 12.25 13.4839H10.5013V2.4986H12.25C12.6642 2.4986 13 2.16281 13 1.7486C13 1.33438 12.6642 0.998596 12.25 0.998596H7.25479Z" fill="currentColor"/>
<path d="M1.75 4H7.5V5.5H1.75C1.61193 5.5 1.5 5.61193 1.5 5.75V10.25C1.5 10.3881 1.61193 10.5 1.75 10.5H7.5V12H1.75C0.783501 12 0 11.2165 0 10.25V5.75C0 4.7835 0.783502 4 1.75 4Z" fill="currentColor"/>
<path d="M14.25 10.5H12V12H14.25C15.2165 12 16 11.2165 16 10.25V5.75C16 4.7835 15.2165 4 14.25 4H12V5.5H14.25C14.3881 5.5 14.5 5.61193 14.5 5.75V10.25C14.5 10.3881 14.3881 10.5 14.25 10.5Z" fill="currentColor"/>
</svg>
