<svg width="16" height="16" viewBox="0 0 16 16" fill="none" xmlns="http://www.w3.org/2000/svg">
<path d="M6.74996 1C6.33575 1 5.99996 1.33579 5.99996 1.75C5.99996 2.16421 6.33575 2.5 6.74996 2.5L8.97241 2.5L5.4514 13.5H2.74646C2.33225 13.5 1.99646 13.8358 1.99646 14.25C1.99646 14.6642 2.33225 15 2.74646 15H5.98161C5.99323 15.0003 6.00481 15.0003 6.01637 15H9.24646C9.66067 15 9.99646 14.6642 9.99646 14.25C9.99646 13.8358 9.66067 13.5 9.24646 13.5H7.02637L10.5474 2.5L13.25 2.5C13.6642 2.5 14 2.16421 14 1.75C14 1.33579 13.6642 1 13.25 1H6.74996Z" fill="currentColor"/>
</svg>
