<svg width="16" height="16" viewBox="0 0 16 16" fill="none" xmlns="http://www.w3.org/2000/svg">
<path d="M0.597777 3.08497L7.21302 0.169949C7.72836 -0.0571388 8.31577 -0.0566279 8.83072 0.171357L15.4076 3.08317C16.2 3.43401 16.2 4.55666 15.4075 4.90739L8.80684 7.82874C8.29074 8.05716 7.70194 8.05708 7.18591 7.82852L0.596043 4.90978C-0.196972 4.55855 -0.195904 3.43471 0.597777 3.08497Z" fill="currentColor"/>
<path d="M15.915 7.60034C16.1381 8.10553 15.9095 8.69598 15.4043 8.91913L8.80468 11.8343C8.28967 12.0618 7.70262 12.0617 7.18771 11.834L0.595819 8.91896C0.0907165 8.6956 -0.137679 8.10506 0.0856826 7.59996C0.309044 7.09486 0.899581 6.86646 1.40468 7.08983L7.99657 10.0048L14.5962 7.08966C15.1014 6.86651 15.6918 7.09515 15.915 7.60034Z" fill="currentColor"/>
<path d="M15.4043 12.9191C15.9095 12.696 16.1381 12.1055 15.915 11.6003C15.6918 11.0951 15.1014 10.8665 14.5962 11.0897L7.99657 14.0048L1.40468 11.0898C0.899581 10.8665 0.309044 11.0949 0.0856826 11.6C-0.137679 12.1051 0.0907165 12.6956 0.595819 12.919L7.18771 15.834C7.70262 16.0617 8.28967 16.0618 8.80468 15.8343L15.4043 12.9191Z" fill="currentColor"/>
</svg>
