<svg width="16" height="16" viewBox="0 0 16 16" fill="none" xmlns="http://www.w3.org/2000/svg">
<path fill-rule="evenodd" clip-rule="evenodd" d="M8 16C12.4183 16 16 12.4183 16 8C16 3.58172 12.4183 0 8 0C3.58172 0 0 3.58172 0 8C0 12.4183 3.58172 16 8 16ZM8.08586 2.26846L4.09126 8.2214C3.86836 8.55357 4.10642 9 4.50645 9H7.5L7.01291 13.4106C6.9555 13.9304 7.63377 14.1783 7.92511 13.744L11.927 7.77855C12.1499 7.44637 11.9118 7 11.5118 7H8.5L8.99787 2.60332C9.05679 2.08298 8.37764 1.83362 8.08586 2.26846Z" fill="currentColor"/>
</svg>
