<svg width="16" height="16" viewBox="0 0 16 16" fill="none" xmlns="http://www.w3.org/2000/svg">
<path d="M12.1839 7.86205C11.9648 8.31232 11.7458 8.76246 11.588 9.23613L11.2279 10.3162C11.0918 10.7246 10.7097 11 10.2792 11H5.72075C5.29032 11 4.90818 10.7246 4.77207 10.3162L4.41205 9.23615C4.25415 8.76247 4.03517 8.31233 3.81612 7.86205C3.65682 7.53462 3.4975 7.20711 3.3616 6.87042C3.12839 6.29264 3 5.66131 3 5C3 2.23858 5.23858 0 8 0C10.7614 0 13 2.23858 13 5C13 5.66132 12.8716 6.29265 12.6384 6.87043C12.5025 7.20712 12.3432 7.53462 12.1839 7.86205Z" fill="currentColor"/>
<path d="M5 12.75C5 12.3358 5.33579 12 5.75 12H10.25C10.6642 12 11 12.3358 11 12.75C11 13.1642 10.6642 13.5 10.25 13.5H5.75C5.33579 13.5 5 13.1642 5 12.75Z" fill="currentColor"/>
<path d="M6 15.25C6 14.8358 6.33579 14.5 6.75 14.5H9.25C9.66421 14.5 10 14.8358 10 15.25C10 15.6642 9.66421 16 9.25 16H6.75C6.33579 16 6 15.6642 6 15.25Z" fill="currentColor"/>
</svg>
