<svg width="16" height="16" viewBox="0 0 16 16" fill="none" xmlns="http://www.w3.org/2000/svg">
<path d="M0 8C0 5.79086 1.79086 4 4 4H5.5C6.32843 4 7 4.67157 7 5.5H4C2.61929 5.5 1.5 6.61929 1.5 8C1.5 9.38071 2.61929 10.5 4 10.5H7C7 11.3284 6.32843 12 5.5 12H4C1.79086 12 0 10.2091 0 8Z" fill="currentColor"/>
<path d="M16 8C16 5.79086 14.2091 4 12 4H10.5C9.67157 4 9 4.67157 9 5.5H12C13.3807 5.5 14.5 6.61929 14.5 8C14.5 9.38071 13.3807 10.5 12 10.5H9C9 11.3284 9.67157 12 10.5 12H12C14.2091 12 16 10.2091 16 8Z" fill="currentColor"/>
<path d="M5 7.25C4.58579 7.25 4.25 7.58579 4.25 8C4.25 8.41421 4.58579 8.75 5 8.75H11C11.4142 8.75 11.75 8.41421 11.75 8C11.75 7.58579 11.4142 7.25 11 7.25H5Z" fill="currentColor"/>
</svg>
