<svg width="16" height="16" viewBox="0 0 16 16" fill="none" xmlns="http://www.w3.org/2000/svg">
<path d="M2.5 4.5C3.32843 4.5 4 3.82843 4 3C4 2.17157 3.32843 1.5 2.5 1.5C1.67157 1.5 1 2.17157 1 3C1 3.82843 1.67157 4.5 2.5 4.5Z" fill="currentColor"/>
<path d="M7 2C6.44772 2 6 2.44772 6 3C6 3.55228 6.44772 4 7 4H14C14.5523 4 15 3.55228 15 3C15 2.44772 14.5523 2 14 2H7Z" fill="currentColor"/>
<path d="M7 7C6.44772 7 6 7.44772 6 8C6 8.55228 6.44772 9 7 9H14C14.5523 9 15 8.55228 15 8C15 7.44772 14.5523 7 14 7H7Z" fill="currentColor"/>
<path d="M6 13C6 12.4477 6.44772 12 7 12H14C14.5523 12 15 12.4477 15 13C15 13.5523 14.5523 14 14 14H7C6.44772 14 6 13.5523 6 13Z" fill="currentColor"/>
<path d="M4 8C4 8.82843 3.32843 9.5 2.5 9.5C1.67157 9.5 1 8.82843 1 8C1 7.17157 1.67157 6.5 2.5 6.5C3.32843 6.5 4 7.17157 4 8Z" fill="currentColor"/>
<path d="M2.5 14.5C3.32843 14.5 4 13.8284 4 13C4 12.1716 3.32843 11.5 2.5 11.5C1.67157 11.5 1 12.1716 1 13C1 13.8284 1.67157 14.5 2.5 14.5Z" fill="currentColor"/>
</svg>
