<svg width="16" height="16" viewBox="0 0 16 16" fill="none" xmlns="http://www.w3.org/2000/svg">
<path d="M2.74098 0.0591502C2.90331 0.146015 3.00477 0.315063 3.00507 0.499174L3.01086 3.99917C3.01131 4.27532 2.78783 4.49954 2.51168 4.5C2.23554 4.50046 2.01131 4.27697 2.01086 4.00083L2.00661 1.43151L1.27676 1.91645C1.04676 2.06927 0.736424 2.00671 0.583602 1.77671C0.43078 1.54671 0.493345 1.23637 0.723345 1.08355L2.22836 0.0835489C2.38171 -0.0183416 2.57865 -0.027715 2.74098 0.0591502Z" fill="currentColor"/>
<path d="M6.00003 3.00001C6.00003 2.44772 6.44774 2.00001 7.00003 2.00001H14C14.5523 2.00001 15 2.44772 15 3.00001C15 3.55229 14.5523 4.00001 14 4.00001H7.00003C6.44774 4.00001 6.00003 3.55229 6.00003 3.00001Z" fill="currentColor"/>
<path d="M6.00003 8.00001C6.00003 7.44773 6.44774 7.00001 7.00003 7.00001H14C14.5523 7.00001 15 7.44773 15 8.00001C15 8.5523 14.5523 9.00001 14 9.00001H7.00003C6.44774 9.00001 6.00003 8.5523 6.00003 8.00001Z" fill="currentColor"/>
<path d="M7.00003 12C6.44774 12 6.00003 12.4477 6.00003 13C6.00003 13.5523 6.44774 14 7.00003 14H14C14.5523 14 15 13.5523 15 13C15 12.4477 14.5523 12 14 12H7.00003Z" fill="currentColor"/>
<path d="M2.00001 6.5C2.00001 6.22386 2.22387 6 2.50001 6C2.77616 6 3.00001 6.22386 3.00001 6.5C3.00001 6.63654 2.94595 6.75945 2.85692 6.85016C2.75844 6.95052 2.65052 7.05737 2.53842 7.16834C2.25761 7.44634 1.95059 7.75029 1.70002 8.04331C1.52041 8.25335 1.35066 8.47868 1.22421 8.71237C1.09875 8.94423 1.00001 9.21333 1.00001 9.50323C1.00001 9.63584 1.05269 9.76302 1.14646 9.85679C1.24023 9.95056 1.3674 10.0032 1.50001 10.0032H3.50007C3.77622 10.0032 4.00007 9.77938 4.00007 9.50323C4.00007 9.22709 3.77622 9.00323 3.50007 9.00323H2.21841C2.28525 8.90639 2.36611 8.80304 2.46004 8.69321C2.68234 8.43324 2.94001 8.17825 3.20774 7.9133C3.32744 7.79485 3.44921 7.67434 3.57067 7.55057C3.83572 7.28048 4.00001 6.90893 4.00001 6.5C4.00001 5.67157 3.32844 5 2.50001 5C1.67159 5 1.00001 5.67157 1.00001 6.5C1.00001 6.77614 1.22387 7 1.50001 7C1.77616 7 2.00001 6.77614 2.00001 6.5Z" fill="currentColor"/>
<path d="M1.92281 11.1142C2.1969 11.0006 2.4985 10.9709 2.78947 11.0288C3.08045 11.0867 3.34772 11.2296 3.5575 11.4393C3.76728 11.6491 3.91014 11.9164 3.96802 12.2074C4.02589 12.4983 3.99619 12.7999 3.88266 13.074C3.81767 13.2309 3.72689 13.3748 3.61487 13.5C3.72689 13.6252 3.81767 13.7691 3.88266 13.926C3.99619 14.2001 4.0259 14.5017 3.96802 14.7926C3.91014 15.0836 3.76728 15.3509 3.5575 15.5607C3.34772 15.7704 3.08045 15.9133 2.78947 15.9712C2.4985 16.0291 2.1969 15.9994 1.92281 15.8858C1.64872 15.7723 1.41446 15.58 1.24963 15.3334C1.08481 15.0867 0.996839 14.7967 0.996839 14.5C0.996839 14.2239 1.2207 14 1.49684 14C1.77298 14 1.99684 14.2239 1.99684 14.5C1.99684 14.5989 2.02616 14.6956 2.0811 14.7778C2.13605 14.86 2.21413 14.9241 2.3055 14.9619C2.39686 14.9998 2.49739 15.0097 2.59438 14.9904C2.69138 14.9711 2.78047 14.9235 2.85039 14.8536C2.92032 14.7836 2.96794 14.6945 2.98723 14.5975C3.00652 14.5006 2.99662 14.4 2.95878 14.3087C2.92094 14.2173 2.85685 14.1392 2.77462 14.0843C2.6924 14.0293 2.59573 14 2.49684 14C2.2207 14 1.99684 13.7761 1.99684 13.5C1.99684 13.2239 2.2207 13 2.49684 13C2.59573 13 2.6924 12.9707 2.77462 12.9157C2.85685 12.8608 2.92094 12.7827 2.95878 12.6913C2.99662 12.6 3.00652 12.4994 2.98723 12.4025C2.96794 12.3055 2.92032 12.2164 2.85039 12.1464C2.78047 12.0765 2.69138 12.0289 2.59438 12.0096C2.49739 11.9903 2.39686 12.0002 2.3055 12.0381C2.21413 12.0759 2.13605 12.14 2.0811 12.2222C2.02616 12.3044 1.99684 12.4011 1.99684 12.5C1.99684 12.7761 1.77298 13 1.49684 13C1.2207 13 0.996839 12.7761 0.996839 12.5C0.996839 12.2033 1.08481 11.9133 1.24963 11.6666C1.41446 11.42 1.64872 11.2277 1.92281 11.1142Z" fill="currentColor"/>
</svg>
