<svg width="16" height="16" viewBox="0 0 16 16" fill="none" xmlns="http://www.w3.org/2000/svg">
<path d="M15 2.75C15 1.7835 14.2165 1 13.25 1H9.74564C9.33142 1 8.99564 1.33579 8.99564 1.75C8.99564 2.16421 9.33142 2.5 9.74564 2.5H13.25C13.3881 2.5 13.5 2.61193 13.5 2.75V13.25C13.5 13.3881 13.3881 13.5 13.25 13.5H9.74564C9.33142 13.5 8.99564 13.8358 8.99564 14.25C8.99564 14.6642 9.33142 15 9.74564 15H13.25C14.2165 15 15 14.2165 15 13.25V2.75Z" fill="currentColor"/>
<path d="M5.46967 4.21979C5.76256 3.9269 6.23744 3.9269 6.53033 4.21979L9.78033 7.46978C10.0732 7.76268 10.0732 8.23755 9.78033 8.53044L6.53033 11.7805C6.23744 12.0733 5.76256 12.0733 5.46967 11.7805C5.17678 11.4876 5.17678 11.0127 5.46967 10.7198L7.43946 8.75L1.75 8.75C1.33579 8.75 1 8.41421 1 8C1 7.58579 1.33579 7.25 1.75 7.25L7.43922 7.25L5.46967 5.28045C5.17678 4.98756 5.17678 4.51269 5.46967 4.21979Z" fill="currentColor"/>
</svg>
