<svg width="16" height="16" viewBox="0 0 16 16" fill="none" xmlns="http://www.w3.org/2000/svg">
<path d="M0.995605 2.75C0.995605 1.7835 1.77911 1 2.74561 1H6.24997C6.66418 1 6.99997 1.33579 6.99997 1.75C6.99997 2.16421 6.66418 2.5 6.24997 2.5H2.74561C2.60753 2.5 2.49561 2.61193 2.49561 2.75V13.25C2.49561 13.3881 2.60753 13.5 2.74561 13.5H6.24997C6.66418 13.5 6.99997 13.8358 6.99997 14.25C6.99997 14.6642 6.66418 15 6.24997 15H2.74561C1.77911 15 0.995605 14.2165 0.995605 13.25V2.75Z" fill="currentColor"/>
<path d="M10.4696 4.21979C10.7625 3.9269 11.2374 3.9269 11.5303 4.21979L14.7803 7.46978C15.0732 7.76268 15.0732 8.23755 14.7803 8.53044L11.5303 11.7805C11.2374 12.0733 10.7625 12.0733 10.4696 11.7805C10.1767 11.4876 10.1767 11.0127 10.4696 10.7198L12.4394 8.75L6.74997 8.75C6.33576 8.75 5.99997 8.41421 5.99997 8C5.99997 7.58579 6.33576 7.25 6.74997 7.25L12.4392 7.25L10.4696 5.28045C10.1767 4.98756 10.1767 4.51269 10.4696 4.21979Z" fill="currentColor"/>
</svg>
