<svg width="16" height="16" viewBox="0 0 16 16" fill="none" xmlns="http://www.w3.org/2000/svg">
<path fill-rule="evenodd" clip-rule="evenodd" d="M8 8.875C8.94677 8.875 9.71429 8.0915 9.71429 7.125C9.71429 6.1585 8.94677 5.375 8 5.375C7.05323 5.375 6.28571 6.1585 6.28571 7.125C6.28571 8.0915 7.05323 8.875 8 8.875ZM3.75416 2.814C6.09801 0.395334 9.902 0.395334 12.2458 2.814C14.5847 5.22752 14.5847 9.13688 12.2458 11.5504L12.244 11.5523L11.345 12.4687L9.40746 14.4128L9.40667 14.4136C8.66709 15.1519 7.51388 15.1934 6.72741 14.5359L6.72003 14.5297L6.59991 14.4199L4.9661 12.7823L3.75415 11.5504C1.41528 9.13688 1.41529 5.22752 3.75416 2.814ZM11.0666 4.00453C9.37191 2.25572 6.62809 2.25572 4.93338 4.00453C3.27854 5.71219 3.23463 8.45714 4.80301 10.2195L4.93594 10.3625L5.38514 10.8224L7.74452 13.1944L7.79603 13.2399C7.91822 13.3295 8.08204 13.3295 8.20423 13.24L8.25594 13.1943L10.0179 11.4274L10.0202 11.4251L11.0645 10.362L11.197 10.2195C12.7654 8.45712 12.7215 5.71218 11.0666 4.00453Z" fill="currentColor"/>
</svg>
