<svg width="16" height="16" viewBox="0 0 16 16" fill="none" xmlns="http://www.w3.org/2000/svg">
<path d="M15 4C15 2.89543 14.1046 2 13 2H3C1.89543 2 1 2.89543 1 4C1 5.10457 1.89543 6 3 6H13C14.1046 6 15 5.10457 15 4Z" fill="currentColor"/>
<path d="M15 8.75C15 8.33579 14.6642 8 14.25 8C13.8358 8 13.5 8.33579 13.5 8.75V10.25H2.5V8.75C2.5 8.33579 2.16421 8 1.75 8C1.33579 8 1 8.33579 1 8.75V13.25C1 13.6642 1.33579 14 1.75 14C2.16421 14 2.5 13.6642 2.5 13.25V11.75H13.5V13.25C13.5 13.6642 13.8358 14 14.25 14C14.6642 14 15 13.6642 15 13.25V8.75Z" fill="currentColor"/>
</svg>
