<svg width="16" height="16" viewBox="0 0 16 16" fill="none" xmlns="http://www.w3.org/2000/svg">
<path d="M1 3C1 1.89543 1.89543 1 3 1H7C8.10457 1 9 1.89543 9 3V7C9 8.10457 8.10457 9 7 9H3C1.89543 9 1 8.10457 1 7V3Z" fill="currentColor"/>
<path d="M2.5 12.75H7.5V11.75C7.5 11.3358 7.83579 11 8.25 11C8.66421 11 9 11.3358 9 11.75V15.25C9 15.6642 8.66421 16 8.25 16C7.83579 16 7.5 15.6642 7.5 15.25V14.25H2.5V15.25C2.5 15.6642 2.16421 16 1.75 16C1.33579 16 1 15.6642 1 15.25V11.75C1 11.3358 1.33579 11 1.75 11C2.16421 11 2.5 11.3358 2.5 11.75V12.75Z" fill="currentColor"/>
<path d="M11 1.75C11 1.33579 11.3358 1 11.75 1H15.25C15.6642 1 16 1.33579 16 1.75C16 2.16421 15.6642 2.5 15.25 2.5H14.25V7.5H15.25C15.6642 7.5 16 7.83579 16 8.25C16 8.66421 15.6642 9 15.25 9H11.75C11.3358 9 11 8.66421 11 8.25C11 7.83579 11.3358 7.5 11.75 7.5H12.75V2.5H11.75C11.3358 2.5 11 2.16421 11 1.75Z" fill="currentColor"/>
</svg>
