<svg width="16" height="16" viewBox="0 0 16 16" fill="none" xmlns="http://www.w3.org/2000/svg">
<path d="M4 1C2.89543 1 2 1.89543 2 3V13C2 14.1046 2.89543 15 4 15C5.10457 15 6 14.1046 6 13V3C6 1.89543 5.10457 1 4 1Z" fill="currentColor"/>
<path d="M8.75 1C8.33579 1 8 1.33579 8 1.75C8 2.16421 8.33579 2.5 8.75 2.5H10.25V13.5H8.75C8.33579 13.5 8 13.8358 8 14.25C8 14.6642 8.33579 15 8.75 15H13.25C13.6642 15 14 14.6642 14 14.25C14 13.8358 13.6642 13.5 13.25 13.5H11.75V2.5H13.25C13.6642 2.5 14 2.16421 14 1.75C14 1.33579 13.6642 1 13.25 1H8.75Z" fill="currentColor"/>
</svg>
