<svg width="16" height="16" viewBox="0 0 16 16" fill="none" xmlns="http://www.w3.org/2000/svg">
<path fill-rule="evenodd" clip-rule="evenodd" d="M3 2C3 0.895431 3.89543 0 5 0H11C12.1046 0 13 0.895431 13 2V14C13 15.1046 12.1046 16 11 16H5C3.89543 16 3 15.1046 3 14V2ZM4.5 3.5C4.5 3.22386 4.72386 3 5 3H11C11.2761 3 11.5 3.22386 11.5 3.5V12.5C11.5 12.7761 11.2761 13 11 13H5C4.72386 13 4.5 12.7761 4.5 12.5V3.5ZM7.5 14C7.22386 14 7 14.2239 7 14.5C7 14.7761 7.22386 15 7.5 15H8.5C8.77614 15 9 14.7761 9 14.5C9 14.2239 8.77614 14 8.5 14H7.5Z" fill="currentColor"/>
</svg>
