<svg width="16" height="16" viewBox="0 0 16 16" fill="none" xmlns="http://www.w3.org/2000/svg">
<path d="M3 2C3 0.895431 3.89543 0 5 0H11C12.1046 0 13 0.895431 13 2V6H11.5V3.5C11.5 3.22386 11.2761 3 11 3H5C4.72386 3 4.5 3.22386 4.5 3.5V12.5C4.5 12.7761 4.72386 13 5 13H7V16H5C3.89543 16 3 15.1046 3 14V2Z" fill="currentColor"/>
<path fill-rule="evenodd" clip-rule="evenodd" d="M8 12C8 11.4477 8.44772 11 9 11H9.5V9.50149C9.5 8.11995 10.62 7 12.0015 7C13.383 7 14.503 8.11995 14.503 9.50149V11H15C15.5523 11 16 11.4477 16 12V15C16 15.5523 15.5523 16 15 16H9C8.44772 16 8 15.5523 8 15V12ZM13.003 11V9.50149C13.003 8.94838 12.5546 8.5 12.0015 8.5C11.4484 8.5 11 8.94838 11 9.50149V11H13.003Z" fill="currentColor"/>
</svg>
