<svg width="16" height="16" viewBox="0 0 16 16" fill="none" xmlns="http://www.w3.org/2000/svg">
<path d="M8.00002 0C7.5858 0 7.25002 0.335786 7.25002 0.75V2.00098L7.24303 2.00211C6.49442 2.12373 5.79025 2.42615 5.22482 2.88794C4.65822 3.35069 4.24926 3.9599 4.08108 4.6504C3.91214 5.34406 4.00123 6.06068 4.32583 6.7007C4.64846 7.33682 5.18146 7.85577 5.83246 8.21102C6.4833 8.56619 7.23624 8.75 7.99733 8.75C8.52172 8.75 9.02543 8.8776 9.44348 9.1059C9.86136 9.33411 10.1615 9.6445 10.331 9.97879C10.4984 10.3092 10.5381 10.6605 10.4562 10.9971C10.3735 11.3369 10.1633 11.6739 9.82082 11.9538C9.4772 12.2346 9.02323 12.4379 8.51104 12.5212C7.99916 12.6044 7.46971 12.5609 6.99413 12.3999C6.51822 12.2388 6.13411 11.9733 5.87573 11.6573C5.61943 11.3438 5.49735 10.9953 5.49735 10.6562C5.49735 10.242 5.16156 9.90625 4.74735 9.90625C4.33314 9.90625 3.99735 10.242 3.99735 10.6562C3.99735 11.3679 4.25649 12.0466 4.71442 12.6067C5.17027 13.1643 5.80132 13.5797 6.51313 13.8207C6.75256 13.9018 6.99938 13.9625 7.25002 14.0029V15.25C7.25002 15.6642 7.5858 16 8.00002 16C8.41423 16 8.75002 15.6642 8.75002 15.25V14.002L8.75174 14.0017C9.50044 13.88 10.2046 13.5773 10.7701 13.1152C11.3367 12.6521 11.7455 12.0426 11.9136 11.3518C12.0825 10.6579 11.9935 9.94102 11.6689 9.3007C11.3464 8.66426 10.8135 8.14496 10.1624 7.78942C9.51155 7.43397 8.75854 7.25 7.99735 7.25C7.47287 7.25 6.96908 7.12247 6.551 6.89432C6.13308 6.66626 5.83296 6.35611 5.66361 6.02221C5.49625 5.69222 5.45662 5.34145 5.53848 5.00535C5.62111 4.66608 5.83121 4.32939 6.17365 4.04972C6.51726 3.76909 6.97128 3.56592 7.48355 3.4827C7.99552 3.39953 8.52507 3.44299 9.00072 3.6039C9.4767 3.76492 9.8608 4.03021 10.1191 4.34597C10.3754 4.65916 10.4973 5.00719 10.4973 5.3457C10.4973 5.75992 10.8331 6.0957 11.2473 6.0957C11.6615 6.0957 11.9973 5.75992 11.9973 5.3457C11.9973 4.63428 11.7381 3.95594 11.2801 3.39614C10.8242 2.8389 10.1931 2.42378 9.48139 2.183C9.24371 2.1026 8.99876 2.04216 8.75002 2.00185V0.75C8.75002 0.335786 8.41423 0 8.00002 0Z" fill="currentColor"/>
</svg>
