<svg width="16" height="16" viewBox="0 0 16 16" fill="none" xmlns="http://www.w3.org/2000/svg">
<path fill-rule="evenodd" clip-rule="evenodd" d="M8.20743 2.23216C8.49343 1.93253 8.96817 1.92148 9.2678 2.20747L14.768 7.45745C14.9163 7.59897 15.0001 7.795 15.0001 7.99997C15.0001 8.20494 14.9163 8.40098 14.768 8.5425L9.26781 13.7925C8.96818 14.0785 8.49343 14.0675 8.20743 13.7678C7.92143 13.4682 7.93248 12.9935 8.23211 12.7075L12.3782 8.74997H5.75C3.95507 8.74997 2.5 10.205 2.5 12V13.25C2.5 13.6642 2.16421 14 1.75 14C1.33579 14 1 13.6642 1 13.25V12C1 9.37662 3.12664 7.24997 5.75 7.24997H12.3782L8.23211 3.29253C7.93248 3.00653 7.92143 2.53178 8.20743 2.23216Z" fill="currentColor"/>
</svg>
