<svg width="16" height="16" viewBox="0 0 16 16" fill="none" xmlns="http://www.w3.org/2000/svg">
<path d="M12.5 2.5H6.06301C6.28503 1.63739 7.06808 1 8 1H14C15.1046 1 16 1.89543 16 3V7C16 7.93192 15.3626 8.71497 14.5 8.93699V4.5C14.5 3.39543 13.6046 2.5 12.5 2.5Z" fill="currentColor"/>
<path d="M3.06301 5.5H9.5C10.6046 5.5 11.5 6.39543 11.5 7.5V11.937C12.3626 11.715 13 10.9319 13 10V6C13 4.89543 12.1046 4 11 4H5C4.06808 4 3.28503 4.63739 3.06301 5.5Z" fill="currentColor"/>
<path d="M0 9C0 7.89543 0.895431 7 2 7H8C9.10457 7 10 7.89543 10 9V13C10 14.1046 9.10457 15 8 15H2C0.89543 15 0 14.1046 0 13V9Z" fill="currentColor"/>
</svg>
