<svg width="16" height="16" viewBox="0 0 16 16" fill="none" xmlns="http://www.w3.org/2000/svg">
<path fill-rule="evenodd" clip-rule="evenodd" d="M8 0C6.41775 0 4.87103 0.469192 3.55544 1.34824C2.23985 2.22729 1.21447 3.47672 0.608967 4.93853C0.00346625 6.40034 -0.15496 8.00887 0.153721 9.56072C0.462403 11.1126 1.22433 12.538 2.34315 13.6569C3.46197 14.7757 4.88743 15.5376 6.43928 15.8463C7.99113 16.155 9.59966 15.9965 11.0615 15.391C12.5233 14.7855 13.7727 13.7602 14.6518 12.4446C15.5308 11.129 16 9.58225 16 8C15.9977 5.87896 15.1542 3.84544 13.6544 2.34564C12.1546 0.845839 10.121 0.00225883 8 0ZM8 2C9.24421 2.00189 10.4565 2.39366 11.4666 3.12023L3.1195 11.4656C2.47795 10.5703 2.09603 9.51536 2.01584 8.4169C1.93565 7.31845 2.16031 6.21918 2.66504 5.24026C3.16977 4.26135 3.93499 3.44079 4.87634 2.86905C5.81769 2.29731 6.89863 1.99657 8 2ZM8 14C6.7558 13.9981 5.54347 13.6063 4.53345 12.8798L12.8805 4.53442C13.5221 5.42965 13.904 6.48464 13.9842 7.58309C14.0644 8.68155 13.8397 9.78082 13.335 10.7597C12.8302 11.7387 12.065 12.5592 11.1237 13.1309C10.1823 13.7027 9.10137 14.0034 8 14Z" fill="currentColor"/>
</svg>
