<svg width="16" height="16" viewBox="0 0 16 16" fill="none" xmlns="http://www.w3.org/2000/svg">
<path fill-rule="evenodd" clip-rule="evenodd" d="M11.6524 8H12.3435C12.579 8 12.7826 7.8356 12.8323 7.60535L12.9989 6.83203C13.3518 6.70757 13.6744 6.51901 13.9528 6.28037L14.7015 6.52636C14.9263 6.60018 15.1722 6.50626 15.2905 6.30131L15.636 5.70281C15.7538 5.49882 15.7132 5.24029 15.5386 5.08219L14.9523 4.55119C14.9854 4.3726 15.0022 4.18818 15.0022 4C15.0022 3.81182 14.9849 3.62768 14.9518 3.44909L15.5386 2.91616C15.7127 2.75797 15.753 2.4998 15.6354 2.29607L15.2922 1.70162C15.1742 1.49735 14.9296 1.40328 14.7052 1.47591L13.9536 1.71916C13.6752 1.48052 13.3518 1.29244 12.9989 1.16798L12.8308 0.393875C12.7809 0.163988 12.5775 0 12.3422 0H11.6558C11.4199 0 11.2161 0.164833 11.1668 0.395489L11.0018 1.16771C10.6487 1.29213 10.326 1.48068 10.0474 1.71938L9.29259 1.47772C9.06853 1.40601 8.8248 1.5002 8.70718 1.70393L8.36397 2.29838C8.24603 2.50265 8.28689 2.76155 8.46199 2.91958L9.04826 3.44866C9.01509 3.62738 8.99775 3.81167 8.99775 4C8.99775 4.18833 9.01509 4.37261 9.04826 4.55133L8.46185 5.07609C8.2855 5.23391 8.24394 5.49374 8.36226 5.69869L8.70781 6.29719C8.82558 6.50118 9.06976 6.59531 9.29398 6.52316L10.047 6.28084C10.3256 6.51954 10.6487 6.70787 11.0018 6.83229L11.163 7.60246C11.2115 7.83409 11.4157 8 11.6524 8ZM12.9989 4C12.9989 4.55169 12.5517 4.99893 12 4.99893C11.4483 4.99893 11.0011 4.55169 11.0011 4C11.0011 3.44831 11.4483 3.00107 12 3.00107C12.5517 3.00107 12.9989 3.44831 12.9989 4Z" fill="currentColor"/>
<path d="M7 4C7 2.87439 7.37194 1.83566 7.99963 1C5.23838 1.0002 3 3.2387 3 6V7.67157C3 8.20201 2.78929 8.71071 2.41421 9.08579L1.87868 9.62132C1.31607 10.1839 1 10.947 1 11.7426V12C1 12.5523 1.44772 13 2 13H14C14.5523 13 15 12.5523 15 12V11.7426C15 10.947 14.6839 10.1839 14.1213 9.62132L13.5858 9.08579C13.5579 9.05791 13.5309 9.0293 13.5049 9H12C9.23858 9 7 6.76142 7 4Z" fill="currentColor"/>
<path d="M8 16C9.10457 16 10 15.1046 10 14H6C6 15.1046 6.89543 16 8 16Z" fill="currentColor"/>
</svg>
