<svg width="16" height="16" viewBox="0 0 16 16" fill="none" xmlns="http://www.w3.org/2000/svg">
<path d="M14.777 1.21952C14.9177 1.36018 14.9968 1.55101 14.9968 1.75V6.25C14.9968 6.66421 14.661 7 14.2468 7C13.8326 7 13.4968 6.66421 13.4968 6.25V3.56388L8.27902 8.78039C7.98609 9.07325 7.51121 9.07319 7.21836 8.78027C6.9255 8.48734 6.92555 8.01247 7.21848 7.71961L12.4383 2.50102L9.75042 2.50254C9.33621 2.50278 9.00023 2.16718 9 1.75297C8.99977 1.33875 9.33536 1.00278 9.74958 1.00254L14.2464 1C14.4453 0.999888 14.6362 1.07886 14.777 1.21952Z" fill="currentColor"/>
<path d="M4 2H8V3.5H4C3.72386 3.5 3.5 3.72386 3.5 4V12C3.5 12.2761 3.72386 12.5 4 12.5H12C12.2761 12.5 12.5 12.2761 12.5 12V8H14V12C14 13.1046 13.1046 14 12 14H4C2.89543 14 2 13.1046 2 12V4C2 2.89543 2.89543 2 4 2Z" fill="currentColor"/>
</svg>
