<svg width="16" height="16" viewBox="0 0 16 16" fill="none" xmlns="http://www.w3.org/2000/svg">
<path fill-rule="evenodd" clip-rule="evenodd" d="M4.50016 3.99902C4.78426 3.99902 5.04397 4.15954 5.171 4.41365L8.921 11.9146C9.10623 12.2851 8.95603 12.7356 8.58554 12.9208C8.21505 13.1061 7.76455 12.9559 7.57933 12.5854L6.53745 10.5013C6.5251 10.502 6.51267 10.5023 6.50017 10.5023H2.46243L1.421 12.5854C1.23578 12.9559 0.785283 13.1061 0.414789 12.9208C0.0442957 12.7356 -0.105896 12.2851 0.0793264 11.9146L3.82933 4.41365C3.95636 4.15954 4.21607 3.99902 4.50016 3.99902ZM4.50016 6.42625L5.788 9.00226H3.21233L4.50016 6.42625Z" fill="currentColor"/>
<path fill-rule="evenodd" clip-rule="evenodd" d="M12.5845 4.99676C11.6228 4.99676 10.7581 5.58271 10.4018 6.47593L10.3036 6.72206C10.1501 7.10679 10.3375 7.5431 10.7222 7.69659C11.107 7.85009 11.5433 7.66264 11.6968 7.27791L11.795 7.03178C11.9239 6.7087 12.2366 6.49676 12.5845 6.49676H13.2502C13.9405 6.49676 14.5002 7.05641 14.5002 7.74676V7.99607H12.5023C11.1209 7.99607 10.001 9.11592 10.001 10.4973C10.001 11.8795 11.1221 12.9997 12.5043 12.9986L14.2516 12.9972C15.2175 12.9964 16.0002 12.2131 16.0002 11.2472V7.74676C16.0002 6.22798 14.769 4.99676 13.2502 4.99676H12.5845ZM12.5023 9.49607H14.5002V11.2472C14.5002 11.3852 14.3884 11.4971 14.2504 11.4972L12.5031 11.4986C11.9498 11.499 11.501 11.0506 11.501 10.4973C11.501 9.94435 11.9493 9.49607 12.5023 9.49607Z" fill="currentColor"/>
</svg>
