<svg width="16" height="16" viewBox="0 0 16 16" fill="none" xmlns="http://www.w3.org/2000/svg">
<path d="M12.8702 2.17174C13.1031 1.82922 13.0143 1.36273 12.6717 1.12982C12.3292 0.896901 11.8627 0.985756 11.6298 1.32828L3.1298 13.8283C2.89689 14.1708 2.98574 14.6373 3.32827 14.8702C3.67079 15.1031 4.13728 15.0143 4.3702 14.6718L12.8702 2.17174Z" fill="currentColor"/>
<path fill-rule="evenodd" clip-rule="evenodd" d="M4 7.00001C5.65685 7.00001 7 5.65687 7 4.00001C7 2.34316 5.65685 1.00001 4 1.00001C2.34315 1.00001 1 2.34316 1 4.00001C1 5.65687 2.34315 7.00001 4 7.00001ZM4 5.50001C4.82843 5.50001 5.5 4.82844 5.5 4.00001C5.5 3.17159 4.82843 2.50001 4 2.50001C3.17157 2.50001 2.5 3.17159 2.5 4.00001C2.5 4.82844 3.17157 5.50001 4 5.50001Z" fill="currentColor"/>
<path fill-rule="evenodd" clip-rule="evenodd" d="M12 15C13.6569 15 15 13.6569 15 12C15 10.3432 13.6569 9.00001 12 9.00001C10.3431 9.00001 9 10.3432 9 12C9 13.6569 10.3431 15 12 15ZM12 13.5C12.8284 13.5 13.5 12.8284 13.5 12C13.5 11.1716 12.8284 10.5 12 10.5C11.1716 10.5 10.5 11.1716 10.5 12C10.5 12.8284 11.1716 13.5 12 13.5Z" fill="currentColor"/>
</svg>
