<svg width="16" height="16" viewBox="0 0 16 16" fill="none" xmlns="http://www.w3.org/2000/svg">
<path fill-rule="evenodd" clip-rule="evenodd" d="M4 0C3.44772 0 3 0.447715 3 1C3 1.55228 3.44772 2 4 2H5V5.41604C3.2341 6.1876 2 7.94968 2 10C2 10.5523 2.44772 11 3 11H7V13.5279C7 13.8384 7.07229 14.1446 7.21115 14.4223L8 16L8.78885 14.4223C8.92771 14.1446 9 13.8384 9 13.5279V11H13C13.5523 11 14 10.5523 14 10C14 7.94968 12.7659 6.1876 11 5.41604V2H12C12.5523 2 13 1.55228 13 1C13 0.447715 12.5523 0 12 0H4Z" fill="currentColor"/>
</svg>
