<svg width="16" height="16" viewBox="0 0 16 16" fill="none" xmlns="http://www.w3.org/2000/svg">
<path fill-rule="evenodd" clip-rule="evenodd" d="M5.37627 3.00251C5.69707 2.99236 5.98878 3.18746 6.10189 3.48783L8.6587 10.2777L10.8151 5.44442C10.9328 5.18046 11.1918 5.00767 11.4808 5.00025C11.7697 4.99283 12.0372 5.15212 12.1683 5.40969L13.9965 9H15.25C15.6642 9 16 9.33579 16 9.75C16 10.1642 15.6642 10.5 15.25 10.5H13.5367C13.2546 10.5 12.9964 10.3417 12.8684 10.0903L11.5447 7.49063L9.28492 12.5556C9.16102 12.8333 8.88167 13.0087 8.57769 12.9997C8.27371 12.9906 8.00529 12.7989 7.89811 12.5143L5.47354 6.07565L4.28244 9.96939C4.186 10.2847 3.89496 10.5 3.56525 10.5H0.75C0.335786 10.5 0 10.1642 0 9.75C0 9.33579 0.335786 9 0.75 9H3.01037L4.68281 3.53275C4.77669 3.22583 5.05547 3.01267 5.37627 3.00251Z" fill="currentColor"/>
</svg>
