<svg width="16" height="16" viewBox="0 0 16 16" fill="none" xmlns="http://www.w3.org/2000/svg">
<path fill-rule="evenodd" clip-rule="evenodd" d="M8 16C12.4183 16 16 12.4183 16 8C16 3.58172 12.4183 0 8 0C3.58172 0 0 3.58172 0 8C0 12.4183 3.58172 16 8 16ZM6.69073 4.45777C6.56644 4.16398 6.2699 3.98096 5.95156 4.00157C5.63322 4.02217 5.36275 4.2419 5.27737 4.54926L4.17992 8.5H2.74998C2.33577 8.5 1.99998 8.83579 1.99998 9.25C1.99998 9.66421 2.33577 10 2.74998 10H4.74998C5.08689 10 5.38245 9.77535 5.47262 9.45074L6.14712 7.02259L8.05925 11.5422C8.17794 11.8228 8.4545 12.0036 8.75908 11.9999C9.06366 11.9962 9.33575 11.8087 9.44759 11.5254L10.6476 8.48546L11.3615 9.64358C11.4981 9.8651 11.7397 10 12 10H13.25C13.6642 10 14 9.66421 14 9.25C14 8.83579 13.6642 8.5 13.25 8.5H12.4187L11.1384 6.42323C10.9894 6.18154 10.7167 6.04471 10.4339 6.06973C10.1511 6.09475 9.90662 6.27733 9.80237 6.54143L8.72594 9.2683L6.69073 4.45777Z" fill="currentColor"/>
</svg>
