<svg width="16" height="16" viewBox="0 0 16 16" fill="none" xmlns="http://www.w3.org/2000/svg">
<path fill-rule="evenodd" clip-rule="evenodd" d="M16 8C16 12.4183 12.4183 16 8 16C3.58172 16 0 12.4183 0 8C0 3.58172 3.58172 0 8 0C12.4183 0 16 3.58172 16 8ZM8 4.5C7.17164 4.5 6.50012 5.17152 6.50012 5.99988C6.50012 6.41409 6.16434 6.74988 5.75012 6.74988C5.33591 6.74988 5.00012 6.41409 5.00012 5.99988C5.00012 4.34309 6.34321 3 8 3C9.65679 3 10.9999 4.34309 10.9999 5.99988C10.9999 7.10929 10.3973 8.07708 9.50511 8.59529C9.22988 8.75515 9.04259 8.87315 8.9131 8.96603C8.82289 9.03073 8.77526 9.07312 8.75175 9.09656L8.75117 9.10854C8.74972 9.14318 8.7496 9.18382 8.7496 9.25C8.7496 9.66421 8.41381 10 7.9996 10C7.58538 10 7.2496 9.66421 7.2496 9.25L7.2495 9.2139C7.24859 8.97761 7.24707 8.58398 7.54895 8.19605C7.79414 7.88098 8.20927 7.61329 8.7517 7.29822C9.2007 7.03742 9.49988 6.55315 9.49988 5.99988C9.49988 5.17152 8.82836 4.5 8 4.5ZM8 13C8.55229 13 9 12.5523 9 12C9 11.4477 8.55229 11 8 11C7.44772 11 7 11.4477 7 12C7 12.5523 7.44772 13 8 13Z" fill="currentColor"/>
</svg>
