<svg width="16" height="16" viewBox="0 0 16 16" fill="none" xmlns="http://www.w3.org/2000/svg">
<path d="M6.50012 5.99988C6.50012 5.17152 7.17164 4.5 8 4.5C8.82836 4.5 9.49988 5.17152 9.49988 5.99988C9.49988 6.55315 9.2007 7.03742 8.7517 7.29822C8.20927 7.61329 7.79414 7.88098 7.54895 8.19605C7.24707 8.58398 7.24859 8.97761 7.2495 9.2139L7.2496 9.25C7.2496 9.66421 7.58538 10 7.9996 10C8.41381 10 8.7496 9.66421 8.7496 9.25C8.7496 9.18382 8.74972 9.14318 8.75117 9.10854L8.75175 9.09656C8.77526 9.07312 8.82289 9.03073 8.9131 8.96603C9.04259 8.87315 9.22988 8.75515 9.50511 8.59529C10.3973 8.07708 10.9999 7.10929 10.9999 5.99988C10.9999 4.34309 9.65679 3 8 3C6.34321 3 5.00012 4.34309 5.00012 5.99988C5.00012 6.41409 5.33591 6.74988 5.75012 6.74988C6.16434 6.74988 6.50012 6.41409 6.50012 5.99988Z" fill="currentColor"/>
<path d="M9 12C9 12.5523 8.55229 13 8 13C7.44772 13 7 12.5523 7 12C7 11.4477 7.44772 11 8 11C8.55229 11 9 11.4477 9 12Z" fill="currentColor"/>
<path fill-rule="evenodd" clip-rule="evenodd" d="M16 8C16 12.4183 12.4183 16 8 16C3.58172 16 0 12.4183 0 8C0 3.58172 3.58172 0 8 0C12.4183 0 16 3.58172 16 8ZM14.5 8C14.5 11.5899 11.5899 14.5 8 14.5C4.41015 14.5 1.5 11.5899 1.5 8C1.5 4.41015 4.41015 1.5 8 1.5C11.5899 1.5 14.5 4.41015 14.5 8Z" fill="currentColor"/>
</svg>
