<svg width="16" height="16" viewBox="0 0 16 16" fill="none" xmlns="http://www.w3.org/2000/svg">
<path d="M6 2.5C7.02953 2.5 7.95525 2.94452 8.59568 3.6521C9.04792 3.5525 9.51783 3.5 10 3.5C10.1127 3.5 10.2247 3.50287 10.336 3.50854C9.47271 2.00933 7.85423 1 6 1C3.23858 1 1 3.23858 1 6C1 7.85423 2.00933 9.47271 3.50854 10.336C3.50287 10.2247 3.5 10.1127 3.5 10C3.5 9.51783 3.5525 9.04792 3.6521 8.59568C2.94452 7.95525 2.5 7.02953 2.5 6C2.5 4.067 4.067 2.5 6 2.5Z" fill="currentColor"/>
<path d="M12 10C12 11.1046 11.1046 12 10 12C8.89543 12 8 11.1046 8 10C8 8.89543 8.89543 8 10 8C11.1046 8 12 8.89543 12 10Z" fill="currentColor"/>
<path fill-rule="evenodd" clip-rule="evenodd" d="M10 15C12.7614 15 15 12.7614 15 10C15 7.23858 12.7614 5 10 5C7.23858 5 5 7.23858 5 10C5 12.7614 7.23858 15 10 15ZM10 13.5C11.933 13.5 13.5 11.933 13.5 10C13.5 8.067 11.933 6.5 10 6.5C8.067 6.5 6.5 8.067 6.5 10C6.5 11.933 8.067 13.5 10 13.5Z" fill="currentColor"/>
</svg>
