<svg width="16" height="16" viewBox="0 0 16 16" fill="none" xmlns="http://www.w3.org/2000/svg">
<path d="M10.1936 3.26861C9.90068 2.97572 9.90068 2.50084 10.1936 2.20795C10.4865 1.91506 10.9613 1.91506 11.2542 2.20795L14.7803 5.73404C15.0732 6.02694 15.0732 6.50181 14.7803 6.7947L11.2542 10.3208C10.9613 10.6137 10.4865 10.6137 10.1936 10.3208C9.90068 10.0279 9.90068 9.55303 10.1936 9.26014L12.4517 7.00201L5.74899 7.00202C3.95462 7.00202 2.5 8.45664 2.5 10.251C2.5 12.0454 3.95462 13.5 5.74899 13.5H8.25C8.66421 13.5 9 13.8358 9 14.25C9 14.6642 8.66421 15 8.25 15H5.74899C3.1262 15 1 12.8738 1 10.251C1 7.62821 3.12619 5.50202 5.74899 5.50202L12.427 5.50201L10.1936 3.26861Z" fill="currentColor"/>
</svg>
