<svg width="16" height="16" viewBox="0 0 16 16" fill="none" xmlns="http://www.w3.org/2000/svg">
<path d="M14.25 1C14.6642 1 15 1.33579 15 1.75L15 5.75186C15 6.16607 14.6642 6.50186 14.25 6.50186H10.75C10.3358 6.50186 10 6.16607 10 5.75186C10 5.33764 10.3358 5.00186 10.75 5.00186H12.6119C11.6302 3.49487 9.93066 2.5 7.99999 2.5C5.18469 2.5 2.86248 4.61592 2.53866 7.34382C2.48983 7.75515 2.1168 8.04901 1.70547 8.00018C1.29415 7.95135 1.00029 7.57832 1.04911 7.167C1.46147 3.69334 4.41565 1 7.99999 1C10.2318 1 12.2186 2.04438 13.5 3.66963L13.5 1.74999C13.5 1.33578 13.8358 0.999997 14.25 1Z" fill="currentColor"/>
<path d="M13.4606 8.66197C13.1342 11.3871 10.8133 13.5 8 13.5C6.06933 13.5 4.36979 12.5051 3.38807 10.9982H5.25C5.66421 10.9982 6 10.6624 6 10.2482C6 9.83394 5.66421 9.49815 5.25 9.49815H1.75003C1.33582 9.49815 1.00004 9.83393 1.00003 10.2481L1 14.25C0.999997 14.6642 1.33578 15 1.74999 15C2.16421 15 2.5 14.6642 2.5 14.25L2.50002 12.3304C3.78136 13.9556 5.76821 15 8 15C11.5818 15 14.5343 12.3105 14.95 8.84037C14.9993 8.4291 14.7058 8.05576 14.2945 8.0065C13.8832 7.95723 13.5099 8.2507 13.4606 8.66197Z" fill="currentColor"/>
</svg>
