<svg width="16" height="16" viewBox="0 0 16 16" fill="none" xmlns="http://www.w3.org/2000/svg">
<path d="M3.48226 4.86199C4.4763 3.43362 6.1297 2.5 7.99999 2.5C11.0376 2.5 13.5 4.96243 13.5 8C13.5 11.0376 11.0376 13.5 7.99999 13.5C5.74393 13.5 3.80348 12.1415 2.9552 10.1949C2.78972 9.81514 2.34775 9.64146 1.96803 9.80693C1.5883 9.9724 1.41461 10.4144 1.58009 10.7941C2.65817 13.2681 5.12599 15 7.99999 15C11.866 15 15 11.866 15 8C15 4.13401 11.866 1 7.99999 1C5.77405 1 3.79177 2.0389 2.51009 3.65685L2.2427 1.75426C2.18506 1.34408 1.8058 1.05829 1.39562 1.11594C0.98544 1.17359 0.699653 1.55284 0.757301 1.96302L1.31399 5.92409C1.37164 6.33428 1.75089 6.62006 2.16107 6.56242L6.12215 6.00572C6.53233 5.94808 6.81812 5.56883 6.76047 5.15864C6.70282 4.74846 6.32357 4.46267 5.91339 4.52032L3.48226 4.86199Z" fill="currentColor"/>
</svg>
