<svg width="16" height="16" viewBox="0 0 16 16" fill="none" xmlns="http://www.w3.org/2000/svg">
<path d="M11.2195 3.28547C10.9267 2.99248 10.9269 2.51761 11.2198 2.22481C11.5128 1.93201 11.9877 1.93216 12.2805 2.22515L14.7805 4.72676C14.9211 4.86746 15.0001 5.05825 15 5.25716C14.9999 5.45607 14.9209 5.64681 14.7802 5.78742L12.2802 8.28581C11.9872 8.57861 11.5123 8.57846 11.2195 8.28547C10.9267 7.99248 10.9269 7.51761 11.2198 7.22481L12.4454 6H4.24727C3.28077 6 2.49727 6.7835 2.49727 7.75V7.9822C2.49727 8.39641 2.16148 8.7322 1.74727 8.7322C1.33306 8.7322 0.997269 8.39641 0.997269 7.9822V7.75C0.997269 5.95508 2.45234 4.5 4.24727 4.5H12.4332L11.2195 3.28547Z" fill="currentColor"/>
<path d="M4.7805 9.78016C5.0733 9.48717 5.07315 9.0123 4.78016 8.7195C4.48717 8.4267 4.0123 8.42685 3.7195 8.71984L1.2195 11.2214C1.07889 11.3621 0.999936 11.5529 1 11.7519C1.00006 11.9508 1.07914 12.1415 1.21984 12.2821L3.71984 14.7805C4.01283 15.0733 4.4877 15.0731 4.7805 14.7802C5.0733 14.4872 5.07315 14.0123 4.78016 13.7195L3.55987 12.5H11.75C13.5449 12.5 15 11.0449 15 9.25V9.0178C15 8.60359 14.6642 8.2678 14.25 8.2678C13.8358 8.2678 13.5 8.60359 13.5 9.0178V9.25C13.5 10.2165 12.7165 11 11.75 11H3.56145L4.7805 9.78016Z" fill="currentColor"/>
</svg>
