<svg width="16" height="16" viewBox="0 0 16 16" fill="none" xmlns="http://www.w3.org/2000/svg">
<path d="M5.77999 2.21353C6.07307 2.50623 6.07338 2.98111 5.78067 3.27419L1.81032 7.24966L5.78033 11.2197C6.07322 11.5126 6.07322 11.9874 5.78033 12.2803C5.48744 12.5732 5.01256 12.5732 4.71967 12.2803L0.21967 7.78033C-0.07309 7.48757 -0.0732428 7.01296 0.219329 6.72001L4.71933 2.21421C5.01203 1.92113 5.48691 1.92083 5.77999 2.21353Z" fill="currentColor"/>
<path d="M9.77999 2.21353C10.0731 2.50623 10.0734 2.98111 9.78067 3.27419L6.55901 6.5H11.25C13.8734 6.5 16 8.62665 16 11.25V14.25C16 14.6642 15.6642 15 15.25 15C14.8358 15 14.5 14.6642 14.5 14.25V11.25C14.5 9.45508 13.0449 8 11.25 8H6.56066L9.78033 11.2197C10.0732 11.5126 10.0732 11.9874 9.78033 12.2803C9.48744 12.5732 9.01256 12.5732 8.71967 12.2803L4.21967 7.78033C3.92691 7.48757 3.92676 7.01296 4.21933 6.72001L8.71933 2.21421C9.01203 1.92113 9.48691 1.92083 9.77999 2.21353Z" fill="currentColor"/>
</svg>
