<svg width="16" height="16" viewBox="0 0 16 16" fill="none" xmlns="http://www.w3.org/2000/svg">
<path d="M4.62719 3.2495H11.2592C13.7722 3.2495 15.8342 5.2095 15.9992 7.6805C16.0102 7.8525 15.8642 7.9995 15.6922 7.9995H14.7902C14.6322 7.9995 14.5112 7.8755 14.4982 7.7185C14.3542 6.0575 12.9572 4.7495 11.2592 4.7495H4.62719L6.91019 6.8975C7.03019 7.0175 7.03019 7.2095 6.91019 7.3275L6.32219 7.9105C6.20219 8.0285 6.00919 8.0285 5.88919 7.9105L2.14919 4.3565C2.05019 4.2585 2.00019 4.1295 2.00019 3.9995C2.00019 3.8695 2.05019 3.7405 2.14919 3.6415L5.88919 0.0885C6.00919 -0.0295 6.20219 -0.0295 6.32219 0.0885L6.91019 0.6715C7.03019 0.7895 7.03019 0.9815 6.91019 1.1015L4.62719 3.2495Z" fill="currentColor"/>
<path d="M9.67669 8.0884C9.79669 7.9704 9.99069 7.9704 10.1107 8.0884L13.8497 11.6424C13.9497 11.7404 13.9997 11.8694 13.9997 11.9994C13.9997 12.1294 13.9497 12.2584 13.8497 12.3584L10.1107 15.9104C9.99069 16.0284 9.79669 16.0284 9.67669 15.9104L9.08969 15.3274C8.96969 15.2094 8.96969 15.0174 9.08969 14.8984L11.3717 12.7494H4.73969C2.22769 12.7494 0.165691 10.7894 0.000690893 8.3184C-0.0113091 8.1474 0.134691 7.9994 0.307691 7.9994H1.20969C1.36669 7.9994 1.48869 8.1234 1.50169 8.2804C1.64569 9.9424 3.04269 11.2494 4.73969 11.2494H11.3717L9.08969 9.1014C8.96969 8.9824 8.96969 8.7894 9.08969 8.6714L9.67669 8.0884Z" fill="currentColor"/>
</svg>
