<svg width="16" height="16" viewBox="0 0 16 16" fill="none" xmlns="http://www.w3.org/2000/svg">
<path d="M6.7805 3.28016C7.0733 2.98717 7.07315 2.5123 6.78016 2.2195C6.48717 1.9267 6.0123 1.92685 5.7195 2.21984L1.2195 6.72274C1.07889 6.86344 0.999936 7.05423 1 7.25314C1.00006 7.45205 1.07914 7.64279 1.21984 7.7834L5.71984 12.2805C6.01283 12.5733 6.4877 12.5731 6.7805 12.2802C7.0733 11.9872 7.07315 11.5123 6.78016 11.2195L3.55859 8H9.25C11.0449 8 12.5 9.45508 12.5 11.25V14.25C12.5 14.6642 12.8358 15 13.25 15C13.6642 15 14 14.6642 14 14.25V11.25C14 8.62665 11.8734 6.5 9.25 6.5H3.56273L6.7805 3.28016Z" fill="currentColor"/>
</svg>
