<svg width="16" height="16" viewBox="0 0 16 16" fill="none" xmlns="http://www.w3.org/2000/svg">
<path d="M5.71768 1.21968C5.42479 1.51257 5.4248 1.98745 5.71769 2.28034L6.46017 3.0228C3.39791 3.2948 0.99704 5.86702 0.99704 9C0.99704 12.3142 3.68377 15.001 6.99802 15.001C7.55016 15.001 8.10377 14.9238 8.64293 14.7701C9.04127 14.6565 9.27213 14.2416 9.15858 13.8432C9.04502 13.4449 8.63004 13.214 8.2317 13.3276C7.18539 13.6258 6.06644 13.5349 5.08199 13.0717C5.06637 13.0643 5.05062 13.0576 5.03477 13.0514C3.53261 12.3221 2.49704 10.782 2.49704 9C2.49704 6.71735 4.19625 4.83158 6.39877 4.53857L5.71768 5.21968C5.42479 5.51257 5.4248 5.98745 5.71769 6.28034C6.01059 6.57323 6.48546 6.57322 6.77835 6.28032L8.77835 4.28028C8.919 4.13962 8.99802 3.94885 8.99802 3.74994C8.99801 3.55103 8.91899 3.36027 8.77834 3.21961L6.77834 1.21966C6.48544 0.926774 6.01057 0.92678 5.71768 1.21968Z" fill="currentColor"/>
<path fill-rule="evenodd" clip-rule="evenodd" d="M10.2887 5.29139C10.6792 4.90086 11.3123 4.90086 11.7029 5.29139L14.7081 8.29659C15.0986 8.68712 15.0986 9.32028 14.7081 9.71081L11.7029 12.716C11.3123 13.1065 10.6792 13.1065 10.2887 12.716L7.28345 9.71081C6.89293 9.32028 6.89293 8.68712 7.28345 8.29659L10.2887 5.29139ZM10.9958 6.7056L13.2939 9.0037L10.9958 11.3018L8.69767 9.0037L10.9958 6.7056Z" fill="currentColor"/>
</svg>
