<svg width="16" height="16" viewBox="0 0 16 16" fill="none" xmlns="http://www.w3.org/2000/svg">
<path d="M10.2803 1.21968C10.5732 1.51257 10.5732 1.98745 10.2803 2.28034L9.53784 3.0228C12.6001 3.2948 15.001 5.86702 15.001 9C15.001 12.3142 12.3142 15.001 8.99999 15.001C8.44785 15.001 7.89424 14.9238 7.35508 14.7701C6.95674 14.6565 6.72587 14.2416 6.83943 13.8432C6.95299 13.4449 7.36797 13.214 7.76631 13.3276C8.81262 13.6258 9.93157 13.5349 10.916 13.0717C10.9316 13.0643 10.9474 13.0576 10.9632 13.0514C12.4654 12.3221 13.501 10.782 13.501 9C13.501 6.71735 11.8018 4.83158 9.59924 4.53857L10.2803 5.21968C10.5732 5.51257 10.5732 5.98745 10.2803 6.28034C9.98742 6.57323 9.51255 6.57322 9.21966 6.28032L7.21966 4.28028C7.07901 4.13962 6.99999 3.94885 6.99999 3.74994C7 3.55103 7.07902 3.36027 7.21967 3.21961L9.21967 1.21966C9.51257 0.926774 9.98744 0.92678 10.2803 1.21968Z" fill="currentColor"/>
<path fill-rule="evenodd" clip-rule="evenodd" d="M5.70935 5.29139C5.31883 4.90086 4.68566 4.90086 4.29514 5.29139L1.28993 8.29659C0.899409 8.68712 0.899409 9.32028 1.28993 9.71081L4.29514 12.716C4.68566 13.1065 5.31883 13.1065 5.70935 12.716L8.71455 9.71081C9.10508 9.32028 9.10508 8.68712 8.71455 8.29659L5.70935 5.29139ZM5.00224 6.7056L2.70415 9.0037L5.00224 11.3018L7.30034 9.0037L5.00224 6.7056Z" fill="currentColor"/>
</svg>
