<svg width="16" height="16" viewBox="0 0 16 16" fill="none" xmlns="http://www.w3.org/2000/svg">
<path d="M8 9C8.55228 9 9 8.55228 9 8C9 7.44772 8.55228 7 8 7C7.44772 7 7 7.44772 7 8C7 8.55228 7.44772 9 8 9Z" fill="currentColor"/>
<path fill-rule="evenodd" clip-rule="evenodd" d="M2 4H14V6H12.5C12.2239 6 12 6.22386 12 6.5C12 6.77614 12.2239 7 12.5 7H14V9H12.5C12.2239 9 12 9.22386 12 9.5C12 9.77614 12.2239 10 12.5 10H14V12H2V4ZM8 10.5C9.38071 10.5 10.5 9.38071 10.5 8C10.5 6.61929 9.38071 5.5 8 5.5C6.61929 5.5 5.5 6.61929 5.5 8C5.5 9.38071 6.61929 10.5 8 10.5ZM3.5 6C3.22386 6 3 6.22386 3 6.5V9.5C3 9.77614 3.22386 10 3.5 10C3.77614 10 4 9.77614 4 9.5V6.5C4 6.22386 3.77614 6 3.5 6Z" fill="currentColor"/>
<path fill-rule="evenodd" clip-rule="evenodd" d="M2 2C0.895431 2 0 2.89543 0 4V12C0 13.1046 0.895431 14 2 14C2 14.5523 2.44772 15 3 15H5C5.55228 15 6 14.5523 6 14H10C10 14.5523 10.4477 15 11 15H13C13.5523 15 14 14.5523 14 14C15.1046 14 16 13.1046 16 12V4C16 2.89543 15.1046 2 14 2H2ZM14 13C14.5523 13 15 12.5523 15 12V4C15 3.44772 14.5523 3 14 3H2C1.44772 3 1 3.44772 1 4V12C1 12.5523 1.44772 13 2 13H14Z" fill="currentColor"/>
</svg>
