<svg width="16" height="16" viewBox="0 0 16 16" fill="none" xmlns="http://www.w3.org/2000/svg">
<path fill-rule="evenodd" clip-rule="evenodd" d="M2.75 0C2.33579 0 2 0.335786 2 0.75C2 1.16421 2.33579 1.5 2.75 1.5H3V3.08202C3 4.52961 3.66012 5.8982 4.793 6.79936L5.02816 6.98642C5.32628 7.22357 5.5 7.58372 5.5 7.96467V8.03565C5.5 8.41491 5.32781 8.77366 5.03192 9.0109L4.7787 9.21392C3.6543 10.1154 3 11.4787 3 12.9198V14.5H2.75C2.33579 14.5 2 14.8358 2 15.25C2 15.6642 2.33579 16 2.75 16H13.25C13.6642 16 14 15.6642 14 15.25C14 14.8358 13.6642 14.5 13.25 14.5H13V12.4386C13 11.3017 12.4843 10.2263 11.5978 9.51451L10.971 9.01121C10.6755 8.77396 10.5036 8.41547 10.5036 8.03652V7.9638C10.5036 7.58316 10.677 7.22327 10.9748 6.9861L11.5865 6.49876C12.4797 5.78726 13 4.70756 13 3.56565V1.5H13.25C13.6642 1.5 14 1.16421 14 0.75C14 0.335786 13.6642 0 13.25 0H2.75ZM4.5 3.08202V1.5H11.5V3.56565C11.5 4.2508 11.1878 4.89861 10.6519 5.32551L10.0401 5.81286C9.38516 6.33462 9.00361 7.1264 9.00361 7.9638V8.03652C9.00361 8.87021 9.3818 9.65888 10.0319 10.1808L10.6587 10.6841C10.7772 10.7793 10.8846 10.8852 10.98 11H5.12763C5.29446 10.7721 5.49197 10.5646 5.71701 10.3842L5.97023 10.1812C6.62119 9.65926 7 8.87002 7 8.03565V7.96467C7 7.12659 6.61783 6.33425 5.96195 5.81252L5.72679 5.62546C4.95166 5.00888 4.5 4.07248 4.5 3.08202Z" fill="currentColor"/>
</svg>
