<svg width="16" height="16" viewBox="0 0 16 16" fill="none" xmlns="http://www.w3.org/2000/svg">
<path fill-rule="evenodd" clip-rule="evenodd" d="M7.25 0.75C7.25 0.335786 7.58579 0 8 0C8.41421 0 8.75 0.335786 8.75 0.75V2.04642C11.464 2.38486 13.6151 4.53596 13.9536 7.25H15.25C15.6642 7.25 16 7.58579 16 8C16 8.41421 15.6642 8.75 15.25 8.75H13.9536C13.6151 11.464 11.464 13.6151 8.75 13.9536V15.25C8.75 15.6642 8.41421 16 8 16C7.58579 16 7.25 15.6642 7.25 15.25V13.9536C4.53596 13.6151 2.38486 11.464 2.04642 8.75H0.75C0.335786 8.75 0 8.41421 0 8C0 7.58579 0.335786 7.25 0.75 7.25H2.04642C2.38486 4.53596 4.53596 2.38486 7.25 2.04642V0.75ZM12.4378 7.25H10.75C10.3358 7.25 10 7.58579 10 8C10 8.41421 10.3358 8.75 10.75 8.75H12.4378C12.1216 10.6344 10.6344 12.1216 8.75 12.4378V10.75C8.75 10.3358 8.41421 10 8 10C7.58579 10 7.25 10.3358 7.25 10.75V12.4378C5.36562 12.1216 3.87836 10.6344 3.56222 8.75H5.25C5.66421 8.75 6 8.41421 6 8C6 7.58579 5.66421 7.25 5.25 7.25H3.56222C3.87836 5.36562 5.36562 3.87836 7.25 3.56222V5.25C7.25 5.66421 7.58579 6 8 6C8.41421 6 8.75 5.66421 8.75 5.25V3.56222C10.6344 3.87836 12.1216 5.36562 12.4378 7.25Z" fill="currentColor"/>
</svg>
