<svg width="16" height="16" viewBox="0 0 16 16" fill="none" xmlns="http://www.w3.org/2000/svg">
<path d="M1 1.75C1 1.33579 1.33579 1 1.75 1H9.25C9.66421 1 10 1.33579 10 1.75C10 2.16421 9.66421 2.5 9.25 2.5H1.75C1.33579 2.5 1 2.16421 1 1.75Z" fill="currentColor"/>
<path fill-rule="evenodd" clip-rule="evenodd" d="M12.8958 14.3099C12.202 14.7471 11.3806 15 10.5 15C8.01472 15 6 12.9853 6 10.5C6 8.01472 8.01472 6 10.5 6C12.9853 6 15 8.01472 15 10.5C15 11.3805 14.7471 12.202 14.31 12.8957L15.7071 14.2928C16.0976 14.6834 16.0976 15.3165 15.7071 15.707C15.3166 16.0976 14.6834 16.0976 14.2929 15.707L12.8958 14.3099ZM13.5 10.5C13.5 12.1569 12.1569 13.5 10.5 13.5C8.84315 13.5 7.5 12.1569 7.5 10.5C7.5 8.84315 8.84315 7.5 10.5 7.5C12.1569 7.5 13.5 8.84315 13.5 10.5Z" fill="currentColor"/>
<path d="M1.75 4.00201C1.33579 4.00201 1 4.3378 1 4.75201C1 5.16623 1.33579 5.50201 1.75 5.50201H6.25C6.66421 5.50201 7 5.16623 7 4.75201C7 4.3378 6.66421 4.00201 6.25 4.00201H1.75Z" fill="currentColor"/>
<path d="M1 7.75403C1 7.33981 1.33579 7.00403 1.75 7.00403H4.24933C4.66354 7.00403 4.99933 7.33981 4.99933 7.75403C4.99933 8.16824 4.66354 8.50403 4.24933 8.50403H1.75C1.33579 8.50403 1 8.16824 1 7.75403Z" fill="currentColor"/>
<path d="M1.75 10.006C1.33579 10.006 1 10.3418 1 10.756C1 11.1703 1.33579 11.506 1.75 11.506H4.25C4.66421 11.506 5 11.1703 5 10.756C5 10.3418 4.66421 10.006 4.25 10.006H1.75Z" fill="currentColor"/>
</svg>
