<svg width="16" height="16" viewBox="0 0 16 16" fill="none" xmlns="http://www.w3.org/2000/svg">
<path d="M11.4697 2.22162C11.7626 1.92873 12.2374 1.92873 12.5303 2.22162L14.4971 4.18838C14.5199 4.20857 14.5414 4.23012 14.5616 4.25291L14.7784 4.46967C15.0713 4.76256 15.0713 5.23744 14.7784 5.53033L12.5303 7.77838C12.2374 8.07127 11.7626 8.07127 11.4697 7.77838C11.1768 7.48548 11.1768 7.01061 11.4697 6.71772L12.6874 5.5H11.75C9.95508 5.5 8.5 6.95508 8.5 8.75V9.24884C8.5 9.66306 8.16421 9.99884 7.75 9.99884C7.33579 9.99884 7 9.66306 7 9.24884V8.75C7 6.12665 9.12665 4 11.75 4H12.1874L11.4697 3.28228C11.1768 2.98939 11.1768 2.51452 11.4697 2.22162Z" fill="currentColor"/>
<path d="M4 3H7V4.5H4C3.72386 4.5 3.5 4.72386 3.5 5V13C3.5 13.2761 3.72386 13.5 4 13.5H12C12.2761 13.5 12.5 13.2761 12.5 13V9H14V13C14 14.1046 13.1046 15 12 15H4C2.89543 15 2 14.1046 2 13V5C2 3.89543 2.89543 3 4 3Z" fill="currentColor"/>
</svg>
