<svg width="16" height="16" viewBox="0 0 16 16" fill="none" xmlns="http://www.w3.org/2000/svg">
<path d="M8.30012 2.30013L13.7058 7.70572C14.0963 8.09623 14.7294 8.09624 15.1199 7.70572L15.7057 7.11997C16.0963 6.72945 16.0963 6.09628 15.7057 5.70575L10.3001 0.300098C9.90961 -0.0904329 9.27643 -0.0904295 8.88591 0.300106L8.30011 0.885926C7.90959 1.27645 7.9096 1.90961 8.30012 2.30013Z" fill="currentColor"/>
<path d="M7.03888 4.10331L2.12385 6.43804C1.51873 6.72548 1.09772 7.29679 1.00236 7.95989L0.0104525 14.8574C-0.0103634 15.0021 0.000580844 15.1424 0.0373198 15.2721L4.15159 11.1579C4.0545 10.9593 4 10.736 4 10.5C4 9.67157 4.67157 9 5.5 9C6.32843 9 7 9.67157 7 10.5C7 11.3284 6.32843 12 5.5 12C5.27285 12 5.0575 11.9495 4.86455 11.8591L0.753981 15.9697C0.875833 16.0006 1.00641 16.0089 1.14092 15.9898L8.08317 15.0036C8.75283 14.9085 9.32904 14.4813 9.61473 13.8682L11.9042 8.95485C12.0818 8.5737 12.002 8.12216 11.7045 7.82499L8.17467 4.29908C7.87553 4.00027 7.42079 3.92189 7.03888 4.10331Z" fill="currentColor"/>
</svg>
