<svg width="16" height="16" viewBox="0 0 16 16" fill="none" xmlns="http://www.w3.org/2000/svg">
<path d="M6.5405 2.04958L9.95474 5.4679C10.3468 5.86044 10.9835 5.85877 11.3735 5.46418L11.7124 5.12128C12.0989 4.73027 12.0972 4.10062 11.7087 3.71164L8.29447 0.293317C7.9024 -0.0992236 7.26571 -0.0975527 6.87571 0.29704L6.5368 0.639933C6.15034 1.03094 6.15199 1.6606 6.5405 2.04958Z" fill="currentColor"/>
<path d="M5.28474 3.08556L1.52369 4.68942C1.21056 4.82296 0.986861 5.10661 0.930001 5.44225L0.0170613 10.8313C-0.00760046 10.9768 0.000128783 11.1183 0.0341802 11.2495L3.89686 7.39649C4.09236 7.20147 4.40895 7.20187 4.60396 7.39737C4.79898 7.59288 4.79859 7.90946 4.60308 8.10448L0.735237 11.9627C0.871895 12.0007 1.02 12.0101 1.17256 11.9838L6.54509 11.0596C6.87727 11.0024 7.15832 10.7818 7.29267 10.4726L8.91864 6.73149C9.08228 6.35498 8.99918 5.91671 8.70907 5.62624L6.38457 3.29876C6.09591 3.00973 5.66049 2.92533 5.28474 3.08556Z" fill="currentColor"/>
<path d="M13.5 10.2505C13.5 9.83628 13.1642 9.50049 12.75 9.50049C12.3358 9.50049 12 9.83628 12 10.2505V12.0005H10.25C9.83579 12.0005 9.5 12.3363 9.5 12.7505C9.5 13.1647 9.83579 13.5005 10.25 13.5005H12V15.2505C12 15.6647 12.3358 16.0005 12.75 16.0005C13.1642 16.0005 13.5 15.6647 13.5 15.2505V13.5005H15.25C15.6642 13.5005 16 13.1647 16 12.7505C16 12.3363 15.6642 12.0005 15.25 12.0005H13.5V10.2505Z" fill="currentColor"/>
</svg>
