<svg width="16" height="16" viewBox="0 0 16 16" fill="none" xmlns="http://www.w3.org/2000/svg">
<path d="M6.5405 2.04958L9.95474 5.4679C10.3468 5.86044 10.9835 5.85877 11.3735 5.46418L11.7124 5.12128C12.0989 4.73027 12.0972 4.10062 11.7087 3.71164L8.29447 0.293317C7.9024 -0.0992236 7.26571 -0.0975527 6.87571 0.29704L6.5368 0.639933C6.15034 1.03094 6.15199 1.6606 6.5405 2.04958Z" fill="currentColor"/>
<path d="M5.28474 3.08556L1.52369 4.68942C1.21056 4.82296 0.986861 5.10661 0.930001 5.44225L0.0170613 10.8313C-0.00760046 10.9768 0.000128783 11.1183 0.0341802 11.2495L3.89686 7.39649C4.09236 7.20147 4.40895 7.20187 4.60396 7.39737C4.79898 7.59288 4.79859 7.90946 4.60308 8.10448L0.735237 11.9627C0.871895 12.0007 1.02 12.0101 1.17256 11.9838L6.54509 11.0596C6.87727 11.0024 7.15832 10.7818 7.29267 10.4726L8.91864 6.73149C9.08228 6.35498 8.99918 5.91671 8.70907 5.62624L6.38457 3.29876C6.09591 3.00973 5.66049 2.92533 5.28474 3.08556Z" fill="currentColor"/>
<path fill-rule="evenodd" clip-rule="evenodd" d="M11.9524 16.0005H12.6435C12.8791 16.0005 13.0827 15.8361 13.1323 15.6058L13.299 14.8325C13.6518 14.7081 13.9744 14.5195 14.2528 14.2809L15.0015 14.5269C15.2264 14.6007 15.4722 14.5067 15.5905 14.3018L15.936 13.7033C16.0538 13.4993 16.0132 13.2408 15.8387 13.0827L15.2523 12.5517C15.2854 12.3731 15.3022 12.1887 15.3022 12.0005C15.3022 11.8123 15.2849 11.6282 15.2518 11.4496L15.8386 10.9166C16.0127 10.7585 16.053 10.5003 15.9354 10.2966L15.5922 9.70211C15.4742 9.49784 15.2296 9.40377 15.0052 9.4764L14.2537 9.71965C13.9752 9.48101 13.6518 9.29293 13.299 9.16847L13.1308 8.39436C13.0809 8.16448 12.8775 8.00049 12.6422 8.00049H11.9558C11.7199 8.00049 11.5161 8.16532 11.4668 8.39598L11.3018 9.1682C10.9488 9.29262 10.626 9.48117 10.3474 9.71987L9.5926 9.4782C9.36855 9.4065 9.12482 9.50068 9.0072 9.70441L8.66399 10.2989C8.54605 10.5031 8.58691 10.762 8.76201 10.9201L9.34828 11.4492C9.31511 11.6279 9.29777 11.8122 9.29777 12.0005C9.29777 12.1888 9.31511 12.3731 9.34828 12.5518L8.76187 13.0766C8.58552 13.2344 8.54396 13.4942 8.66228 13.6992L9.00783 14.2977C9.1256 14.5017 9.36977 14.5958 9.594 14.5236L10.347 14.2813C10.6256 14.52 10.9488 14.7084 11.3018 14.8328L11.463 15.6029C11.5115 15.8346 11.7158 16.0005 11.9524 16.0005ZM13.299 12.0005C13.299 12.5522 12.8517 12.9994 12.3 12.9994C11.7483 12.9994 11.3011 12.5522 11.3011 12.0005C11.3011 11.4488 11.7483 11.0016 12.3 11.0016C12.8517 11.0016 13.299 11.4488 13.299 12.0005Z" fill="currentColor"/>
</svg>
