<svg width="16" height="16" viewBox="0 0 16 16" fill="none" xmlns="http://www.w3.org/2000/svg">
<path fill-rule="evenodd" clip-rule="evenodd" d="M1 3C1 1.89543 1.89543 1 3 1H13C14.1046 1 15 1.89543 15 3V13C15 14.1046 14.1046 15 13 15H3C1.89543 15 1 14.1046 1 13V3ZM3 3.75C3 3.33579 3.33579 3 3.75 3H6.25271C6.66692 3 7.00271 3.33579 7.00271 3.75C7.00271 4.16421 6.66692 4.5 6.25271 4.5H4.5V6.25C4.5 6.66421 4.16421 7 3.75 7C3.33579 7 3 6.66421 3 6.25V3.75ZM3.75 13C3.33579 13 3 12.6642 3 12.25V9.75165C3 9.33743 3.33579 9.00165 3.75 9.00165C4.16421 9.00165 4.5 9.33743 4.5 9.75165V11.5H6.25269C6.6669 11.5 7.00269 11.8358 7.00269 12.25C7.00269 12.6642 6.6669 13 6.25269 13H3.75ZM13 3.75V6.25C13 6.66421 12.6642 7 12.25 7C11.8358 7 11.5 6.66421 11.5 6.25V4.5H9.74615C9.33194 4.5 8.99615 4.16421 8.99615 3.75C8.99615 3.33579 9.33194 3 9.74615 3H12.25C12.6642 3 13 3.33579 13 3.75ZM12.25 13H9.74615C9.33194 13 8.99615 12.6642 8.99615 12.25C8.99615 11.8358 9.33194 11.5 9.74615 11.5H11.5V9.75165C11.5 9.33743 11.8358 9.00165 12.25 9.00165C12.6642 9.00165 13 9.33743 13 9.75165V12.25C13 12.6642 12.6642 13 12.25 13Z" fill="currentColor"/>
</svg>
