<svg width="16" height="17" viewBox="0 0 16 17" fill="none" xmlns="http://www.w3.org/2000/svg">
<path d="M9.75113 0C9.33692 0 9.00113 0.335786 9.00113 0.75C9.00113 1.16421 9.33692 1.5 9.75113 1.5H12.6681L9.17047 5.77842C8.98709 6.00274 8.94931 6.31262 9.07344 6.57442C9.19757 6.83622 9.46139 7.00311 9.75113 7.00311H14.25C14.6642 7.00311 15 6.66733 15 6.25311C15 5.8389 14.6642 5.50311 14.25 5.50311H11.333L14.8307 1.2247C15.014 1.00038 15.0518 0.690494 14.9277 0.428692C14.8036 0.166889 14.5397 0 14.25 0H9.75113Z" fill="currentColor"/>
<path d="M2.75 8C3.16421 8 3.5 8.33579 3.5 8.75L3.5 13.489L4.24451 12.7445C4.5374 12.4516 5.01228 12.4516 5.30517 12.7445C5.59806 13.0374 5.59807 13.5123 5.30517 13.8052L3.30518 15.8052C3.16453 15.9458 2.97377 16.0248 2.77485 16.0248C2.57594 16.0248 2.38518 15.9458 2.24452 15.8052L0.244513 13.8052C-0.0483814 13.5123 -0.0483826 13.0374 0.24451 12.7445C0.537402 12.4516 1.01228 12.4516 1.30517 12.7445L2 13.4393L2 8.75C2 8.33579 2.33579 8 2.75 8Z" fill="currentColor"/>
<path fill-rule="evenodd" clip-rule="evenodd" d="M11.7599 9C12.0541 9.0004 12.3208 9.17266 12.4421 9.44057L14.9332 14.9406C15.1041 15.3179 14.9367 15.7623 14.5594 15.9332C14.1821 16.1041 13.7377 15.9367 13.5668 15.5594L13.3231 15.0213C13.299 15.0237 13.2747 15.0248 13.25 15.0248H10.1771L9.93236 15.5613C9.76045 15.9381 9.31558 16.1043 8.93873 15.9324C8.56187 15.7604 8.39573 15.3156 8.56764 14.9387L11.0766 9.43873C11.1986 9.17115 11.4658 8.9996 11.7599 9ZM10.8613 13.5248H12.6453L11.7565 11.5625L10.8613 13.5248Z" fill="currentColor"/>
</svg>
