<svg width="16" height="17" viewBox="0 0 16 17" fill="none" xmlns="http://www.w3.org/2000/svg">
<path d="M8.00026 1C7.44797 1 7.00026 1.44772 7.00026 2C7.00026 2.55228 7.44797 3 8.00026 3H9.00026C9.55254 3 10.0003 2.55228 10.0003 2C10.0003 1.44772 9.55254 1 9.00026 1H8.00026Z" fill="currentColor"/>
<path d="M7.00026 6C7.00026 5.44772 7.44797 5 8.00026 5L11 5C11.5523 5 12 5.44772 12 6C12 6.55229 11.5523 7 11 7L8.00026 7C7.44797 7 7.00026 6.55228 7.00026 6Z" fill="currentColor"/>
<path d="M8.00026 9C7.44797 9 7.00026 9.44771 7.00026 10C7.00026 10.5523 7.44797 11 8.00026 11H13C13.5523 11 14 10.5523 14 10C14 9.44772 13.5523 9 13 9H8.00026Z" fill="currentColor"/>
<path d="M8.00026 13C7.44797 13 7.00026 13.4477 7.00026 14C7.00026 14.5523 7.44797 15 8.00026 15L15 15C15.5523 15 16 14.5523 16 14C16 13.4477 15.5523 13 15 13L8.00026 13Z" fill="currentColor"/>
<path d="M2.75 8C3.16421 8 3.5 8.33579 3.5 8.75L3.5 13.489L4.24451 12.7445C4.5374 12.4516 5.01228 12.4516 5.30517 12.7445C5.59806 13.0374 5.59807 13.5123 5.30517 13.8052L3.30518 15.8052C3.16453 15.9458 2.97377 16.0248 2.77485 16.0248C2.57594 16.0248 2.38518 15.9458 2.24452 15.8052L2.22199 15.7826C2.22044 15.7811 2.2189 15.7796 2.21737 15.778L0.244513 13.8052C-0.0483814 13.5123 -0.0483826 13.0374 0.24451 12.7445C0.537402 12.4516 1.01228 12.4516 1.30517 12.7445L2 13.4393L2 8.75C2 8.33579 2.33579 8 2.75 8Z" fill="currentColor"/>
</svg>
