<svg width="16" height="16" viewBox="0 0 16 16" fill="none" xmlns="http://www.w3.org/2000/svg">
<path d="M13 0.750183C13 0.48015 12.8548 0.230963 12.6199 0.0977683C12.385 -0.0354263 12.0967 -0.0320632 11.8649 0.106573L9.36495 1.60225C9.00949 1.8149 8.89373 2.27545 9.10639 2.63091C9.31905 2.98636 9.7796 3.10212 10.1351 2.88946L11.5 2.07286V6.24524C11.5 6.65945 11.8358 6.99524 12.25 6.99524C12.6642 6.99524 13 6.65945 13 6.24524V0.750183Z" fill="currentColor"/>
<path fill-rule="evenodd" clip-rule="evenodd" d="M11.5 8C12.8807 8 14 9.11929 14 10.5V13.5C14 14.8807 12.8807 16 11.5 16C10.3672 16 9.34517 15.2472 9.03729 14.2162C8.91876 13.8193 9.14443 13.4014 9.54132 13.2829C9.93822 13.1644 10.356 13.39 10.4746 13.7869C10.5979 14.2001 11.0484 14.5 11.5 14.5C12.0523 14.5 12.5 14.0523 12.5 13.5V12.792C12.1938 12.9258 11.8556 13 11.5 13C10.1193 13 9 11.8807 9 10.5C9 9.11929 10.1193 8 11.5 8ZM11.5 9.5C10.9477 9.5 10.5 9.94772 10.5 10.5C10.5 11.0523 10.9477 11.5 11.5 11.5C12.0523 11.5 12.5 11.0523 12.5 10.5C12.5 9.94772 12.0523 9.5 11.5 9.5Z" fill="currentColor"/>
<path d="M2.75 8C3.16421 8 3.5 8.33579 3.5 8.75L3.5 13.4393L4.21967 12.7197C4.51256 12.4268 4.98743 12.4268 5.28033 12.7197C5.57322 13.0126 5.57322 13.4874 5.28033 13.7803L3.28034 15.7803C3.27008 15.7906 3.25955 15.8005 3.24877 15.8101C3.11623 15.9282 2.94149 16 2.75 16C2.54172 16 2.35327 15.9151 2.21737 15.778L0.219671 13.7803C-0.0732227 13.4874 -0.0732239 13.0126 0.219669 12.7197C0.512561 12.4268 0.987435 12.4268 1.28033 12.7197L2 13.4393L2 8.75C2 8.33579 2.33579 8 2.75 8Z" fill="currentColor"/>
</svg>
