<svg width="16" height="17" viewBox="0 0 16 17" fill="none" xmlns="http://www.w3.org/2000/svg">
<path fill-rule="evenodd" clip-rule="evenodd" d="M11.7599 6.8214e-07C12.0541 0.000397411 12.3208 0.172659 12.4421 0.440569L14.9332 5.94057C15.1041 6.31789 14.9367 6.7623 14.5594 6.93319C14.1821 7.10409 13.7377 6.93675 13.5668 6.55943L13.3231 6.02133C13.299 6.02365 13.2747 6.02484 13.25 6.02484L10.1771 6.02484L9.93236 6.56127C9.76045 6.93813 9.31558 7.10427 8.93873 6.93236C8.56187 6.76045 8.39573 6.31559 8.56764 5.93873L11.0766 0.43873C11.1986 0.171148 11.4658 -0.000394735 11.7599 6.8214e-07ZM10.8613 4.52484L12.6453 4.52484L11.7565 2.56246L10.8613 4.52484Z" fill="currentColor"/>
<path d="M2.75 8C3.16421 8 3.5 8.33579 3.5 8.75L3.5 13.489L4.24451 12.7445C4.5374 12.4516 5.01228 12.4516 5.30517 12.7445C5.59806 13.0374 5.59807 13.5123 5.30517 13.8052L3.30518 15.8052C3.16453 15.9458 2.97377 16.0248 2.77485 16.0248C2.57594 16.0248 2.38518 15.9458 2.24452 15.8052L0.244513 13.8052C-0.0483814 13.5123 -0.0483826 13.0374 0.24451 12.7445C0.537402 12.4516 1.01228 12.4516 1.30517 12.7445L2 13.4393L2 8.75C2 8.33579 2.33579 8 2.75 8Z" fill="currentColor"/>
<path d="M9.7511 9C9.33689 9 9.0011 9.33579 9.0011 9.75C9.0011 10.1642 9.33689 10.5 9.7511 10.5H12.6681L9.17044 14.7784C8.98706 15.0027 8.94928 15.3126 9.07341 15.5744C9.19754 15.8362 9.46136 16.0031 9.7511 16.0031H14.25C14.6642 16.0031 15 15.6673 15 15.2531C15 14.8389 14.6642 14.5031 14.25 14.5031H11.333L14.8306 10.2247C15.014 10.0004 15.0518 9.6905 14.9277 9.42869C14.8035 9.16689 14.5397 9 14.25 9H9.7511Z" fill="currentColor"/>
</svg>
