<svg width="16" height="16" viewBox="0 0 16 16" fill="none" xmlns="http://www.w3.org/2000/svg">
<path fill-rule="evenodd" clip-rule="evenodd" d="M9 2.5C9 1.11929 10.1193 0 11.5 0C12.8807 0 14 1.11929 14 2.5L14 5.50002C14 6.88073 12.8807 8.00002 11.5 8.00002C10.3672 8.00002 9.34109 7.23217 9.0332 6.20117C8.91468 5.80428 9.14034 5.38645 9.53724 5.26792C9.93413 5.1494 10.352 5.37506 10.4705 5.77196C10.5939 6.18511 11.0484 6.50002 11.5 6.50002C12.0523 6.50002 12.5 6.0523 12.5 5.50002V4.79198C12.1938 4.92578 11.8556 5 11.5 5C10.1193 5 9 3.88071 9 2.5ZM11.5 1.5C10.9477 1.5 10.5 1.94772 10.5 2.5C10.5 3.05228 10.9477 3.5 11.5 3.5C12.0523 3.5 12.5 3.05228 12.5 2.5C12.5 1.94772 12.0523 1.5 11.5 1.5Z" fill="currentColor"/>
<path d="M13 9.75018C13 9.48015 12.8548 9.23096 12.6199 9.09777C12.385 8.96457 12.0967 8.96794 11.8649 9.10657L9.36495 10.6022C9.00949 10.8149 8.89373 11.2755 9.10639 11.6309C9.31905 11.9864 9.7796 12.1021 10.1351 11.8895L11.5 11.0729V15.2452C11.5 15.6594 11.8358 15.9952 12.25 15.9952C12.6642 15.9952 13 15.6594 13 15.2452V9.75018Z" fill="currentColor"/>
<path d="M2.75 8C3.16421 8 3.5 8.33579 3.5 8.75L3.5 13.4393L4.21967 12.7197C4.51256 12.4268 4.98743 12.4268 5.28033 12.7197C5.57322 13.0126 5.57322 13.4874 5.28033 13.7803L3.28034 15.7803C3.27008 15.7906 3.25955 15.8005 3.24877 15.8101C3.11623 15.9282 2.94149 16 2.75 16C2.54172 16 2.35327 15.9151 2.21737 15.778L0.219671 13.7803C-0.0732227 13.4874 -0.0732239 13.0126 0.219669 12.7197C0.512561 12.4268 0.987435 12.4268 1.28033 12.7197L2 13.4393L2 8.75C2 8.33579 2.33579 8 2.75 8Z" fill="currentColor"/>
</svg>
