<svg width="16" height="17" viewBox="0 0 16 17" fill="none" xmlns="http://www.w3.org/2000/svg">
<path d="M8.00024 1C7.44796 1 7.00024 1.44772 7.00024 2C7.00024 2.55228 7.44796 3 8.00024 3L14 3C14.5523 3 15 2.55229 15 2C15 1.44772 14.5523 1 14 1H8.00024Z" fill="currentColor"/>
<path d="M2.75 8C3.16421 8 3.5 8.33579 3.5 8.75L3.5 13.489L4.24451 12.7445C4.5374 12.4516 5.01228 12.4516 5.30517 12.7445C5.59806 13.0374 5.59807 13.5123 5.30517 13.8052L3.30518 15.8052C3.16453 15.9458 2.97377 16.0248 2.77485 16.0248C2.57594 16.0248 2.38518 15.9458 2.24452 15.8052L0.244513 13.8052C-0.0483814 13.5123 -0.0483826 13.0374 0.24451 12.7445C0.537402 12.4516 1.01228 12.4516 1.30517 12.7445L2 13.4393L2 8.75C2 8.33579 2.33579 8 2.75 8Z" fill="currentColor"/>
<path d="M7.00024 5C7.00024 4.44772 7.44796 4 8.00024 4L14 4C14.5523 4 15 4.44772 15 5C15 5.55229 14.5523 6 14 6L8.00024 6C7.44796 6 7.00024 5.55228 7.00024 5Z" fill="currentColor"/>
<path d="M8.00024 7C7.44796 7 7.00024 7.44772 7.00024 8C7.00024 8.55228 7.44796 9 8.00024 9L14 9C14.5523 9 15 8.55229 15 8C15 7.44772 14.5523 7 14 7L8.00024 7Z" fill="currentColor"/>
<path d="M7.00024 11C7.00024 10.4477 7.44796 10 8.00024 10L14 10C14.5523 10 15 10.4477 15 11C15 11.5523 14.5523 12 14 12L8.00024 12C7.44796 12 7.00024 11.5523 7.00024 11Z" fill="currentColor"/>
<path d="M8.00024 13C7.44796 13 7.00024 13.4477 7.00024 14C7.00024 14.5523 7.44796 15 8.00024 15L14 15C14.5523 15 15 14.5523 15 14C15 13.4477 14.5523 13 14 13L8.00024 13Z" fill="currentColor"/>
</svg>
