<svg width="16" height="17" viewBox="0 0 16 17" fill="none" xmlns="http://www.w3.org/2000/svg">
<path d="M8.00026 1C7.44797 1 7.00026 1.44772 7.00026 2C7.00026 2.55228 7.44797 3 8.00026 3L15 3C15.5523 3 16 2.55229 16 2C16 1.44772 15.5523 1 15 1H8.00026Z" fill="currentColor"/>
<path d="M8.00026 5C7.44797 5 7.00026 5.44772 7.00026 6C7.00026 6.55228 7.44797 7 8.00026 7L13 7C13.5523 7 14 6.55229 14 6C14 5.44772 13.5523 5 13 5L8.00026 5Z" fill="currentColor"/>
<path d="M7.00026 10C7.00026 9.44771 7.44797 9 8.00026 9H11C11.5523 9 12 9.44772 12 10C12 10.5523 11.5523 11 11 11H8.00026C7.44797 11 7.00026 10.5523 7.00026 10Z" fill="currentColor"/>
<path d="M8.00026 13C7.44797 13 7.00026 13.4477 7.00026 14C7.00026 14.5523 7.44797 15 8.00026 15H9.00026C9.55254 15 10.0003 14.5523 10.0003 14C10.0003 13.4477 9.55254 13 9.00026 13H8.00026Z" fill="currentColor"/>
<path d="M2.75 8C3.16421 8 3.5 8.33579 3.5 8.75L3.5 13.489L4.24451 12.7445C4.5374 12.4516 5.01228 12.4516 5.30517 12.7445C5.59806 13.0374 5.59807 13.5123 5.30517 13.8052L3.30518 15.8052C3.16453 15.9458 2.97377 16.0248 2.77485 16.0248C2.57594 16.0248 2.38518 15.9458 2.24452 15.8052L2.22199 15.7826C2.22044 15.7811 2.2189 15.7796 2.21737 15.778L0.244513 13.8052C-0.0483814 13.5123 -0.0483826 13.0374 0.24451 12.7445C0.537402 12.4516 1.01228 12.4516 1.30517 12.7445L2 13.4393L2 8.75C2 8.33579 2.33579 8 2.75 8Z" fill="currentColor"/>
</svg>
