<svg width="16" height="16" viewBox="0 0 16 16" fill="none" xmlns="http://www.w3.org/2000/svg">
<path d="M0 0.75C0 0.335786 0.335786 0 0.75 0H15.25C15.6642 0 16 0.335786 16 0.75C16 1.16421 15.6642 1.5 15.25 1.5H0.75C0.335786 1.5 0 1.16421 0 0.75Z" fill="currentColor"/>
<path d="M7.46967 3.21967C7.76256 2.92678 8.23744 2.92678 8.53033 3.21967L10.7809 5.47022C11.0738 5.76311 11.0738 6.23799 10.7809 6.53088C10.488 6.82377 10.0131 6.82377 9.72022 6.53088L8.75 5.56066V10.4393L9.71943 9.46991C10.0123 9.17702 10.4872 9.17702 10.7801 9.46991C11.073 9.76281 11.073 10.2377 10.7801 10.5306L8.53033 12.7803C8.23744 13.0732 7.76256 13.0732 7.46967 12.7803L5.21991 10.5306C4.92702 10.2377 4.92702 9.76281 5.21991 9.46991C5.51281 9.17702 5.98768 9.17702 6.28057 9.46991L7.25 10.4393L7.25 5.56066L6.27978 6.53088C5.98689 6.82377 5.51201 6.82377 5.21912 6.53088C4.92623 6.23799 4.92623 5.76311 5.21912 5.47022L7.46967 3.21967Z" fill="currentColor"/>
<path d="M0.75 14.5C0.335786 14.5 0 14.8358 0 15.25C0 15.6642 0.335786 16 0.75 16H15.25C15.6642 16 16 15.6642 16 15.25C16 14.8358 15.6642 14.5 15.25 14.5H0.75Z" fill="currentColor"/>
</svg>
