<svg width="16" height="16" viewBox="0 0 16 16" fill="none" xmlns="http://www.w3.org/2000/svg">
<g clip-path="url(#clip0_3963_6003)">
<path fill-rule="evenodd" clip-rule="evenodd" d="M12.784 1.44317C12.7473 1.26232 12.6492 1.09973 12.5063 0.982949C12.3634 0.866165 12.1845 0.802368 12 0.802368C11.8155 0.802368 11.6366 0.866165 11.4937 0.982949C11.3508 1.09973 11.2527 1.26232 11.216 1.44317L11.024 2.39677C10.9931 2.55167 10.9171 2.69397 10.8055 2.80573C10.6939 2.91748 10.5517 2.9937 10.3968 3.02477L9.44322 3.21517C9.2615 3.25111 9.09789 3.34899 8.9803 3.49211C8.86271 3.63524 8.79843 3.81473 8.79843 3.99997C8.79843 4.18521 8.86271 4.3647 8.9803 4.50783C9.09789 4.65095 9.2615 4.74883 9.44322 4.78477L10.3968 4.97517C10.5518 5.0061 10.6942 5.08225 10.8059 5.19402C10.9177 5.30579 10.9939 5.44816 11.0248 5.60317L11.2152 6.55677C11.2511 6.73849 11.349 6.9021 11.4921 7.01969C11.6353 7.13728 11.8148 7.20156 12 7.20156C12.1852 7.20156 12.3647 7.13728 12.5079 7.01969C12.651 6.9021 12.7489 6.73849 12.7848 6.55677L12.9752 5.60317C13.0061 5.44816 13.0823 5.30579 13.194 5.19402C13.3058 5.08225 13.4482 5.0061 13.6032 4.97517L14.5568 4.78477C14.7385 4.74883 14.9021 4.65095 15.0197 4.50783C15.1373 4.3647 15.2016 4.18521 15.2016 3.99997C15.2016 3.81473 15.1373 3.63524 15.0197 3.49211C14.9021 3.34899 14.7385 3.25111 14.5568 3.21517L13.6032 3.02477C13.4482 2.99384 13.3058 2.91769 13.194 2.80592C13.0823 2.69415 13.0061 2.55178 12.9752 2.39677L12.784 1.44317ZM5.55922 4.54717C5.50624 4.3877 5.40439 4.24896 5.26811 4.15063C5.13184 4.05231 4.96806 3.99939 4.80002 3.99939C4.63198 3.99939 4.4682 4.05231 4.33193 4.15063C4.19565 4.24896 4.0938 4.3877 4.04082 4.54717L3.49442 6.18797C3.45516 6.30592 3.38895 6.4131 3.30105 6.501C3.21315 6.5889 3.10597 6.65511 2.98802 6.69437L1.34722 7.24077C1.18775 7.29375 1.04901 7.3956 0.950679 7.53188C0.852354 7.66815 0.799438 7.83193 0.799438 7.99997C0.799438 8.16801 0.852354 8.33179 0.950679 8.46806C1.04901 8.60434 1.18775 8.70619 1.34722 8.75917L2.98802 9.30637C3.10588 9.34555 3.21301 9.41164 3.3009 9.49939C3.3888 9.58715 3.45505 9.69417 3.49442 9.81197L4.04082 11.4528C4.0938 11.6123 4.19565 11.751 4.33193 11.8493C4.4682 11.9477 4.63198 12.0006 4.80002 12.0006C4.96806 12.0006 5.13184 11.9477 5.26811 11.8493C5.40439 11.751 5.50624 11.6123 5.55922 11.4528L6.10562 9.81197C6.14488 9.69402 6.21109 9.58684 6.29899 9.49894C6.38689 9.41104 6.49407 9.34483 6.61202 9.30557L8.25282 8.75917C8.41229 8.70619 8.55103 8.60434 8.64936 8.46806C8.74768 8.33179 8.8006 8.16801 8.8006 7.99997C8.8006 7.83193 8.74768 7.66815 8.64936 7.53188C8.55103 7.3956 8.41229 7.29375 8.25282 7.24077L6.61202 6.69437C6.49407 6.65511 6.38689 6.5889 6.29899 6.501C6.21109 6.4131 6.14488 6.30592 6.10562 6.18797L5.55922 4.54717ZM11.1592 10.9472C11.1062 10.7877 11.0044 10.649 10.8681 10.5507C10.7318 10.4523 10.568 10.3994 10.4 10.3994C10.232 10.3994 10.0682 10.4523 9.93193 10.5507C9.79565 10.649 9.6938 10.7877 9.64082 10.9472L9.49362 11.388C9.45444 11.5059 9.38835 11.613 9.3006 11.7009C9.21284 11.7888 9.10582 11.855 8.98802 11.8944L8.54722 12.0408C8.38775 12.0938 8.24901 12.1956 8.15068 12.3319C8.05236 12.4682 7.99944 12.632 7.99944 12.8C7.99944 12.968 8.05236 13.1318 8.15068 13.2681C8.24901 13.4044 8.38775 13.5062 8.54722 13.5592L8.98802 13.7056C9.10597 13.7449 9.21315 13.8111 9.30105 13.899C9.38895 13.9869 9.45516 14.094 9.49442 14.212L9.64082 14.6528C9.6938 14.8123 9.79565 14.951 9.93193 15.0493C10.0682 15.1477 10.232 15.2006 10.4 15.2006C10.568 15.2006 10.7318 15.1477 10.8681 15.0493C11.0044 14.951 11.1062 14.8123 11.1592 14.6528L11.3064 14.212C11.3456 14.0941 11.4117 13.987 11.4994 13.8991C11.5872 13.8112 11.6942 13.745 11.812 13.7056L12.2528 13.5592C12.4123 13.5062 12.551 13.4044 12.6493 13.2681C12.7477 13.1318 12.8006 12.968 12.8006 12.8C12.8006 12.632 12.7477 12.4682 12.6493 12.3319C12.551 12.1956 12.4123 12.0938 12.2528 12.0408L11.812 11.8936C11.6941 11.8544 11.587 11.7883 11.4991 11.7006C11.4112 11.6128 11.345 11.5058 11.3056 11.388L11.1592 10.9472Z" fill="currentColor"/>
</g>
<defs>
<clipPath id="clip0_3963_6003">
<rect width="16" height="16" fill="white"/>
</clipPath>
</defs>
</svg>
