<svg width="16" height="17" viewBox="0 0 16 17" fill="none" xmlns="http://www.w3.org/2000/svg">
<path d="M7.54279 0.311683C7.71379 -0.09893 8.29549 -0.0989301 8.46648 0.311683L10.3775 4.90063C10.4479 5.0695 10.6047 5.18652 10.7866 5.2058L15.5564 5.71138C15.9818 5.75646 16.1581 6.27988 15.8467 6.5731L12.232 9.97719C12.1056 10.0962 12.0499 10.2723 12.085 10.4423L13.1078 15.409C13.1963 15.8384 12.7287 16.1658 12.3554 15.9358L8.26706 13.417C8.10616 13.3178 7.90312 13.3178 7.74221 13.417L3.65388 15.9358C3.28056 16.1658 2.813 15.8384 2.90144 15.409L3.92431 10.4423C3.95933 10.2723 3.90369 10.0962 3.77729 9.97719L0.162588 6.5731C-0.148778 6.27988 0.0275253 5.75646 0.452844 5.71138L5.22263 5.2058C5.40454 5.18652 5.56142 5.0695 5.63175 4.90063L7.54279 0.311683Z" fill="currentColor"/>
</svg>
