<svg width="16" height="16" viewBox="0 0 16 16" fill="none" xmlns="http://www.w3.org/2000/svg">
<path fill-rule="evenodd" clip-rule="evenodd" d="M5.63181 4.89777C5.56148 5.06653 5.4046 5.18349 5.2227 5.20276L0.452905 5.70804C0.0275863 5.7531 -0.148717 6.2762 0.162649 6.56926L3.77735 9.97136C3.90375 10.0903 3.95939 10.2663 3.92437 10.4362L2.9015 15.4C2.81306 15.8292 3.28062 16.1564 3.65394 15.9265L7.74227 13.4091C7.90318 13.31 8.10622 13.31 8.26713 13.4091L12.3555 15.9265C12.7288 16.1564 13.1963 15.8292 13.1079 15.4L12.085 10.4362C12.05 10.2663 12.1057 10.0903 12.232 9.97136L15.8468 6.56925C16.1581 6.2762 15.9818 5.7531 15.5565 5.70804L10.7867 5.20276C10.6048 5.18349 10.4479 5.06653 10.3776 4.89777L8.46655 0.311502C8.29555 -0.09887 7.71385 -0.0988699 7.54285 0.311503L5.63181 4.89777ZM8.0047 3.1049L7.01734 5.47443C6.73605 6.1495 6.10852 6.61732 5.3809 6.6944L2.77781 6.97016L4.80633 8.87936C5.3119 9.3552 5.53448 10.059 5.3944 10.7388L4.83877 13.4351L6.955 12.132C7.59862 11.7357 8.41077 11.7357 9.0544 12.132L11.1706 13.4351L10.615 10.7388C10.4749 10.059 10.6975 9.3552 11.2031 8.87936L13.2316 6.97016L10.6285 6.6944C9.90088 6.61732 9.27335 6.1495 8.99206 5.47443L8.0047 3.1049Z" fill="currentColor"/>
</svg>
