<svg width="16" height="16" viewBox="0 0 16 16" fill="none" xmlns="http://www.w3.org/2000/svg">
<path d="M2 2.75C2 2.33579 2.33579 2 2.75 2C3.16421 2 3.5 2.33579 3.5 2.75V13.2477C3.5 13.6619 3.16421 13.9977 2.75 13.9977C2.33579 13.9977 2 13.6619 2 13.2477V2.75Z" fill="currentColor"/>
<path d="M11.7787 2.16655C12.0035 1.985 12.3126 1.94872 12.5733 2.07327C12.834 2.19783 13 2.46107 13 2.75001V13.25C13 13.5389 12.834 13.8022 12.5733 13.9267C12.3126 14.0513 12.0035 14.015 11.7787 13.8335L5.27875 8.58346C5.10246 8.44108 5 8.22662 5 8.00001C5 7.7734 5.10246 7.55894 5.27875 7.41655L11.7787 2.16655Z" fill="currentColor"/>
</svg>
