<svg width="16" height="16" viewBox="0 0 16 16" fill="none" xmlns="http://www.w3.org/2000/svg">
<path d="M13 2.75C13 2.33579 12.6642 2 12.25 2C11.8358 2 11.5 2.33579 11.5 2.75V13.2477C11.5 13.6619 11.8358 13.9977 12.25 13.9977C12.6642 13.9977 13 13.6619 13 13.2477V2.75Z" fill="currentColor"/>
<path d="M3.22125 2.16655C2.99648 1.985 2.6874 1.94872 2.42669 2.07327C2.16598 2.19783 2 2.46107 2 2.75001V13.25C2 13.5389 2.16598 13.8022 2.42669 13.9267C2.6874 14.0513 2.99648 14.015 3.22125 13.8335L9.72125 8.58346C9.89754 8.44108 10 8.22662 10 8.00001C10 7.7734 9.89754 7.55894 9.72125 7.41655L3.22125 2.16655Z" fill="currentColor"/>
</svg>
