<svg width="16" height="16" viewBox="0 0 16 16" fill="none" xmlns="http://www.w3.org/2000/svg">
<path d="M8 1.0025C6.39555 1.0025 5.24822 1.50161 4.50348 2.27217C3.77176 3.02926 3.5 3.97551 3.5 4.75C3.5 5.98149 4.23102 6.83922 5.0812 7.39494C5.13627 7.43094 5.19221 7.46595 5.24892 7.5L1.75 7.5C1.33579 7.5 1 7.83579 1 8.25C1 8.66421 1.33579 9 1.75 9L9.62155 9C9.90217 9.12564 10.1679 9.26828 10.4069 9.4285C11.118 9.90512 11.5 10.4655 11.5 11.1415C11.5 11.981 11.1224 12.5295 10.5192 12.9034C9.87827 13.3007 8.96854 13.5003 8 13.5003C5.94236 13.5003 4.7637 12.3844 4.45863 11.5043C4.32295 11.113 3.89571 10.9057 3.50434 11.0414C3.11298 11.177 2.9057 11.6043 3.04137 11.9957C3.58471 13.563 5.3964 15.0003 8 15.0003C9.1364 15.0003 10.3517 14.7721 11.3095 14.1783C12.3051 13.5611 13 12.5552 13 11.1415C13 10.272 12.6682 9.56373 12.181 9H14.25C14.6642 9 15 8.66421 15 8.25C15 7.83579 14.6642 7.5 14.25 7.5L9.92536 7.5C9.32447 7.2592 8.70786 7.08917 8.15002 6.97528C7.34793 6.81153 6.51515 6.54023 5.90191 6.13938C5.29939 5.74553 5 5.29563 5 4.75C5 4.30351 5.16026 3.75102 5.58206 3.3146C5.99082 2.89166 6.71849 2.5025 8 2.5025C8.96658 2.5025 9.69438 2.84175 10.1982 3.25661C10.7251 3.69051 10.9693 4.1732 11.0152 4.39758C11.0981 4.8034 11.4943 5.06516 11.9002 4.98223C12.306 4.8993 12.5677 4.50309 12.4848 4.09726C12.355 3.46215 11.8787 2.69738 11.1517 2.0987C10.4016 1.48097 9.34219 1.0025 8 1.0025Z" fill="currentColor"/>
</svg>
