<svg width="16" height="16" viewBox="0 0 16 16" fill="none" xmlns="http://www.w3.org/2000/svg">
<path d="M4.78033 3.28033C5.07322 2.98744 5.07322 2.51256 4.78033 2.21967C4.48744 1.92678 4.01256 1.92678 3.71967 2.21967L1.21997 4.71937L1.21808 4.72126C1.14696 4.7928 1.09324 4.87511 1.05691 4.96291C1.02024 5.05134 1 5.14831 1 5.25C1 5.35169 1.02024 5.44866 1.05691 5.53709C1.09351 5.62555 1.14776 5.70842 1.21967 5.78033L3.71967 8.28033C4.01256 8.57322 4.48744 8.57322 4.78033 8.28033C5.07322 7.98744 5.07322 7.51256 4.78033 7.21967L3.56066 6H14.25C14.6642 6 15 5.66421 15 5.25C15 4.83579 14.6642 4.5 14.25 4.5H3.56066L4.78033 3.28033Z" fill="currentColor"/>
<path d="M11.2235 9.28033C10.9306 8.98744 10.9306 8.51256 11.2235 8.21967C11.5164 7.92678 11.9913 7.92678 12.2842 8.21967L14.7842 10.7197C15.0771 11.0126 15.0771 11.4874 14.7842 11.7803L12.2842 14.2803C11.9913 14.5732 11.5164 14.5732 11.2235 14.2803C10.9306 13.9874 10.9306 13.5126 11.2235 13.2197L12.4432 12H1.75C1.33579 12 1 11.6642 1 11.25C1 10.8358 1.33579 10.5 1.75 10.5H12.4432L11.2235 9.28033Z" fill="currentColor"/>
</svg>
