<svg width="16" height="16" viewBox="0 0 16 16" fill="none" xmlns="http://www.w3.org/2000/svg">
<path fill-rule="evenodd" clip-rule="evenodd" d="M14.5 5V6.3757C15.3784 7.07874 15.954 8.14434 16 9.34569V3C16 1.89543 15.1046 1 14 1H2C0.895431 1 0 1.89543 0 3V13C0 14.1046 0.895431 15 2 15H6.5V13.5H6V11H6.70802C6.88197 10.6019 7.15661 10.2578 7.49976 10H6V8H8.29124C8.43822 7.63716 8.63688 7.30079 8.87809 7H6V5H14.5ZM1.5 5H5V7H1.5V5ZM1.5 10V8H5V10H1.5ZM1.5 13V11H5V13.5H2C1.72386 13.5 1.5 13.2761 1.5 13Z" fill="currentColor"/>
<path fill-rule="evenodd" clip-rule="evenodd" d="M9 11C8.44772 11 8 11.4477 8 12V15C8 15.5523 8.44772 16 9 16H15C15.5523 16 16 15.5523 16 15V12C16 11.4477 15.5523 11 15 11H14.503V9.50149C14.503 8.11995 13.383 7 12.0015 7C10.62 7 9.5 8.11995 9.5 9.50149V11H9ZM13.003 9.50149V11H11V9.50149C11 8.94838 11.4484 8.5 12.0015 8.5C12.5546 8.5 13.003 8.94838 13.003 9.50149Z" fill="currentColor"/>
</svg>
