<svg width="16" height="16" viewBox="0 0 16 16" fill="none" xmlns="http://www.w3.org/2000/svg">
<g clip-path="url(#clip0_1543_4491)">
<path fill-rule="evenodd" clip-rule="evenodd" d="M14.5 5V6.95765C15.0534 7.19946 15.5594 7.52972 16 7.93056V3C16 1.89543 15.1046 1 14 1H2C0.895431 1 0 1.89543 0 3V13C0 14.1046 0.895431 15 2 15H7.68945C7.39121 14.5426 7.1592 14.0381 7.00702 13.5H6V11H6.89068C6.95418 10.6543 7.05001 10.3199 7.17493 10H6V8H8.52505C8.95811 7.59115 9.45755 7.25187 10.0055 7H6V5H14.5ZM1.5 5H5V7H1.5V5ZM1.5 10V8H5V10H1.5ZM1.5 13V11H5V13.5H2C1.72386 13.5 1.5 13.2761 1.5 13Z" fill="currentColor"/>
<path fill-rule="evenodd" clip-rule="evenodd" d="M11.9524 16H12.6435C12.8791 16 13.0827 15.8356 13.1323 15.6053L13.299 14.832C13.6518 14.7076 13.9744 14.519 14.2528 14.2804L15.0015 14.5264C15.2264 14.6002 15.4722 14.5063 15.5905 14.3013L15.936 13.7028C16.0538 13.4988 16.0132 13.2403 15.8387 13.0822L15.2523 12.5512C15.2854 12.3726 15.3022 12.1882 15.3022 12C15.3022 11.8118 15.2849 11.6277 15.2518 11.4491L15.8386 10.9162C16.0127 10.758 16.053 10.4998 15.9354 10.2961L15.5922 9.70162C15.4742 9.49735 15.2296 9.40328 15.0052 9.47591L14.2537 9.71916C13.9752 9.48052 13.6518 9.29244 13.299 9.16798L13.1308 8.39387C13.0809 8.16399 12.8775 8 12.6422 8H11.9558C11.7199 8 11.5161 8.16483 11.4668 8.39549L11.3018 9.16771C10.9488 9.29213 10.626 9.48068 10.3474 9.71938L9.5926 9.47772C9.36855 9.40601 9.12482 9.5002 9.0072 9.70393L8.66399 10.2984C8.54605 10.5026 8.58691 10.7616 8.76201 10.9196L9.34828 11.4487C9.31511 11.6274 9.29777 11.8117 9.29777 12C9.29777 12.1883 9.31511 12.3726 9.34828 12.5513L8.76187 13.0761C8.58552 13.2339 8.54396 13.4937 8.66228 13.6987L9.00783 14.2972C9.1256 14.5012 9.36977 14.5953 9.594 14.5232L10.347 14.2808C10.6256 14.5195 10.9488 14.7079 11.3018 14.8323L11.463 15.6025C11.5115 15.8341 11.7158 16 11.9524 16ZM13.299 12C13.299 12.5517 12.8517 12.9989 12.3 12.9989C11.7483 12.9989 11.3011 12.5517 11.3011 12C11.3011 11.4483 11.7483 11.0011 12.3 11.0011C12.8517 11.0011 13.299 11.4483 13.299 12Z" fill="currentColor"/>
</g>
<defs>
<clipPath id="clip0_1543_4491">
<rect width="16" height="16" fill="white"/>
</clipPath>
</defs>
</svg>
