<svg width="16" height="16" viewBox="0 0 16 16" fill="none" xmlns="http://www.w3.org/2000/svg">
<path fill-rule="evenodd" clip-rule="evenodd" d="M13 1.03784H8.81637C8.28676 1.03784 7.77876 1.24791 7.40383 1.62196L1.58258 7.42946C0.799951 8.21024 0.799202 9.47786 1.5809 10.2596L5.75052 14.4292C6.53168 15.2103 7.79823 15.2102 8.57923 14.4289L14.4145 8.5912C14.7894 8.21615 15 7.70756 15 7.17727V3.03784C15 1.93327 14.1046 1.03784 13 1.03784ZM11.5 6C12.3284 6 13 5.32843 13 4.5C13 3.67158 12.3284 3 11.5 3C10.6716 3 10 3.67158 10 4.5C10 5.32843 10.6716 6 11.5 6Z" fill="currentColor"/>
</svg>
