<svg width="16" height="16" viewBox="0 0 16 16" fill="none" xmlns="http://www.w3.org/2000/svg">
<path d="M3 0.999939H12.8351C12.7228 1.09097 12.6176 1.19423 12.5215 1.30952L11.5295 2.49994H3C2.72386 2.49994 2.5 2.7238 2.5 2.99994V12.9999C2.5 13.2761 2.72386 13.4999 3 13.4999H13C13.2761 13.4999 13.5 13.2761 13.5 12.9999V7.16455L15 5.36455V12.9999C15 14.1045 14.1046 14.9999 13 14.9999H3C1.89543 14.9999 1 14.1045 1 12.9999V2.99994C1 1.89537 1.89543 0.999939 3 0.999939Z" fill="currentColor"/>
<path d="M14.8262 3.23008C15.0913 2.91187 15.0483 2.43895 14.7301 2.17377C14.4119 1.9086 13.939 1.95159 13.6738 2.2698L7.97819 9.10457L6.30747 7.24822C6.03038 6.94034 5.55616 6.91538 5.24828 7.19248C4.94039 7.46957 4.91544 7.94379 5.19253 8.25167L7.44253 10.7517C7.58809 10.9134 7.79672 11.0039 8.01428 10.9998C8.23183 10.9957 8.43687 10.8972 8.57617 10.7301L14.8262 3.23008Z" fill="currentColor"/>
</svg>
