<svg width="16" height="16" viewBox="0 0 16 16" fill="none" xmlns="http://www.w3.org/2000/svg">
<path fill-rule="evenodd" clip-rule="evenodd" d="M8.01619 0.999024C8.31193 0.999419 8.57983 1.17357 8.70023 1.44369L12.935 10.9447C13.1037 11.323 12.9337 11.7664 12.5553 11.935C12.177 12.1037 11.7336 11.9337 11.565 11.5553L10.2042 8.50228H5.80562L4.43422 11.5572C4.26458 11.935 3.82073 12.1039 3.44284 11.9342C3.06496 11.7646 2.89615 11.3207 3.06579 10.9428L7.33098 1.44186C7.4521 1.17207 7.72046 0.998631 8.01619 0.999024ZM8.01275 3.58577L9.53557 7.00228H6.479L8.01275 3.58577Z" fill="currentColor"/>
<path d="M2 13.0115C1.44772 13.0115 1 13.4592 1 14.0115V15C1 15.5523 1.44772 16 2 16H14C14.5523 16 15 15.5523 15 15V14.0115C15 13.4592 14.5523 13.0115 14 13.0115H2Z" fill="currentColor"/>
</svg>
