<svg width="16" height="16" viewBox="0 0 16 16" fill="none" xmlns="http://www.w3.org/2000/svg">
<path d="M4 5H3.5C3.22386 5 3 4.77614 3 4.5C3 4.22386 3.22386 4 3.5 4H5.5C5.77614 4 6 4.22386 6 4.5C6 4.77614 5.77614 5 5.5 5H5V8H5.5C5.77614 8 6 8.22386 6 8.5C6 8.77614 5.77614 9 5.5 9H3.5C3.22386 9 3 8.77614 3 8.5C3 8.22386 3.22386 8 3.5 8H4V5Z" fill="currentColor"/>
<path d="M10 12H13V9L10 12Z" fill="currentColor"/>
<path fill-rule="evenodd" clip-rule="evenodd" d="M2 1C0.895431 1 0 1.89543 0 3V13C0 14.1046 0.895431 15 2 15H14C15.1046 15 16 14.1046 16 13V3C16 1.89543 15.1046 1 14 1H2ZM14 2.5H2C1.72386 2.5 1.5 2.72386 1.5 3V13C1.5 13.2761 1.72386 13.5 2 13.5H14C14.2761 13.5 14.5 13.2761 14.5 13V3C14.5 2.72386 14.2761 2.5 14 2.5Z" fill="currentColor"/>
</svg>
