<svg width="16" height="16" viewBox="0 0 16 16" fill="none" xmlns="http://www.w3.org/2000/svg">
<path fill-rule="evenodd" clip-rule="evenodd" d="M4.00195 2.75195V4H3C1.89543 4 1 4.89543 1 6V7.49457H4V7.25C4 6.83579 4.33579 6.5 4.75 6.5C5.16421 6.5 5.5 6.83579 5.5 7.25V7.49457H10.5V7.25C10.5 6.83579 10.8358 6.5 11.25 6.5C11.6642 6.5 12 6.83579 12 7.25V7.49457H15V6C15 4.89543 14.1046 4 13 4H11.998V2.75195C11.998 1.78546 11.2145 1.00195 10.248 1.00195H5.75195C4.78546 1.00195 4.00195 1.78545 4.00195 2.75195ZM5.75195 2.50195C5.61388 2.50195 5.50195 2.61388 5.50195 2.75195V4H10.498V2.75195C10.498 2.61388 10.3861 2.50195 10.248 2.50195H5.75195Z" fill="currentColor"/>
<path d="M15 8.99457H12V9.25C12 9.66421 11.6642 10 11.25 10C10.8358 10 10.5 9.66421 10.5 9.25V8.99457H5.5V9.25C5.5 9.66421 5.16421 10 4.75 10C4.33579 10 4 9.66421 4 9.25V8.99457H1V12C1 13.1046 1.89543 14 3 14H13C14.1046 14 15 13.1046 15 12V8.99457Z" fill="currentColor"/>
</svg>
