<svg width="16" height="16" viewBox="0 0 16 16" fill="none" xmlns="http://www.w3.org/2000/svg">
<path fill-rule="evenodd" clip-rule="evenodd" d="M6 1C5.44772 1 5 1.44772 5 2V3H3C2.44772 3 2 3.44772 2 4C2 4.55228 2.44772 5 3 5L3 13C3 14.1046 3.89543 15 5 15H11C12.1046 15 13 14.1046 13 13V5C13.5523 5 14 4.55228 14 4C14 3.44772 13.5523 3 13 3H11V2C11 1.44772 10.5523 1 10 1H6ZM5.5 7.75C5.5 7.33579 5.83579 7 6.25 7C6.66421 7 7 7.33579 7 7.75V11.25C7 11.6642 6.66421 12 6.25 12C5.83579 12 5.5 11.6642 5.5 11.25V7.75ZM9.75 7C9.33579 7 9 7.33579 9 7.75V11.25C9 11.6642 9.33579 12 9.75 12C10.1642 12 10.5 11.6642 10.5 11.25V7.75C10.5 7.33579 10.1642 7 9.75 7Z" fill="currentColor"/>
</svg>
