<svg width="16" height="16" viewBox="0 0 16 16" fill="none" xmlns="http://www.w3.org/2000/svg">
<path d="M5 2C5 1.44772 4.55228 1 4 1C3.44772 1 3 1.44772 3 2V7C3 9.76142 5.23858 12 8 12C10.7614 12 13 9.76142 13 7V2C13 1.44772 12.5523 1 12 1C11.4477 1 11 1.44772 11 2V7C11 8.65685 9.65685 10 8 10C6.34315 10 5 8.65685 5 7V2Z" fill="currentColor"/>
<path d="M2.7496 13.5C2.33539 13.5 1.9996 13.8358 1.9996 14.25C1.9996 14.6642 2.33539 15 2.7496 15L13.248 15C13.6622 15 13.998 14.6642 13.998 14.25C13.998 13.8358 13.6622 13.5 13.248 13.5L2.7496 13.5Z" fill="currentColor"/>
</svg>
