<svg width="16" height="16" viewBox="0 0 16 16" fill="none" xmlns="http://www.w3.org/2000/svg">
<path d="M5.80642 3.26861C6.09932 2.97572 6.09932 2.50084 5.80642 2.20795C5.51353 1.91506 5.03866 1.91506 4.74576 2.20795L1.21967 5.73404C0.926777 6.02694 0.926777 6.50181 1.21967 6.7947L4.74576 10.3208C5.03866 10.6137 5.51353 10.6137 5.80642 10.3208C6.09932 10.0279 6.09932 9.55303 5.80642 9.26014L3.5483 7.00201L10.251 7.00202C12.0454 7.00202 13.5 8.45664 13.5 10.251C13.5 12.0454 12.0454 13.5 10.251 13.5H7.75C7.33579 13.5 7 13.8358 7 14.25C7 14.6642 7.33579 15 7.75 15H10.251C12.8738 15 15 12.8738 15 10.251C15 7.62821 12.8738 5.50202 10.251 5.50202L3.57302 5.50201L5.80642 3.26861Z" fill="currentColor"/>
</svg>
