<svg width="16" height="16" viewBox="0 0 16 16" fill="none" xmlns="http://www.w3.org/2000/svg">
<path d="M10.4872 0.038691C10.8801 0.169677 11.0925 0.594417 10.9615 0.987374L10.4615 2.48737C10.3305 2.88033 9.90579 3.0927 9.51283 2.96172C9.11987 2.83073 8.9075 2.40599 9.03849 2.01303L9.53849 0.513033C9.66947 0.120075 10.0942 -0.0922948 10.4872 0.038691Z" fill="currentColor"/>
<path d="M4 4.0002C1.79086 4.0002 0 5.79106 0 8.0002C0 10.2093 1.79086 12.0002 4 12.0002H6.25C6.66421 12.0002 7 11.6644 7 11.2502C7 10.836 6.66421 10.5002 6.25 10.5002H4C2.61929 10.5002 1.5 9.38091 1.5 8.0002C1.5 6.61949 2.61929 5.5002 4 5.5002H6.25C6.66421 5.5002 7 5.16441 7 4.7502C7 4.33598 6.66421 4.0002 6.25 4.0002H4Z" fill="currentColor"/>
<path d="M12 4.0002C14.2091 4.0002 16 5.79106 16 8.0002C16 10.2093 14.2091 12.0002 12 12.0002H9.75C9.33579 12.0002 9 11.6644 9 11.2502C9 10.836 9.33579 10.5002 9.75 10.5002H12C13.3807 10.5002 14.5 9.38091 14.5 8.0002C14.5 6.61949 13.3807 5.5002 12 5.5002H9.75C9.33579 5.5002 9 5.16441 9 4.7502C9 4.33598 9.33579 4.0002 9.75 4.0002H12Z" fill="currentColor"/>
<path d="M6.96151 13.9874C7.0925 13.5944 6.88013 13.1697 6.48717 13.0387C6.09421 12.9077 5.66947 13.1201 5.53849 13.513L5.03849 15.013C4.9075 15.406 5.11987 15.8307 5.51283 15.9617C5.90579 16.0927 6.33053 15.8803 6.46151 15.4874L6.96151 13.9874Z" fill="currentColor"/>
<path d="M6.48717 2.96172C6.88013 2.83073 7.0925 2.40599 6.96151 2.01303L6.46151 0.513033C6.33053 0.120075 5.90579 -0.0922948 5.51283 0.0386911C5.11987 0.169677 4.9075 0.594417 5.03849 0.987374L5.53849 2.48737C5.66947 2.88033 6.09421 3.0927 6.48717 2.96172Z" fill="currentColor"/>
<path d="M10.9615 15.013C11.0925 15.406 10.8801 15.8307 10.4872 15.9617C10.0942 16.0927 9.66947 15.8803 9.53849 15.4874L9.03849 13.9874C8.9075 13.5944 9.11987 13.1697 9.51283 13.0387C9.90579 12.9077 10.3305 13.1201 10.4615 13.513L10.9615 15.013Z" fill="currentColor"/>
</svg>
