<svg width="16" height="16" viewBox="0 0 16 16" fill="none" xmlns="http://www.w3.org/2000/svg">
<g clip-path="url(#clip0_544_1915)">
<path fill-rule="evenodd" clip-rule="evenodd" d="M16 8C16 12.4183 12.4183 16 8 16C3.58172 16 0 12.4183 0 8C0 3.58172 3.58172 0 8 0C12.4183 0 16 3.58172 16 8ZM8.45715 3.54284L11.7067 6.04132C12.0351 6.29379 12.0966 6.76466 11.8441 7.09304C11.5917 7.42141 11.1208 7.48294 10.7924 7.23047L8 5.08347L5.20757 7.23047C4.8792 7.48294 4.40833 7.42141 4.15585 7.09304C3.90338 6.76466 3.96491 6.29379 4.29328 6.04132L7.54285 3.54284C7.81239 3.33561 8.18761 3.33561 8.45715 3.54284ZM11.7069 10.0439L8.45734 7.54373C8.18773 7.33629 7.81227 7.33629 7.54266 7.54373L4.29309 10.0439C3.96479 10.2965 3.90342 10.7674 4.156 11.0957C4.40859 11.424 4.87948 11.4853 5.20777 11.2328L8 9.08445L10.7922 11.2328C11.1205 11.4853 11.5914 11.424 11.844 11.0957C12.0966 10.7674 12.0352 10.2965 11.7069 10.0439Z" fill="currentColor"/>
</g>
<defs>
<clipPath id="clip0_544_1915">
<rect width="16" height="16" fill="white"/>
</clipPath>
</defs>
</svg>
