<svg width="16" height="16" viewBox="0 0 16 16" fill="none" xmlns="http://www.w3.org/2000/svg">
<path d="M8.53033 1.21967C8.23744 0.926777 7.76256 0.926777 7.46967 1.21967L3.21967 5.46967C2.92678 5.76256 2.92678 6.23744 3.21967 6.53033C3.51256 6.82322 3.98744 6.82322 4.28033 6.53033L7.25 3.56066V10.25C7.25 10.6642 7.58579 11 8 11C8.41421 11 8.75 10.6642 8.75 10.25V3.56066L11.7197 6.53033C12.0126 6.82322 12.4874 6.82322 12.7803 6.53033C13.0732 6.23744 13.0732 5.76256 12.7803 5.46967L8.53033 1.21967Z" fill="currentColor"/>
<path d="M1.75 10C2.16421 10 2.5 10.3358 2.5 10.75V13.25C2.5 13.3881 2.61193 13.5 2.75 13.5H13.25C13.3881 13.5 13.5 13.3881 13.5 13.25V10.75C13.5 10.3358 13.8358 10 14.25 10C14.6642 10 15 10.3358 15 10.75V13.25C15 14.2165 14.2165 15 13.25 15H2.75C1.7835 15 1 14.2165 1 13.25V10.75C1 10.3358 1.33579 10 1.75 10Z" fill="currentColor"/>
</svg>
