<svg width="16" height="16" viewBox="0 0 16 16" fill="none" xmlns="http://www.w3.org/2000/svg">
<path fill-rule="evenodd" clip-rule="evenodd" d="M12.5 7C14.433 7 16 5.433 16 3.5C16 1.567 14.433 0 12.5 0C10.567 0 9 1.567 9 3.5C9 5.433 10.567 7 12.5 7ZM12.5 6C13.8807 6 15 4.88071 15 3.5C15 2.99046 14.8476 2.51652 14.5858 2.1213L11.1213 5.5858C11.5165 5.84756 11.9905 6 12.5 6ZM13.8787 1.4142L10.4142 4.87869C10.1524 4.48348 10 4.00954 10 3.5C10 2.11929 11.1193 1 12.5 1C13.0095 1 13.4835 1.15244 13.8787 1.4142Z" fill="currentColor"/>
<path d="M8 5C8 6.65685 6.65685 8 5 8C3.34315 8 2 6.65685 2 5C2 3.34315 3.34315 2 5 2C6.65685 2 8 3.34315 8 5Z" fill="currentColor"/>
<path d="M0 13C0 10.7909 1.79086 9 4 9H6C8.20914 9 10 10.7909 10 13C10 13.5523 9.55228 14 9 14H1C0.447716 14 0 13.5523 0 13Z" fill="currentColor"/>
</svg>
