<svg width="16" height="16" viewBox="0 0 16 16" fill="none" xmlns="http://www.w3.org/2000/svg">
<path d="M12.9734 0.343966C12.8244 -0.114655 12.1756 -0.114655 12.0266 0.343965L11.4298 2.18054H9.49875C9.01652 2.18054 8.81602 2.79761 9.20615 3.08105L10.7684 4.21612L10.1717 6.05269C10.0227 6.51131 10.5476 6.89268 10.9377 6.60924L12.2074 5.68676C12.3819 5.56 12.6181 5.56 12.7926 5.68676L14.0623 6.60924C14.4524 6.89268 14.9773 6.51131 14.8283 6.05269L14.2316 4.21612L15.7938 3.08105C16.184 2.79761 15.9835 2.18054 15.5013 2.18054H13.5702L12.9734 0.343966Z" fill="currentColor"/>
<path d="M8 5C8 6.65685 6.65685 8 5 8C3.34315 8 2 6.65685 2 5C2 3.34315 3.34315 2 5 2C6.65685 2 8 3.34315 8 5Z" fill="currentColor"/>
<path d="M0 13C0 10.7909 1.79086 9 4 9H6C8.20914 9 10 10.7909 10 13C10 13.5523 9.55228 14 9 14H1C0.447716 14 0 13.5523 0 13Z" fill="currentColor"/>
</svg>
