<svg width="16" height="16" viewBox="0 0 16 16" fill="none" xmlns="http://www.w3.org/2000/svg">
<path d="M5 8C6.65685 8 8 6.65685 8 5C8 3.34315 6.65685 2 5 2C3.34315 2 2 3.34315 2 5C2 6.65685 3.34315 8 5 8Z" fill="currentColor"/>
<path d="M4 9C1.79086 9 0 10.7909 0 13C0 13.5523 0.447716 14 1 14H9C9.55228 14 10 13.5523 10 13C10 10.7909 8.20914 9 6 9H4Z" fill="currentColor"/>
<path d="M9.78116 9.0049C10.8397 9.84027 11.5 11.0225 11.5 12.3333V13.1667C11.5 13.463 11.4258 13.7448 11.292 14H15C15.5523 14 16 13.6269 16 13.1667V12.3333C16 10.4924 14.2091 9 12 9H10C9.92657 9 9.85361 9.00165 9.78116 9.0049Z" fill="currentColor"/>
<path d="M8.99999 4.5C8.99999 5.286 8.82087 6.02493 8.50604 6.66795C9.04433 7.47122 9.96041 8 11 8C12.6568 8 14 6.65685 14 5C14 3.34315 12.6568 2 11 2C10.1149 2 9.31929 2.38331 8.77018 2.99299C8.91899 3.46414 8.99999 3.97143 8.99999 4.5Z" fill="currentColor"/>
</svg>
