<svg width="16" height="16" viewBox="0 0 16 16" fill="none" xmlns="http://www.w3.org/2000/svg">
<path d="M15.8922 1.13041C16.102 0.773236 15.9825 0.313645 15.6253 0.103886C15.2681 -0.105873 14.8085 0.0136304 14.5988 0.370805L12.5305 3.89266L11.3525 2.30337C11.1059 1.97059 10.6362 1.90077 10.3034 2.14741C9.97062 2.39406 9.9008 2.86377 10.1474 3.19655L12.0005 5.69671C12.1504 5.89894 12.3917 6.01249 12.6431 5.99905C12.8944 5.98561 13.1223 5.84698 13.2498 5.62992L15.8922 1.13041Z" fill="currentColor"/>
<path d="M8 4.99994C8 6.65679 6.65685 7.99994 5 7.99994C3.34315 7.99994 2 6.65679 2 4.99994C2 3.34308 3.34315 1.99994 5 1.99994C6.65685 1.99994 8 3.34308 8 4.99994Z" fill="currentColor"/>
<path d="M0 12.9999C0 10.7908 1.79086 8.99994 4 8.99994H6C8.20914 8.99994 10 10.7908 10 12.9999C10 13.5522 9.55228 13.9999 9 13.9999H1C0.447716 13.9999 0 13.5522 0 12.9999Z" fill="currentColor"/>
</svg>
