<svg width="16" height="16" viewBox="0 0 16 16" fill="none" xmlns="http://www.w3.org/2000/svg">
<path fill-rule="evenodd" clip-rule="evenodd" d="M0 4C0 2.89543 0.895431 2 2 2H14C15.1046 2 16 2.89543 16 4V12C16 13.1046 15.1046 14 14 14H2C0.895431 14 0 13.1046 0 12V4ZM7 6C7 7.10457 6.10457 8 5 8C3.89543 8 3 7.10457 3 6C3 4.89543 3.89543 4 5 4C6.10457 4 7 4.89543 7 6ZM4.4 9C3.07452 9 2 10.0745 2 11.4C2 11.7314 2.26863 12 2.6 12H7.4C7.73137 12 8 11.7314 8 11.4C8 10.0745 6.92548 9 5.6 9H4.4ZM9 6.25C9 5.83579 9.33579 5.5 9.75 5.5H13.25C13.6642 5.5 14 5.83579 14 6.25C14 6.66421 13.6642 7 13.25 7H9.75C9.33579 7 9 6.66421 9 6.25ZM10.75 8.5C10.3358 8.5 10 8.83579 10 9.25C10 9.66421 10.3358 10 10.75 10H13.25C13.6642 10 14 9.66421 14 9.25C14 8.83579 13.6642 8.5 13.25 8.5H10.75Z" fill="currentColor"/>
</svg>
