<svg width="16" height="16" viewBox="0 0 16 16" fill="none" xmlns="http://www.w3.org/2000/svg">
<path d="M12.75 0C13.1642 0 13.5 0.335786 13.5 0.75V2.5H15.25C15.6642 2.5 16 2.83579 16 3.25C16 3.66421 15.6642 4 15.25 4H13.5V5.75C13.5 6.16421 13.1642 6.5 12.75 6.5C12.3358 6.5 12 6.16421 12 5.75V4H10.25C9.83579 4 9.5 3.66421 9.5 3.25C9.5 2.83579 9.83579 2.5 10.25 2.5H12V0.75C12 0.335786 12.3358 0 12.75 0Z" fill="currentColor"/>
<path d="M8 5C8 6.65685 6.65685 8 5 8C3.34315 8 2 6.65685 2 5C2 3.34315 3.34315 2 5 2C6.65685 2 8 3.34315 8 5Z" fill="currentColor"/>
<path d="M0 13C0 10.7909 1.79086 9 4 9H6C8.20914 9 10 10.7909 10 13C10 13.5523 9.55228 14 9 14H1C0.447716 14 0 13.5523 0 13Z" fill="currentColor"/>
</svg>
