<svg width="16" height="16" viewBox="0 0 16 16" fill="none" xmlns="http://www.w3.org/2000/svg">
<path d="M11 5C11 6.65685 9.65685 8 8 8C6.34315 8 5 6.65685 5 5C5 3.34315 6.34315 2 8 2C9.65685 2 11 3.34315 11 5Z" fill="currentColor"/>
<path d="M6 9C3.79086 9 2 10.7909 2 13C2 13.5523 2.44772 14 3 14H6.03544C6.01209 13.8367 6 13.6698 6 13.5C6 11.567 7.567 10 9.5 10H12.6458C11.9407 9.37764 11.0144 9 10 9H6Z" fill="currentColor"/>
<path d="M9.5 11C8.11929 11 7 12.1193 7 13.5C7 14.8807 8.11929 16 9.5 16H10.5C10.7761 16 11 15.7761 11 15.5C11 15.2239 10.7761 15 10.5 15H9.5C8.67157 15 8 14.3284 8 13.5C8 12.6716 8.67157 12 9.5 12H10.5C10.7761 12 11 11.7761 11 11.5C11 11.2239 10.7761 11 10.5 11H9.5Z" fill="currentColor"/>
<path d="M12 11.5C12 11.2239 12.2239 11 12.5 11H13.5C14.8807 11 16 12.1193 16 13.5C16 14.8807 14.8807 16 13.5 16H12.5C12.2239 16 12 15.7761 12 15.5C12 15.2239 12.2239 15 12.5 15H13.5C14.3284 15 15 14.3284 15 13.5C15 12.6716 14.3284 12 13.5 12H12.5C12.2239 12 12 11.7761 12 11.5Z" fill="currentColor"/>
<path d="M10 13C9.72386 13 9.5 13.2239 9.5 13.5C9.5 13.7761 9.72386 14 10 14H13C13.2761 14 13.5 13.7761 13.5 13.5C13.5 13.2239 13.2761 13 13 13H10Z" fill="currentColor"/>
</svg>
