<svg width="16" height="16" viewBox="0 0 16 16" fill="none" xmlns="http://www.w3.org/2000/svg">
<path d="M8 8C9.65685 8 11 6.65685 11 5C11 3.34315 9.65685 2 8 2C6.34315 2 5 3.34315 5 5C5 6.65685 6.34315 8 8 8Z" fill="currentColor"/>
<path d="M4.39607 9.43046C2.99148 9.76433 2 11.0191 2 12.4628V13.0386C2 13.5696 2.43043 14 2.96139 14H13.0386C13.5696 14 14 13.5696 14 13.0386V12.4628C14 11.0191 13.0085 9.76433 11.6039 9.43046C9.23432 8.86721 6.76568 8.86721 4.39607 9.43046Z" fill="currentColor"/>
</svg>
