<svg width="16" height="16" viewBox="0 0 16 16" fill="none" xmlns="http://www.w3.org/2000/svg">
<path d="M15 5.50018C15.6072 5.04408 16 4.31791 16 3.5C16 2.11929 14.8807 1 13.5 1C12.1193 1 11 2.11929 11 3.5C11 4.31791 11.3928 5.04408 12 5.50018V6.5C12 6.77614 12.2239 7 12.5 7H14.5C14.7761 7 15 6.77614 15 6.5V5.50018Z" fill="currentColor"/>
<path d="M8 5C8 6.65685 6.65685 8 5 8C3.34315 8 2 6.65685 2 5C2 3.34315 3.34315 2 5 2C6.65685 2 8 3.34315 8 5Z" fill="currentColor"/>
<path d="M0 13C0 10.7909 1.79086 9 4 9H6C8.20914 9 10 10.7909 10 13C10 13.5523 9.55228 14 9 14H1C0.447716 14 0 13.5523 0 13Z" fill="currentColor"/>
<path d="M12 8.75C12 8.33579 12.3358 8 12.75 8H14.25C14.6642 8 15 8.33579 15 8.75C15 9.16421 14.6642 9.5 14.25 9.5H12.75C12.3358 9.5 12 9.16421 12 8.75Z" fill="currentColor"/>
</svg>
