<svg width="16" height="16" viewBox="0 0 16 16" fill="none" xmlns="http://www.w3.org/2000/svg">
<path d="M13 0.5C13 0.223858 13.2239 0 13.5 0C13.7761 0 14 0.223858 14 0.5V1.03989C14.1405 1.06254 14.2789 1.09482 14.4137 1.13669C14.852 1.27284 15.247 1.50939 15.5363 1.83404C15.8277 2.1611 16 2.56647 16 3C16 3.27614 15.7761 3.5 15.5 3.5C15.2239 3.5 15 3.27614 15 3C15 2.84018 14.9378 2.66553 14.7896 2.49925C14.6393 2.33055 14.4097 2.18258 14.117 2.09167C13.8252 2.00102 13.4991 1.97628 13.1836 2.02335C12.8676 2.0705 12.5913 2.18518 12.3858 2.33934C12.1808 2.49307 12.0656 2.67022 12.0217 2.83554C11.979 2.99651 11.9981 3.16601 12.0899 3.3323C12.1844 3.50331 12.3581 3.67252 12.6129 3.80019C12.8671 3.92759 13.1762 4 13.5 4C13.9674 4 14.4316 4.10353 14.8352 4.30578C15.2382 4.50776 15.5771 4.80708 15.7854 5.18425C15.9964 5.56614 16.0565 5.99984 15.9449 6.42081C15.8344 6.83743 15.5687 7.19483 15.2142 7.46066C14.8696 7.71911 14.4466 7.88808 14 7.96011V8.5C14 8.77614 13.7761 9 13.5 9C13.2239 9 13 8.77614 13 8.5V7.96011C12.8595 7.93746 12.7211 7.90518 12.5863 7.86331C12.148 7.72716 11.753 7.49061 11.4637 7.16596C11.1723 6.8389 11 6.43353 11 6C11 5.72386 11.2239 5.5 11.5 5.5C11.7761 5.5 12 5.72386 12 6C12 6.15982 12.0622 6.33447 12.2104 6.50075C12.3607 6.66945 12.5903 6.81742 12.883 6.90833C13.1748 6.99898 13.5009 7.02372 13.8164 6.97665C14.1324 6.9295 14.4087 6.81482 14.6142 6.66066C14.8192 6.50693 14.9344 6.32978 14.9783 6.16446C15.021 6.00349 15.0019 5.83399 14.9101 5.6677C14.8156 5.49669 14.6419 5.32748 14.3871 5.19981C14.1329 5.07241 13.8238 5 13.5 5C13.0326 5 12.5684 4.89647 12.1648 4.69422C11.7618 4.49224 11.4229 4.19292 11.2146 3.81575C11.0036 3.43386 10.9435 3.00016 11.0551 2.57919C11.1656 2.16257 11.4313 1.80517 11.7858 1.53934C12.1304 1.28089 12.5534 1.11192 13 1.03989V0.5Z" fill="currentColor"/>
<path d="M5 8C6.65685 8 8 6.65685 8 5C8 3.34315 6.65685 2 5 2C3.34315 2 2 3.34315 2 5C2 6.65685 3.34315 8 5 8Z" fill="currentColor"/>
<path d="M4 9C1.79086 9 0 10.7909 0 13C0 13.5523 0.447716 14 1 14H9C9.55228 14 10 13.5523 10 13C10 10.7909 8.20914 9 6 9H4Z" fill="currentColor"/>
</svg>
