<svg width="16" height="16" viewBox="0 0 16 16" fill="none" xmlns="http://www.w3.org/2000/svg">
<path d="M15.7803 2.28033C16.0732 1.98744 16.0732 1.51256 15.7803 1.21967C15.4874 0.926777 15.0126 0.926777 14.7197 1.21967L12.9985 2.94087L11.2773 1.21967C10.9844 0.926777 10.5095 0.926777 10.2166 1.21967C9.92373 1.51256 9.92373 1.98744 10.2166 2.28033L11.9378 4.00153L10.2197 5.71967C9.92678 6.01256 9.92678 6.48744 10.2197 6.78033C10.5126 7.07322 10.9874 7.07322 11.2803 6.78033L12.9985 5.06219L14.7189 6.78259C15.0118 7.07548 15.4866 7.07548 15.7795 6.78259C16.0724 6.4897 16.0724 6.01482 15.7795 5.72193L14.0591 4.00153L15.7803 2.28033Z" fill="currentColor"/>
<path d="M5 8C6.65685 8 8 6.65685 8 5C8 3.34315 6.65685 2 5 2C3.34315 2 2 3.34315 2 5C2 6.65685 3.34315 8 5 8Z" fill="currentColor"/>
<path d="M4 9C1.79086 9 0 10.7909 0 13C0 13.5523 0.447716 14 1 14H9C9.55228 14 10 13.5523 10 13C10 10.7909 8.20914 9 6 9H4Z" fill="currentColor"/>
</svg>
