<svg width="16" height="16" viewBox="0 0 16 16" fill="none" xmlns="http://www.w3.org/2000/svg">
<path d="M11 5C11 6.65685 9.65685 8 8 8C6.34315 8 5 6.65685 5 5C5 3.34315 6.34315 2 8 2C9.65685 2 11 3.34315 11 5Z" fill="currentColor"/>
<path d="M7.99963 9H6C3.79086 9 2 10.7909 2 13C2 13.5523 2.44772 14 3 14H7.41604C7.14845 13.3875 7 12.7111 7 12C7 10.8744 7.37194 9.83566 7.99963 9Z" fill="currentColor"/>
<path fill-rule="evenodd" clip-rule="evenodd" d="M11.9572 16H12.6482C12.8838 16 13.0874 15.8356 13.137 15.6053L13.3037 14.832C13.6565 14.7076 13.9792 14.519 14.2576 14.2804L15.0063 14.5264C15.2311 14.6002 15.4769 14.5063 15.5952 14.3013L15.9408 13.7028C16.0585 13.4988 16.018 13.2403 15.8434 13.0822L15.257 12.5512C15.2901 12.3726 15.307 12.1882 15.307 12C15.307 11.8118 15.2896 11.6277 15.2565 11.4491L15.8433 10.9162C16.0174 10.758 16.0577 10.4998 15.9401 10.2961L15.5969 9.70162C15.479 9.49735 15.2343 9.40328 15.0099 9.47591L14.2584 9.71916C13.98 9.48052 13.6565 9.29244 13.3037 9.16798L13.1356 8.39387C13.0856 8.16399 12.8822 8 12.647 8H11.9605C11.7247 8 11.5209 8.16483 11.4716 8.39549L11.3065 9.16771C10.9535 9.29213 10.6307 9.48068 10.3522 9.71938L9.59733 9.47772C9.37328 9.40601 9.12955 9.5002 9.01193 9.70393L8.66872 10.2984C8.55078 10.5026 8.59164 10.7616 8.76674 10.9196L9.35301 11.4487C9.31984 11.6274 9.3025 11.8117 9.3025 12C9.3025 12.1883 9.31984 12.3726 9.35301 12.5513L8.7666 13.0761C8.59025 13.2339 8.54869 13.4937 8.66701 13.6987L9.01256 14.2972C9.13033 14.5012 9.37451 14.5953 9.59873 14.5232L10.3518 14.2808C10.6303 14.5195 10.9535 14.7079 11.3065 14.8323L11.4678 15.6025C11.5163 15.8341 11.7205 16 11.9572 16ZM13.3037 12C13.3037 12.5517 12.8564 12.9989 12.3047 12.9989C11.7531 12.9989 11.3058 12.5517 11.3058 12C11.3058 11.4483 11.7531 11.0011 12.3047 11.0011C12.8564 11.0011 13.3037 11.4483 13.3037 12Z" fill="currentColor"/>
</svg>
