<svg width="16" height="16" viewBox="0 0 16 16" fill="none" xmlns="http://www.w3.org/2000/svg">
<path d="M8 8C9.65685 8 11 6.65685 11 5C11 3.34315 9.65685 2 8 2C6.34315 2 5 3.34315 5 5C5 6.65685 6.34315 8 8 8Z" fill="currentColor"/>
<path d="M8 9C5.79086 9 4 10.7909 4 13C4 13.5523 4.44772 14 5 14H11C11.5523 14 12 13.5523 12 13C12 10.7909 10.2091 9 8 9Z" fill="currentColor"/>
<path d="M4.21884 9.00589C4.14639 9.00198 4.07343 9 4 9C1.79086 9 0 10.7909 0 13C0 13.5523 0.447716 14 1 14H2.70802C2.57422 13.6938 2.5 13.3556 2.5 13C2.5 11.4271 3.1603 10.0083 4.21884 9.00589Z" fill="currentColor"/>
<path d="M13.292 14H15C15.5523 14 16 13.5523 16 13C16 10.7909 14.2091 9 12 9C11.9266 9 11.8536 9.00198 11.7812 9.00589C12.8397 10.0083 13.5 11.4271 13.5 13C13.5 13.3556 13.4258 13.6938 13.292 14Z" fill="currentColor"/>
<path d="M11.5219 7.80141C11.8223 7.92926 12.1529 8 12.5 8C13.8807 8 15 6.88071 15 5.5C15 4.11929 13.8807 3 12.5 3C12.347 3 12.1973 3.01374 12.0519 3.04005C12.339 3.63251 12.5 4.29745 12.5 5C12.5 6.05909 12.1341 7.03273 11.5219 7.80141Z" fill="currentColor"/>
<path d="M3.94811 3.04005C3.80272 3.01374 3.65297 3 3.5 3C2.11929 3 1 4.11929 1 5.5C1 6.88071 2.11929 8 3.5 8C3.84711 8 4.17769 7.92926 4.47812 7.80141C3.86587 7.03273 3.5 6.05909 3.5 5C3.5 4.29745 3.661 3.63251 3.94811 3.04005Z" fill="currentColor"/>
</svg>
