<svg width="16" height="16" viewBox="0 0 16 16" fill="none" xmlns="http://www.w3.org/2000/svg">
<path d="M11 7.99999C11 8.55228 10.5523 8.99999 10 8.99999C9.44772 8.99999 9.00001 8.55228 9.00001 7.99999C9.00001 7.44771 9.44772 6.99999 10 6.99999C10.5523 6.99999 11 7.44771 11 7.99999Z" fill="currentColor"/>
<path fill-rule="evenodd" clip-rule="evenodd" d="M0 4C0 2.89543 0.895431 2 2 2H14C15.1046 2 16 2.89543 16 4V12C16 13.1046 15.1046 14 14 14H2C0.895431 14 0 13.1046 0 12V4ZM2 4.5C2 4.22386 2.22386 4 2.5 4C2.77614 4 3 4.22386 3 4.5V11.5C3 11.7761 2.77614 12 2.5 12C2.22386 12 2 11.7761 2 11.5V4.5ZM13.7837 4.22001C14.0765 4.51299 14.0763 4.98787 13.7833 5.28067L12.2178 6.84525C12.3981 7.19071 12.5 7.58355 12.5 8.00019C12.5 8.4176 12.3977 8.81113 12.2168 9.15706L13.7777 10.718C14.0706 11.0109 14.0706 11.4857 13.7777 11.7786C13.4848 12.0715 13.0099 12.0715 12.7171 11.7786L11.1559 10.2175C10.8102 10.3981 10.417 10.5002 9.99999 10.5002C9.5828 10.5002 9.18948 10.398 8.84369 10.2173L7.27932 11.7807C6.98634 12.0735 6.51146 12.0733 6.21866 11.7804C5.92586 11.4874 5.926 11.0125 6.21899 10.7197L7.78299 9.15667C7.60221 8.81083 7.49999 8.41745 7.49999 8.00019C7.49999 7.58315 7.6021 7.18997 7.78269 6.84427L6.21912 5.2807C5.92622 4.98781 5.92622 4.51293 6.21912 4.22004C6.51201 3.92715 6.98688 3.92715 7.27978 4.22004L8.84312 5.78338C9.18905 5.60249 9.58257 5.50019 9.99999 5.50019C10.4178 5.50019 10.8117 5.60268 11.1578 5.7839L12.723 4.21968C13.016 3.92688 13.4909 3.92703 13.7837 4.22001Z" fill="currentColor"/>
</svg>
