<svg width="16" height="16" viewBox="0 0 16 16" fill="none" xmlns="http://www.w3.org/2000/svg">
<path d="M2 1C1.44772 1 1 1.44772 1 2C1 2.55228 1.44772 3 2 3H14C14.5523 3 15 2.55228 15 2C15 1.44772 14.5523 1 14 1H2Z" fill="currentColor"/>
<path d="M2 5C1.44772 5 1 5.44772 1 6C1 6.55228 1.44772 7 2 7H14C14.5523 7 15 6.55228 15 6C15 5.44772 14.5523 5 14 5H2Z" fill="currentColor"/>
<path d="M1 10C1 9.44771 1.44772 9 2 9H14C14.5523 9 15 9.44771 15 10C15 10.5523 14.5523 11 14 11H2C1.44772 11 1 10.5523 1 10Z" fill="currentColor"/>
<path d="M2 13C1.44772 13 1 13.4477 1 14C1 14.5523 1.44772 15 2 15H14C14.5523 15 15 14.5523 15 14C15 13.4477 14.5523 13 14 13H2Z" fill="currentColor"/>
</svg>
