<svg width="16" height="16" viewBox="0 0 16 16" fill="none" xmlns="http://www.w3.org/2000/svg">
<path fill-rule="evenodd" clip-rule="evenodd" d="M15.8541 13.3871L8.95405 1.54312C8.53205 0.819122 7.46806 0.819122 7.04506 1.54312L0.146055 13.3871C-0.271945 14.1051 0.257055 15.0001 1.10106 15.0001H14.8991C15.7431 15.0001 16.2721 14.1051 15.8541 13.3871ZM7 7C7 6.44772 7.44772 6 8 6C8.55229 6 9 6.44772 9 7V9C9 9.55229 8.55229 10 8 10C7.44772 10 7 9.55229 7 9V7ZM8 13C8.55229 13 9 12.5523 9 12C9 11.4477 8.55229 11 8 11C7.44772 11 7 11.4477 7 12C7 12.5523 7.44772 13 8 13Z" fill="currentColor"/>
</svg>
