<svg width="16" height="16" viewBox="0 0 16 16" fill="none" xmlns="http://www.w3.org/2000/svg">
<path d="M12.7082 0.299394L9.59317 3.41439C8.81212 4.19544 8.81212 5.46177 9.59317 6.24282L9.76474 6.41439C10.5458 7.19544 11.8121 7.19544 12.5932 6.41439L15.7046 3.30294C15.8958 3.83281 16 4.40423 16 5C16 7.76142 13.7614 10 11 10C10.1335 10 9.31858 9.77962 8.6081 9.39186L2.29582 15.7041C1.9053 16.0947 1.27213 16.0947 0.88161 15.7041L0.295823 15.1184C-0.0947011 14.7278 -0.0947015 14.0947 0.295822 13.7041L6.6081 7.39185C6.22035 6.68137 5.99997 5.86642 5.99997 5C5.99997 2.23858 8.23855 0 11 0C11.5999 0 12.1752 0.105663 12.7082 0.299394Z" fill="currentColor"/>
</svg>
