<svg width="16" height="16" viewBox="0 0 16 16" fill="none" xmlns="http://www.w3.org/2000/svg">
<path d="M9.75 1.02686C9.33579 1.02686 9 1.36264 9 1.77686C9 2.19107 9.33579 2.52686 9.75 2.52686H12.8186L9.13336 7.84995C8.97457 8.07931 8.9562 8.37784 9.08567 8.62494C9.21513 8.87203 9.47104 9.02686 9.75 9.02686H14.25C14.6642 9.02686 15 8.69107 15 8.27686C15 7.86264 14.6642 7.52686 14.25 7.52686H11.1814L14.8666 2.20376C15.0254 1.97441 15.0438 1.67587 14.9143 1.42878C14.7849 1.18168 14.529 1.02686 14.25 1.02686H9.75Z" fill="currentColor"/>
<path d="M1.75 7.02686C1.33579 7.02686 1 7.36264 1 7.77686C1 8.19107 1.33579 8.52686 1.75 8.52686H4.81858L1.13336 13.8499C0.974572 14.0793 0.956201 14.3778 1.08567 14.6249C1.21513 14.872 1.47104 15.0269 1.75 15.0269H6.25C6.66422 15.0269 7 14.6911 7 14.2769C7 13.8626 6.66422 13.5269 6.25 13.5269H3.18143L6.86665 8.20376C7.02543 7.97441 7.0438 7.67587 6.91434 7.42878C6.78487 7.18168 6.52896 7.02686 6.25 7.02686H1.75Z" fill="currentColor"/>
</svg>
